<svg xmlns="http://www.w3.org/2000/svg" id="Ebene_1" data-name="Ebene 1" viewBox="0 0 1124.72 410.75"><path d="M465,230.1l-36.2-35.9,18.3-18.3L483,211.8Zm21.8,22.1L505,233.9,636.6,365.2c18.5,18.3,29.9,36.8,34.3,48.9l-19,18.9c-5-13.6-15.5-31.2-33.7-49.5Z" transform="translate(-58.32 -175.9)"></path><path d="M697.3,311.1,715,293.4c34.8,34.8,32.4,59.2,17.1,74.1-18.8,18.5-50,14.4-96.2-32.1-46.2-46.2-50.9-76.6-32.6-94.8,15.5-15.5,44.2-14.9,84.6,25.4l11.6,11.6-42,42c32.9,32.9,52.3,43.1,61.1,34.3C724.6,347.3,721.3,335.1,697.3,311.1ZM645.6,308l24.3-24.3c-28.8-29-45.9-36.5-52.8-29.6C609.3,261.9,614.9,275.7,645.6,308Z" transform="translate(-58.32 -175.9)"></path><path d="M726.9,287.3,743.2,271l-76.6-77.1,17.7-18,77.1,76.9L780.2,234l14.7,14.7-18.8,18.8L830.3,322c18.3,18.3,30.7,28.5,44,33.7L854.9,375c-11.9-4.7-25.2-16-43.4-34.3l-54.2-54.5L741.5,302Z" transform="translate(-58.32 -175.9)"></path><path d="M898.6,360.3l-43.7-93.7-25.7,25.7-14.7-14.7,44-43.7,14.7,14.7,43.4,93.7,29.9-29.9,14.7,14.7L913.3,375Z" transform="translate(-58.32 -175.9)"></path><path d="M918.8,287.3,935.1,271l-76.6-77.1,17.7-18,77.2,76.9L972.2,234l14.7,14.7L968,267.4l54.2,54.5c18.3,18.3,30.7,28.5,44,33.7L1046.8,375c-11.9-4.7-25.2-16-43.4-34.3l-54.2-54.5L933.5,302Z" transform="translate(-58.32 -175.9)"></path><path d="M603.3,564.1,784.1,383.3l18.3,18.2-26,26c-8,8-16.6,15.8-24.9,23.5,21.6-16.6,40.9-17.1,53.1-5,13,13,7.5,31.2-10.5,49.2L707,582.3l-18.2-18.5,82.1-82.7c11.6-11.6,13.8-21.3,7.5-27.4-7.7-8-24.3-3.9-35.9,7.7l-121,121Zm162,0L888.1,441.3l18.3,18.2L783.6,582.4Zm174.2-22.9,17.7,17.7c-34.8,34.8-58.9,32.4-73.8,17.1-18.8-18.8-14.4-50,31.8-96.2s76.6-50.9,95.1-32.6c15.5,15.5,14.7,44.2-25.7,84.6L973,543.4l-42-42c-32.6,32.9-42.9,52.3-34,61.1C903.3,568.6,915.8,565.2,939.5,541.2Zm-29.3-122,35.9-35.9,18.3,18.2-35.9,35.9Zm32.4,70.3,24.3,24.3c29-28.8,36.5-45.9,29.6-52.8C988.8,453.2,974.9,458.8,942.6,489.5Zm40.1,74.6,122.8-122.8,15.2,15.2c23.5-23.2,44.2-24.3,56.7-11.9,10.5,10.5,5.8,25.2-9.7,40.6l-47,47L1102.5,514l42.6-42.6c8.8-8.8,10-14.7,6.1-18.8-5.5-5.8-18-2.5-27.4,6.9L1001,582.3Z" transform="translate(-58.32 -175.9)"></path><path d="M111,326.8c-1.2-.1-33.7,45.6-38.7,61.4-7.4,23.2-13.2,44.5-13.7,70.4-.9,45.1-2.5,93.3,46,110,27.5,9.5,60,10.9,88.8,12.6,20.6,1.2,44.6,2,64.9-1.3,43.8-7.2,94.6-38.4,105.4-85.1,8.7-37.7,6.4-81.2,5.2-120-.8-23.9-17.2-52.1-34.3-67.9-34.5-31.8-118.1-41.1-118.1-41.1l-56.1,11.8-15.6,8.8Z" transform="translate(-58.32 -175.9)"></path></svg>
