<?xml version="1.0" encoding="UTF-8"?>
<svg width="290mm" height="67.986mm" version="1.1" xmlns="http://www.w3.org/2000/svg"><g transform="translate(-141.72 -123.77)"><g><path d="m265.49 210.38 13.311 26.232 1.6986 22.801-5.1502 23.139-11.541 21.167-11.393 12.578 36.203 14.803 43.312 8.1585 47.054 2.8245 58.673-5.1871 65.07-14.657 37.506-16.728 21.779-10.802-5.4895-30.051-16.129-36.963-21.188-23.555-30.235-21.391-39.712-16.346-40.431-7.7288-34.843 1.1492-28.91 5.4331-28.114 9.9708-30.573 18.102z" fill="#c81e00"/><path d="m190.48 197.5 20.779-7.892 16.692 2.036 22.71 8.0321 16.657 12.908 11.169 29.199-0.53478 35.498-10.4 21.11-13.507 16.115-23.118 6.8634-32.102-1.2747-24.105-13.112-23.274-19.447 11.985-0.59212-7.7792-18.496 1.2893-8.6456 7.7579 6.4822 10.414 2.3461 8.9907-3.3048 9.8784-8.4978 7.9407-12.979 3.6636-18.489-0.56392-11.415-6.243-10.562z" fill="#323232" stroke="#000" stroke-width="1px"/><path d="m442.45 165.57c3.7736 60.849-129.81 94.746-160.85 82.547-3.1204-1.2264-15.094-37.736-15.094-37.736l25.472-20.755 44.34-20.283 37.736-8.0189h36.792z" fill="#ffc7c1"/></g><g transform="matrix(1.1705 0 0 1.294 89.868 108.94)" style="shape-inside:url(#rect3765);white-space:pre" aria-label="StugA Informatik"><path d="m531.38 29.007v14.812q-5.7656-2.5781-11.25-3.8906-5.4844-1.3125-10.359-1.3125-6.4688 0-9.5625 1.7812t-3.0938 5.5312q0 2.8125 2.0625 4.4062 2.1094 1.5469 7.5938 2.6719l7.6875 1.5469q11.672 2.3438 16.594 7.125 4.9219 4.7812 4.9219 13.594 0 11.578-6.8906 17.25-6.8438 5.625-20.953 5.625-6.6562 0-13.359-1.2656-6.7031-1.2656-13.406-3.75v-15.234q6.7031 3.5625 12.938 5.3906 6.2812 1.7812 12.094 1.7812 5.9062 0 9.0469-1.9688 3.1406-1.9688 3.1406-5.625 0-3.2812-2.1562-5.0625-2.1094-1.7812-8.4844-3.1875l-6.9844-1.5469q-10.5-2.25-15.375-7.1719-4.8281-4.9219-4.8281-13.266 0-10.453 6.75-16.078t19.406-5.625q5.7656 0 11.859 0.89062 6.0938 0.84375 12.609 2.5781z"/><path d="m569.39 29.382v14.906h17.297v12h-17.297v22.266q0 3.6562 1.4531 4.9688 1.4531 1.2656 5.7656 1.2656h8.625v12h-14.391q-9.9375 0-14.109-4.125-4.125-4.1719-4.125-14.109v-22.266h-8.3438v-12h8.3438v-14.906z"/><path d="m596.39 76.351v-32.062h16.875v5.25q0 4.2656-0.0469 10.734-0.0469 6.4219-0.0469 8.5781 0 6.3281 0.32812 9.1406 0.32813 2.7656 1.125 4.0312 1.0312 1.6406 2.6719 2.5312 1.6875 0.89062 3.8438 0.89062 5.25 0 8.25-4.0312t3-11.203v-25.922h16.781v52.5h-16.781v-7.5938q-3.7969 4.5938-8.0625 6.7969-4.2188 2.1562-9.3281 2.1562-9.0938 0-13.875-5.5781-4.7344-5.5781-4.7344-16.219z"/><path d="m701.02 87.882q-3.4688 4.5938-7.6406 6.75-4.1719 2.1562-9.6562 2.1562-9.6094 0-15.891-7.5469-6.2812-7.5938-6.2812-19.312 0-11.766 6.2812-19.266 6.2812-7.5469 15.891-7.5469 5.4844 0 9.6562 2.1562 4.1719 2.1562 7.6406 6.7969v-7.7812h16.875v47.203q0 12.656-8.0156 19.312-7.9688 6.7031-23.156 6.7031-4.9219 0-9.5156-0.75t-9.2344-2.2969v-13.078q4.4062 2.5312 8.625 3.75 4.2188 1.2656 8.4844 1.2656 8.25 0 12.094-3.6094 3.8438-3.6094 3.8438-11.297zm-11.062-32.672q-5.2031 0-8.1094 3.8438t-2.9062 10.875q0 7.2188 2.8125 10.969 2.8125 3.7031 8.2031 3.7031 5.25 0 8.1562-3.8438t2.9062-10.828q0-7.0312-2.9062-10.875t-8.1562-3.8438z"/><path d="m777.24 84.039h-28.219l-4.4531 12.75h-18.141l25.922-69.984h21.516l25.922 69.984h-18.141zm-23.719-12.984h19.172l-9.5625-27.844z"/><path d="m483.28 127.6h9.4688v69.984h-9.4688z"/><path d="m554.86 165.9v31.688h-8.625v-31.406q0-7.4531-2.9062-11.156-2.9062-3.7031-8.7188-3.7031-6.9844 0-11.016 4.4531-4.0312 4.4531-4.0312 12.141v29.672h-8.6719v-52.5h8.6719v8.1562q3.0938-4.7344 7.2656-7.0781 4.2188-2.3438 9.7031-2.3438 9.0469 0 13.688 5.625 4.6406 5.5781 4.6406 16.453z"/><path d="m598.64 124.65v7.1719h-8.25q-4.6406 0-6.4688 1.875-1.7812 1.875-1.7812 6.75v4.6406h14.203v6.7031h-14.203v45.797h-8.6719v-45.797h-8.25v-6.7031h8.25v-3.6562q0-8.7656 4.0781-12.75 4.0781-4.0312 12.938-4.0312z"/><path d="m626.21 151.14q-6.9375 0-10.969 5.4375-4.0312 5.3906-4.0312 14.812 0 9.4219 3.9844 14.859 4.0312 5.3906 11.016 5.3906 6.8906 0 10.922-5.4375t4.0312-14.812q0-9.3281-4.0312-14.766-4.0312-5.4844-10.922-5.4844zm0-7.3125q11.25 0 17.672 7.3125 6.4219 7.3125 6.4219 20.25 0 12.891-6.4219 20.25-6.4219 7.3125-17.672 7.3125-11.297 0-17.719-7.3125-6.375-7.3594-6.375-20.25 0-12.938 6.375-20.25 6.4219-7.3125 17.719-7.3125z"/><path d="m695.02 153.15q-1.4531-0.84375-3.1875-1.2188-1.6875-0.42188-3.75-0.42188-7.3125 0-11.25 4.7812-3.8906 4.7344-3.8906 13.641v27.656h-8.6719v-52.5h8.6719v8.1562q2.7188-4.7812 7.0781-7.0781 4.3594-2.3438 10.594-2.3438 0.89062 0 1.9688 0.14063 1.0781 0.0937 2.3906 0.32812z"/><path d="m743.25 155.17q3.2344-5.8125 7.7344-8.5781 4.5-2.7656 10.594-2.7656 8.2031 0 12.656 5.7656 4.4531 5.7188 4.4531 16.312v31.688h-8.6719v-31.406q0-7.5469-2.6719-11.203-2.6719-3.6562-8.1562-3.6562-6.7031 0-10.594 4.4531-3.8906 4.4531-3.8906 12.141v29.672h-8.6719v-31.406q0-7.5938-2.6719-11.203-2.6719-3.6562-8.25-3.6562-6.6094 0-10.5 4.5-3.8906 4.4531-3.8906 12.094v29.672h-8.6719v-52.5h8.6719v8.1562q2.9531-4.8281 7.0781-7.125 4.125-2.2969 9.7969-2.2969 5.7188 0 9.7031 2.9062 4.0312 2.9062 5.9531 8.4375z"/><path d="m819.75 171.2q-10.453 0-14.484 2.3906-4.0312 2.3906-4.0312 8.1562 0 4.5938 3 7.3125 3.0469 2.6719 8.25 2.6719 7.1719 0 11.484-5.0625 4.3594-5.1094 4.3594-13.547v-1.9219zm17.203-3.5625v29.953h-8.625v-7.9688q-2.9531 4.7812-7.3594 7.0781-4.4062 2.25-10.781 2.25-8.0625 0-12.844-4.5-4.7344-4.5469-4.7344-12.141 0-8.8594 5.9062-13.359 5.9531-4.5 17.719-4.5h12.094v-0.84375q0-5.9531-3.9375-9.1875-3.8906-3.2812-10.969-3.2812-4.5 0-8.7656 1.0781-4.2656 1.0781-8.2031 3.2344v-7.9688q4.7344-1.8281 9.1875-2.7188 4.4531-0.9375 8.6719-0.9375 11.391 0 17.016 5.9062t5.625 17.906z"/><path d="m863.25 130.18v14.906h17.766v6.7031h-17.766v28.5q0 6.4219 1.7344 8.25 1.7812 1.8281 7.1719 1.8281h8.8594v7.2188h-8.8594q-9.9844 0-13.781-3.7031-3.7969-3.75-3.7969-13.594v-28.5h-6.3281v-6.7031h6.3281v-14.906z"/><path d="m892.36 145.09h8.625v52.5h-8.625zm0-20.438h8.625v10.922h-8.625z"/><path d="m918.71 124.65h8.6719v43.078l25.734-22.641h11.016l-27.844 24.562 29.016 27.938h-11.25l-26.672-25.641v25.641h-8.6719z"/></g><path d="m266.06 210.36s44.347-51.966 124.48-51.347c74.098-1.6314 167.87 43.768 170.91 135.73 0 0-64.319 41.431-164.79 45.902-107.92 4.8016-145.4-24.856-145.4-24.856" fill="none" stroke="#000" stroke-linecap="round" stroke-width="10"/><path d="m229.43 189.92c-15.603-1.9846-26.221-1.5474-40.66 7.6673 0 0-8.5328 0.99367-14.071 4.7-5.5382 3.7064-17.655 14.572-20.306 29.037-2.6514 14.465-1.1833 22.371-1.1833 22.371s2.1069 7.9057 2.9596 13.585c0.85269 5.6791 7.8074 19.067 7.8074 19.067l-14.924-0.97911s15.883 16.138 25.099 21.645c12.38 7.3981 31.066 15.057 45.962 15.465 14.895 0.40837 30.791-2.0933 45.841-21.717 19.61-28.46 22.845-83.699-18.886-104.34" fill="none" stroke="#000" stroke-linecap="round" stroke-linejoin="round" stroke-width="10"/><g stroke="#000" stroke-linecap="round" stroke-linejoin="round"><g><path d="m269.25 362.82 6.461-32.895 25.667 9.099-22.313 27.297z" stroke-width="10"/><ellipse transform="rotate(-2.8283 61.523 138.88)" cx="423.71" cy="236.65" rx="39.143" ry="36.857" stroke-width="5"/><ellipse transform="rotate(-2.8283 1274.2 1880.8)" cx="423.71" cy="236.65" rx="39.143" ry="36.857" stroke-width="5"/></g><g stroke-width="5"><path d="m363.76 159.63c11.276 20.331 0.90562 40.801-18.407 50.515-19.313 9.714-40.124 1.5219-51.53-15.338-3.9605-5.8543 11.32-13.371 30.633-23.085 19.313-9.714 38.109-14.248 39.305-12.092z"/><path d="m555.41 267.31c-18.602 13.945-40.296 6.4652-52.555-11.341s-6.9833-39.541 8.1623-53.141c5.2591-4.7224 14.791 9.3893 27.049 27.196 12.259 17.806 19.316 35.808 17.343 37.287z"/><path d="m422.62 334.82c-6.4768-22.328 8.1822-39.983 29.17-45.163 20.988-5.1803 39.459 7.4308 46.834 26.404 2.5608 6.588-14.008 10.522-34.996 15.702s-40.322 5.4254-41.009 3.0573z"/></g><path d="m378.9 375.53-4.3389-33.241 27.228 0.46144-12.47 32.977z" stroke-width="10"/><path d="m491.76 362.74-16.447-29.212 25.428-9.7469 0.7563 35.248z" stroke-width="10"/></g><g stroke="#000"><path d="m193.3 192.77s-6.3558-12.845-9.858-25.831c-3.5022-12.986-1.6986-22.801-1.6986-22.801s-8.289 1.6318-12.958 4.0729c-7.2504 3.7909-14.162 14.431-14.162 14.431l-10.407-13.789s9.8863-11.094 20.87-17.623c9.4487-5.6159 23.231-4.5804 23.231-4.5804l8.385 7.5955s-5.4322 17.432-2.0428 28.135c3.3894 10.703 11.112 28.057 11.112 28.057" fill="none" stroke-linecap="round" stroke-linejoin="round" stroke-width="5"/><path d="m231.08 203.03s-1.5294-19.377 2.3034-34.441 9.089-24.478 9.089-24.478-6.2825-3.3065-10.928-1.1765c-8.3918 3.8474-15.473 11.063-15.473 11.063l-6.5814-17.411s14.625-12.512 28.114-9.9708c14.437 2.7195 22.625 6.3199 22.625 6.3199l-7e-3 11.443s-11.365 13.148-13.486 28.128-1.1055 35.526-1.1055 35.526" fill="none" stroke-linecap="round" stroke-linejoin="round" stroke-width="5"/><path d="m191.5 191.14-3.9601-10.675-4.8128-16.354-1.5576-19.947-13.472 5.2426-13.648 13.261-9.2659-13.845 11.992-12.035 13.93-7.5537 17.009-3.1288 9.611 9.2513-3.5158 9.8998 0.53572 10.844 1.649 10.217 5.0734 10.048 2.8468 11.302z" stroke-width="1px"/><path d="m216.59 152.83 8.2508-6.701 7.8775-2.6777 7.5041 1.3456-2.3461 10.414-3.5158 9.8998-3.2338 15.607-0.94859 24.122 15.271 5.1032-0.45593-26.478 3.1774-16.749 6.1721-14.036 5.8269-9.4419-1.1064-10.816-19.144-5.3476-10.33-0.63394-11.732 5.7287-8.3354 4.9888z" stroke-width="1px"/></g><g fill="none" stroke="#000" stroke-linecap="round" stroke-linejoin="round" stroke-width="5"><ellipse transform="rotate(22.29 102.21 -185.96)" cx="334" cy="172.93" rx="23.143" ry="36"/><path d="m153.3 290.3s22.676 1.0416 44.609-8.9179c21.205-9.6289 33.947-33.868 33.947-33.868"/><path d="m212.96 247.31s12.472-6.176 20.004-0.41613 5.9261 15.727 5.9261 15.727"/></g><ellipse transform="rotate(4.4533 307.83 -2003.5)" cx="348" cy="245.79" rx="9.7143" ry="19.143" stroke="#000" stroke-linecap="round" stroke-linejoin="round" stroke-width="5"/></g></svg>
