<?xml version="1.0" encoding="UTF-8" standalone="no"?>
<svg
version="1.0"
width="591pt"
height="506pt"
viewBox="0 85 591 506"
preserveAspectRatio="xMidYMid"
aria-labelledby="djessica tjessica"
role="img"
id="svgjessica"
xml:space="preserve"
xmlns="http://www.w3.org/2000/svg"
	<title id="tjessica">Jessica</title>
	<desc id="djessica">Jessica</desc>
	<g
	transform="matrix(0.1,0,0,-0.1,0,591)"
	stroke="none"
	id="g1">
		<path
		fill="currentColor"
		d="M2075 3915 c-158 -34 -396 -185 -576 -365 -96 -96 -189 -216 -189 -243 0 -6 21 9 48 35 74 71 210 168 288 204 149 68 342 105 550 105 331 0 459 -70 766 -421 l57 -64 53 37 c29 20 64 45 76 55 l24 18 -134 180 c-164 218 -222 282 -311 345 -120 84 -245 118 -452 125 -92 3 -151 -1 -200 -11z"
		id="path4" />
		<path
		fill="currentColor"
		d="M3470 3915 c-196 -37 -270 -75 -402 -206 -54 -53 -98 -102 -98 -108 0 -13 118 -174 131 -179 5 -2 25 13 46 33 49 48 142 111 201 137 89 40 145 50 312 55 374 12 639 -78 870 -295 30 -29 56 -52 57 -52 11 0 -46 90 -97 154 -143 177 -426 384 -605 442 -100 33 -295 42 -415 19z"
		id="path6" />
		<path
		fill="currentColor"
		d="M1933 3520 c-265 -29 -547 -212 -718 -463 -53 -79 -61 -86 -72 -71 -21 28 -53 123 -60 173 -3 25 -9 53 -14 61 -12 24 2 -149 19 -225 19 -87 19 -113 0 -200 -16 -70 -32 -243 -22 -233 2 3 9 34 15 69 5 35 23 93 40 128 l29 64 62 -89 c109 -158 261 -290 432 -376 141 -71 222 -90 381 -91 195 -1 321 39 513 166 89 58 363 274 377 296 6 10 -190 151 -209 151 -6 0 -49 -25 -96 -56 -138 -90 -303 -160 -485 -206 -124 -31 -399 -31 -518 1 -122 32 -230 93 -319 182 -43 42 -78 82 -78 90 0 23 87 116 154 164 148 105 264 137 501 138 175 1 254 -12 403 -63 266 -93 516 -243 835 -503 207 -168 315 -241 434 -293 128 -55 193 -68 333 -67 156 1 245 22 390 95 163 82 325 226 434 385 44 64 51 71 61 55 18 -26 55 -131 65 -187 7 -39 8 -25 4 58 -2 60 -12 132 -22 165 -17 55 -17 59 1 117 11 37 20 101 22 170 4 91 3 100 -5 54 -10 -64 -41 -158 -62 -188 -13 -19 -18 -15 -77 69 -74 105 -214 243 -308 304 -89 57 -232 121 -319 142 -99 25 -285 22 -386 -4 -98 -26 -214 -82 -348 -167 -119 -76 -340 -235 -340 -245 0 -10 203 -163 215 -163 6 0 58 27 117 60 292 164 569 231 839 205 141 -14 227 -41 332 -103 71 -42 207 -169 207 -192 0 -22 -90 -116 -155 -162 -133 -95 -246 -130 -455 -141 -155 -7 -280 10 -435 61 -227 76 -361 155 -687 407 -333 257 -580 404 -738 441 -86 21 -198 27 -287 17z"
		id="path8" />
		<path
		fill="currentColor"
		d="M2766 3328 c-20 -23 -36 -45 -36 -49 0 -4 32 -31 71 -59 l72 -52 30 30 30 30 -63 71 c-35 39 -64 71 -66 71 -1 0 -19 -19 -38 -42z"
		id="path10" />
		<path
		fill="currentColor"
		d="M1771 3060 c-87 -18 -172 -52 -231 -92 l-60 -40 -40 32 c-23 18 -43 30 -46 28 -2 -3 9 -22 26 -43 16 -21 30 -40 30 -42 0 -3 -16 -25 -36 -49 -42 -51 -35 -56 20 -14 22 17 44 30 48 30 5 0 30 -14 54 -31 193 -133 499 -140 806 -20 107 43 248 116 248 129 0 5 -32 23 -70 42 -70 34 -71 34 -98 16 -69 -44 -236 -117 -327 -142 -170 -46 -388 -36 -525 23 l-35 15 43 19 c129 56 353 63 527 16 l91 -24 74 35 75 34 -35 15 c-94 40 -225 65 -360 69 -74 2 -155 -1 -179 -6z"
		id="path12" />
		<path
		fill="currentColor"
		d="M3786 3054 c-70 -14 -226 -62 -226 -70 0 -3 33 -20 74 -38 l75 -34 59 18 c178 56 415 50 564 -14 l33 -14 -38 -16 c-124 -54 -342 -66 -498 -28 -109 27 -226 73 -311 123 -36 21 -71 39 -77 39 -17 0 -141 -64 -141 -72 0 -14 261 -135 348 -162 98 -31 244 -56 323 -56 76 0 216 25 280 50 29 12 75 36 104 55 29 19 56 35 60 35 5 0 22 -10 39 -23 55 -41 60 -42 40 -8 -10 18 -27 39 -36 48 -17 15 -16 18 17 54 49 55 43 66 -11 24 l-47 -35 -31 20 c-127 84 -256 120 -421 119 -60 0 -141 -7 -179 -15z"
		id="path14" />
		<path
		fill="currentColor"
		d="M2462 2856 c-35 -18 -64 -36 -64 -40 0 -5 13 -17 28 -27 28 -18 28 -18 94 18 82 46 79 41 51 64 -30 25 -34 24 -109 -15z"
		id="path16" />
		<path
		fill="currentColor"
		d="M3327 2871 l-28 -18 43 -25 c100 -59 99 -58 137 -32 l35 23 -78 36 c-42 19 -78 35 -79 35 -1 0 -15 -8 -30 -19z"
		id="path18" />
		<path
		fill="currentColor"
		d="M2792 2589 c-34 -28 -62 -55 -62 -59 0 -20 282 -382 351 -450 127 -126 253 -179 477 -200 201 -20 332 10 504 113 136 82 252 173 359 283 78 81 169 202 169 227 0 5 -31 -20 -68 -55 -83 -78 -219 -170 -301 -203 -249 -102 -624 -125 -827 -51 -135 49 -238 132 -424 340 -52 58 -99 106 -105 106 -6 0 -38 -23 -73 -51z"
		id="path20" />
		<path
		fill="currentColor"
		d="M2996 2611 l-29 -30 31 -38 c50 -63 102 -109 110 -97 4 5 20 27 36 48 16 21 25 40 20 45 -73 62 -123 101 -131 101 -5 0 -22 -13 -37 -29z"
		id="path22" />
		<path
		fill="currentColor"
		d="M1310 2506 c0 -16 42 -87 81 -137 130 -164 362 -346 550 -433 102 -47 174 -60 314 -60 222 2 396 56 516 161 63 55 159 159 159 172 0 4 -29 47 -65 94 l-66 87 -62 -53 c-175 -148 -332 -196 -607 -184 -201 9 -416 62 -539 133 -76 45 -193 134 -238 182 -24 25 -43 42 -43 38z"
		id="path24" />
	</g>
	<g
	id="g2"
	transform="translate(10.71047,370.81319)">
		<path
		fill="currentColor"
		d="m 93.260091,151.28291 q -8.834353,11.21095 -21.114133,15.32038 -15.456425,5.187 -30.109969,-4.39073 15.340401,1.43556 25.707365,-4.44976 7.272272,-4.11654 15.410321,-14.44386 l 35.555005,-45.1199 q 4.00375,-5.080821 2.71877,-9.584672 -0.33798,-1.161529 -3.97097,-6.888999 -2.52184,-3.956674 -1.13916,-7.074539 l 3.03082,1.493129 20.43374,16.102022 z"
		id="path791" />
		<path
		fill="currentColor"
		d="m 162.04517,196.51932 q -2.10211,1.60211 -3.89958,0.79893 l -49.94382,-22.31697 -1.37124,-3.30817 6.64771,-0.57212 q 2.53645,-1.02297 3.47346,-1.91349 0.3729,-0.83454 1.33999,-2.48175 l 0.12156,-0.0997 25.87391,-57.90401 q 1.23346,-2.76039 -0.15144,-6.38272 l -4.00868,-5.333835 3.37919,-1.185483 49.94382,22.316958 q 1.79747,0.80319 2.00637,3.43796 -5.07567,3.43092 -5.85016,5.16419 l -1.37283,4.62344 -3.30669,-2.94081 q -3.9622,-7.16137 -12.36078,-12.83953 l -3.09502,-1.69103 -3.21658,-1.59133 -5.38557,-2.25246 -2.68254,-0.89062 -11.15848,24.9719 32.9321,14.71543 -8.33607,5.9017 -9.23747,3.26554 q -2.3135,-10.50634 -14.08851,-16.384 -0.25678,-0.11474 -1.4478,-0.72395 -1.25522,-0.6379 -1.91903,-0.70348 -0.63513,-0.12977 -0.74304,0.28408 l -16.2576,36.55572 2.45307,1.40419 5.27083,2.50924 3.33132,1.33455 3.32449,1.17747 q 9.83284,2.4684 17.81094,0.64245 l 4.39673,0.50139 -2.52834,4.10711 q -0.7745,1.73327 0.0558,7.80322 z"
		id="path793" />
		<path
		fill="currentColor"
		d="m 242.45227,190.87927 q -2.72509,12.71916 -15.85653,16.95274 -10.88721,3.49197 -24.84391,0.50174 -13.47544,-2.88712 -27.41271,-12.34493 5.81907,-8.02942 6.32977,-9.07053 0.9379,-2.02821 2.93631,-11.02002 5.81029,22.88922 22.37957,26.4392 19.93815,4.27177 22.53067,-7.82863 2.15061,-10.03782 -8.86955,-17.00102 L 196.38778,165.9092 q -13.23499,-8.37254 -10.40679,-21.57296 2.26845,-10.58785 13.7547,-16.54017 7.84738,-4.07134 13.80913,-4.37602 4.07108,-0.20639 12.5276,1.60543 12.51291,2.6809 23.34157,10.53788 l -2.33254,3.16756 q -1.80222,1.69921 -3.17227,4.06628 l -0.50576,1.68935 q -0.36332,2.36704 -0.62847,3.60458 -0.19149,0.89377 -0.33389,1.22281 -0.6482,1.01165 -3.93841,2.60778 -0.56042,-17.52185 -18.02348,-21.26332 -8.04401,-1.72344 -13.50477,1.27727 -5.77995,3.14804 -7.48865,11.1233 -1.79709,8.38777 9.33598,14.15272 l 23.22375,12.09461 q 13.13188,8.85381 10.40679,21.57297 z"
		id="path795" />
		<path
		fill="currentColor"
		d="m 308.86786,193.86302 q -0.59876,12.99402 -12.8564,19.32713 -10.16571,5.23292 -24.42402,4.5759 -13.76664,-0.63437 -29.06818,-7.6743 4.42108,-8.87622 4.75381,-9.98708 0.592,-2.15472 1.08623,-11.35266 9.49125,21.62388 26.4186,22.40389 20.36902,0.9386 20.93865,-11.42328 0.47254,-10.25474 -11.54173,-15.31313 l -24.84743,-7.62059 q -14.43052,-6.08476 -13.8091,-19.57045 0.49843,-10.81665 10.8509,-18.5749 7.07201,-5.30509 12.90272,-6.58493 3.98188,-0.87232 12.62115,-0.47422 12.78331,0.58905 24.7555,6.56054 l -1.78054,3.50769 q -1.49862,1.97217 -2.46122,4.53214 l -0.22139,1.74947 q 0.0304,2.39457 -0.0278,3.65885 -0.0421,0.9131 -0.1285,1.26105 -0.47321,1.10439 -3.45653,3.2193 -3.43104,-17.19178 -21.27148,-18.01387 -8.21784,-0.37867 -13.11151,3.47828 -5.18432,4.05472 -5.55976,12.20232 -0.39486,8.56904 11.53395,12.42691 l 24.89501,8.11548 q 14.40787,6.57643 13.8091,19.57046 z"
		id="path797" />
		<path
		fill="currentColor"
		d="m 347.09865,215.58438 -21.02944,1.64592 q 2.64785,-4.01573 3.15681,-6.52403 l -0.0293,-5.78096 -4.43301,-56.63929 q -0.51572,-6.58922 -4.5095,-8.95668 -1.25751,-0.74791 -7.58525,-2.29795 -4.53139,-1.12642 -5.63043,-4.35519 l 3.24523,-0.88875 25.93631,-2.02997 5.80461,74.16382 q 0.38405,4.90687 1.00092,6.48072 0.70892,1.84876 4.07305,5.18236 z"
		id="path799" />
		<path
		fill="currentColor"
		d="m 424.46838,110.20765 -3.87909,5.27173 q -2.55275,4.49774 -1.78751,7.49536 l 0.73045,2.86136 q -0.0986,0.75084 1.13621,5.58791 -12.99306,-9.96296 -31.79629,-5.16286 -17.16817,4.3827 -25.44965,16.00313 -8.85697,12.49301 -4.56122,29.32054 3.91312,15.32873 14.98853,23.74934 12.17121,9.30195 27.77244,5.31926 19.75702,-5.04358 28.7884,-30.49812 l 4.34792,17.03192 q -10.07463,14.54548 -33.16991,20.44125 -21.25583,5.4262 -36.33769,-2.76988 -15.59499,-8.5005 -20.96901,-29.55195 -5.28707,-20.71081 8.90857,-36.45343 12.21117,-13.56699 34.01202,-19.13232 z"
		id="path801" />
		<path
		fill="currentColor"
		d="m 529.94307,145.39794 -20.35285,12.13381 q -5.65279,-5.22523 -16.02799,-12.0555 l -14.985,-9.89407 q -7.50743,6.76779 -15.75687,24.37413 -9.14721,19.53316 -4.93458,26.59929 0.39606,0.66433 0.99769,1.12425 l -4.19159,2.58077 -10.24263,6.02452 q 2.32977,-5.15449 0.27128,-36.34369 -0.7853,-12.30192 -3.33978,-47.20654 -0.23927,-0.67596 -0.59932,-1.2799 -2.16032,-3.62365 -7.78981,-4.27863 -2.86991,-0.008 -5.71544,-0.11258 l 11.15201,-7.794552 q 5.03827,-3.494832 8.24038,-1.556438 10.66556,6.49345 29.2104,19.74983 19.54369,13.97066 29.04084,20.01464 7.51107,4.77224 12.5227,6.45045 6.04762,2.04289 12.50056,1.47021 z m -55.13357,-12.15368 -25.11047,-15.48161 2.6592,49.08576 q 1.22522,-6.86991 9.66174,-18.12086 1.77929,-2.37052 12.78953,-15.48329 z"
		id="path803" />
	</g>
</svg>
