<?xml version="1.0" encoding="UTF-8" standalone="no"?>
<svg
version="1.0"
width="591pt"
height="506pt"
viewBox="0 85 591 506"
preserveAspectRatio="xMidYMid"
aria-labelledby="drobert trobert"
role="img"
id="svgrobert"
xml:space="preserve"
xmlns="http://www.w3.org/2000/svg"
	<title id="trobert">Robert</title>
	<desc id="drobert">Robert</desc>
	<g
	transform="matrix(0.1,0,0,-0.1,0,591)"
	stroke="none"
	id="g1">
		<path
		fill="currentColor"
		d="M3117 4389 c-59 -4 -167 -20 -240 -34 -522 -101 -692 -219 -744 -512 -17 -98 -13 -415 6 -465 l10 -27 88 30 c206 70 360 94 688 110 222 11 252 10 400 -9 l160 -20 120 24 c141 27 135 26 135 15 0 -14 -43 -28 -255 -81 -241 -61 -326 -84 -426 -115 -77 -24 -664 -145 -794 -164 -153 -22 -333 -32 -388 -22 -62 11 -133 38 -124 47 3 3 46 1 96 -5 91 -11 265 0 284 18 8 8 -10 100 -22 113 -7 7 -161 -14 -268 -38 -78 -17 -109 -40 -137 -98 -21 -44 -20 -61 5 -112 59 -122 177 -176 384 -175 66 1 165 5 220 11 344 33 692 72 765 85 47 8 177 26 290 39 113 14 227 30 254 36 27 6 51 9 53 6 12 -12 -56 -30 -264 -71 -476 -92 -600 -107 -1053 -130 -58 -3 -154 -11 -215 -16 -100 -10 -118 -9 -199 10 -49 12 -103 30 -120 41 -93 57 -221 231 -262 352 -17 52 -46 77 -68 59 -21 -17 -45 -118 -55 -225 l-9 -100 35 -62 c32 -58 36 -84 13 -84 -5 0 -34 -9 -64 -20 -70 -27 -136 -89 -136 -130 0 -34 5 -35 159 -45 137 -10 296 -67 386 -139 l30 -25 -85 -84 c-87 -85 -162 -130 -260 -157 -49 -13 -73 -9 -148 26 -29 14 -57 22 -64 18 -20 -13 -4 -147 26 -208 29 -60 45 -72 134 -101 29 -9 65 -27 80 -39 50 -42 66 -46 148 -39 63 5 82 11 99 29 25 27 137 74 177 74 37 0 161 43 196 69 16 11 36 37 46 58 13 29 27 42 60 56 44 18 45 18 128 -7 141 -43 241 -33 394 40 95 45 142 87 222 197 18 26 37 47 41 47 3 0 36 -22 72 -48 107 -78 164 -98 339 -121 182 -25 309 -53 360 -82 41 -23 100 -111 100 -148 0 -30 -17 -61 -35 -61 -21 0 -55 -50 -55 -81 0 -46 35 -61 149 -67 86 -4 102 -2 141 18 130 66 168 122 156 227 -5 41 -2 72 10 109 16 51 15 56 -5 122 -12 42 -37 92 -61 123 -22 30 -39 56 -38 60 11 24 246 234 280 249 92 42 215 18 285 -56 28 -30 36 -34 48 -24 41 34 -14 162 -106 250 -33 31 -59 61 -59 67 0 27 -130 44 -171 23 -27 -15 -23 0 7 29 63 60 92 196 63 298 -17 63 -95 142 -164 168 -105 38 -115 44 -125 71 -6 14 -35 54 -65 89 -52 59 -55 65 -55 118 0 62 -28 161 -73 257 -37 80 -149 193 -240 244 -171 94 -424 137 -690 115z m937 -679 c57 -17 128 -89 161 -162 15 -34 37 -108 48 -166 26 -129 19 -168 -53 -315 -48 -100 -117 -204 -127 -193 -3 2 13 35 35 73 70 121 90 168 107 251 16 76 16 90 1 184 -25 158 -75 232 -189 283 -68 31 -130 30 -195 -2 -51 -25 -51 -40 0 -48 93 -15 140 -74 152 -190 8 -81 -7 -164 -46 -259 -45 -106 -105 -172 -208 -225 -44 -23 -80 -38 -80 -33 0 5 24 25 53 45 28 20 75 57 102 82 45 41 47 45 22 39 l-28 -6 20 52 c31 81 71 117 71 63 0 -35 12 -22 41 46 17 42 20 57 11 71 -6 10 -12 42 -13 70 -2 40 1 56 14 65 15 11 16 17 5 50 -8 23 -20 39 -31 41 -23 3 -67 32 -67 43 0 5 -22 17 -50 26 -27 9 -50 19 -50 22 0 18 55 74 92 92 35 18 54 21 103 17 33 -2 77 -10 99 -16z m-2534 -513 c0 -23 6 -67 14 -97 17 -65 71 -184 92 -201 21 -17 17 -26 -17 -38 -46 -16 -46 -16 -65 42 -15 43 -19 48 -23 29 -9 -34 -24 -30 -45 12 -17 34 -17 38 -2 55 13 14 15 30 10 73 -7 57 11 168 27 168 5 0 9 -19 9 -43z m2870 -239 c0 -30 1 -30 19 -14 17 16 19 15 34 -8 19 -28 68 -48 88 -35 10 6 6 9 -13 9 -16 0 -37 9 -49 21 -20 20 -20 22 -3 40 26 29 98 26 129 -6 25 -24 33 -55 15 -55 -5 0 -10 -5 -10 -10 0 -6 10 -8 24 -4 19 4 31 -4 65 -42 59 -67 57 -77 -10 -43 -54 27 -161 49 -207 42 -38 -5 -169 -67 -282 -133 -60 -36 -85 -44 -117 -41 -26 2 -12 31 20 45 41 17 92 77 74 88 -7 4 -26 -7 -47 -27 -34 -33 -59 -43 -73 -29 -12 12 6 35 23 29 22 -7 67 44 49 56 -6 4 -8 12 -5 18 9 14 53 14 61 0 5 -7 14 -4 27 7 16 15 23 16 38 6 26 -16 62 -15 86 3 17 13 16 14 -14 5 -42 -11 -61 -4 -68 26 -11 42 45 83 114 84 29 0 32 -3 32 -32z m-640 -204 c0 -36 -64 5 -73 46 -2 14 -8 34 -12 45 -3 11 14 -2 39 -28 25 -27 46 -55 46 -63z m-2048 69 c8 -10 18 -26 22 -37 6 -17 8 -18 25 -2 20 18 31 12 31 -17 0 -19 1 -19 18 -4 23 21 20 21 87 -4 73 -27 76 -52 5 -43 -27 4 -50 4 -50 1 0 -3 23 -22 50 -42 55 -41 60 -50 29 -58 -15 -4 -20 -11 -16 -21 9 -22 -8 -20 -56 8 -80 46 -169 64 -345 69 -90 3 -166 8 -169 11 -10 10 20 37 68 61 41 21 49 22 65 10 27 -20 34 -18 34 9 0 33 15 42 95 59 91 20 89 20 107 0z m1862 -34 c69 -54 97 -151 57 -200 -17 -21 -21 -22 -57 -11 -43 13 -67 32 -102 76 -27 36 -29 15 -2 -24 26 -36 107 -90 136 -90 23 0 68 45 87 87 8 18 7 26 -5 36 -22 17 -79 127 -72 139 6 10 23 -3 106 -83 51 -49 143 -103 196 -114 38 -8 43 7 7 23 -35 16 -31 32 7 32 27 0 45 -12 106 -75 76 -78 90 -116 24 -68 -36 26 -35 25 9 -23 58 -61 127 -170 144 -228 8 -25 15 -79 16 -120 3 -65 6 -76 21 -76 24 0 23 -43 -1 -89 l-18 -35 -27 42 c-29 46 -59 55 -76 23 -14 -26 -13 -38 2 -23 7 7 20 12 30 12 14 0 18 -8 18 -33 0 -49 -48 -97 -98 -97 -32 0 -35 17 -17 85 17 68 19 142 5 180 -28 73 -196 206 -353 279 -95 44 -204 124 -290 213 -49 50 -68 101 -52 140 6 16 9 14 22 -12 27 -50 53 -55 53 -10 0 28 43 65 75 65 12 0 34 -10 49 -21z m-1600 -20 c39 -31 31 -44 -11 -18 -53 31 -60 39 -36 39 11 0 32 -9 47 -21z m1154 6 c-1 -5 -17 -15 -35 -21 -18 -7 -61 -28 -94 -48 -34 -20 -64 -34 -68 -30 -3 3 14 24 38 45 55 49 168 87 159 54z m-488 -44 c0 -11 -12 -29 -27 -40 -32 -23 -14 -29 21 -6 31 20 164 65 193 65 29 0 73 -42 73 -69 0 -11 -28 -49 -63 -85 -72 -76 -93 -81 -172 -41 -27 13 -51 23 -53 21 -6 -7 18 -46 28 -46 21 0 8 -16 -30 -37 -50 -29 -56 -29 -74 6 -18 35 -64 53 -104 41 -39 -11 -80 -39 -93 -62 -9 -17 -5 -17 34 6 52 31 105 34 138 7 22 -17 22 -21 9 -46 -16 -30 -186 -175 -205 -175 -6 0 -23 9 -36 21 -25 21 -40 10 -20 -15 18 -22 -46 -69 -73 -54 -27 15 -128 4 -160 -17 -39 -26 -25 -29 38 -11 60 18 76 14 111 -24 l20 -22 -44 -38 c-24 -21 -71 -54 -104 -73 l-60 -36 -33 26 c-22 16 -34 34 -34 49 0 13 -5 24 -11 24 -11 0 -9 -17 6 -67 6 -17 1 -24 -22 -36 -15 -8 -40 -17 -55 -21 -24 -5 -28 -3 -28 15 0 21 -1 22 -20 4 -11 -10 -20 -28 -20 -41 0 -26 -33 -49 -57 -40 -13 5 -13 9 -2 22 18 22 -3 34 -59 34 -39 0 -43 -2 -37 -21 11 -35 -28 -19 -44 19 -12 26 -20 32 -44 32 -48 0 -115 40 -151 90 -66 89 -53 119 23 56 22 -19 56 -44 74 -55 39 -24 171 -46 220 -37 18 3 80 34 136 67 109 64 231 177 430 397 129 142 260 229 349 231 25 1 32 -3 32 -18z m400 -132 c0 -37 12 -60 57 -116 19 -24 30 -43 24 -43 -19 0 -72 76 -86 124 -18 59 -18 66 -5 66 6 0 10 -14 10 -31z m-90 -77 c0 -41 -75 -148 -136 -193 -86 -65 -190 -102 -307 -107 -65 -3 -102 -1 -110 7 -8 8 -5 11 12 11 20 0 22 2 11 16 -11 12 -11 18 2 30 13 13 19 14 36 3 17 -11 32 -11 78 -1 31 6 63 17 70 23 22 18 -2 39 -47 39 -54 0 -49 17 7 26 54 8 90 -6 106 -41 6 -14 15 -25 19 -25 12 0 -1 32 -23 56 -23 26 -9 40 18 19 10 -8 27 -15 37 -15 15 0 15 2 -3 20 -24 24 -25 33 -4 51 15 12 18 11 27 -3 10 -15 13 -15 34 -1 13 9 33 34 44 55 15 30 25 39 42 36 15 -2 21 -9 19 -20 -5 -30 13 -20 31 18 19 39 37 37 37 -4z m1294 -193 c18 -39 26 -72 24 -97 -4 -51 -19 -43 -35 20 -8 29 -25 72 -39 96 -30 50 -26 86 5 58 10 -9 31 -44 45 -77z"
		id="path4" />
		<path
		fill="currentColor"
		d="M4335 2970 c-3 -5 -15 -10 -25 -10 -20 0 -36 -17 -26 -27 9 -9 76 24 76 37 0 13 -17 13 -25 0z"
		id="path6" />
		<path
		fill="currentColor"
		d="M4500 2960 c20 -13 83 -13 75 0 -3 6 -25 10 -48 10 -31 0 -38 -3 -27 -10z"
		id="path8" />
		<path
		fill="currentColor"
		d="M1583 2799 c-55 -16 -49 -29 14 -29 54 0 94 12 82 24 -11 12 -65 15 -96 5z"
		id="path10" />
		<path
		fill="currentColor"
		d="M1665 2730 l-30 -8 35 -1 c19 0 42 4 50 9 12 8 11 10 -5 9 -11 -1 -33 -5 -50 -9z"
		id="path12" />
		<path
		fill="currentColor"
		d="M3500 2744 c0 -26 18 -51 54 -73 40 -25 46 -26 46 -6 0 17 -72 95 -88 95 -7 0 -12 -7 -12 -16z"
		id="path14" />
		<path
		fill="currentColor"
		d="M3706 2580 c-41 -46 -44 -59 -16 -91 l20 -24 -6 38 c-9 52 15 87 59 87 78 0 207 -100 207 -161 0 -34 -16 -47 -65 -51 -38 -4 -39 -4 -15 -15 14 -6 40 -14 58 -18 28 -6 32 -4 32 14 0 11 5 23 10 26 6 3 10 21 10 40 0 66 -145 195 -221 195 -30 0 -43 -7 -73 -40z"
		id="path16" />
		<path
		fill="currentColor"
		d="M3780 2536 c0 -29 53 -75 98 -85 23 -5 42 -6 42 -2 0 26 -66 80 -117 96 -17 5 -23 2 -23 -9z"
		id="path18" />
		<path
		fill="currentColor"
		d="M4022 2360 c-26 -25 -27 -32 -7 -70 18 -35 29 -40 20 -9 -10 32 3 69 24 69 27 0 81 -48 97 -87 16 -36 18 -111 5 -132 -6 -9 -18 -12 -36 -7 -23 6 -26 4 -21 -9 3 -9 6 -19 6 -21 0 -2 14 -4 30 -4 38 0 50 27 50 109 0 48 -5 65 -29 98 -34 48 -77 83 -100 83 -10 0 -27 -9 -39 -20z"
		id="path20" />
		<path
		fill="currentColor"
		d="M4080 2286 c0 -21 36 -103 49 -110 18 -11 13 31 -9 74 -22 43 -40 59 -40 36z"
		id="path22" />
		<path
		fill="currentColor"
		d="M4122 1956 c-7 -16 -8 -26 -1 -26 12 0 22 25 17 41 -2 6 -9 0 -16 -15z"
		id="path24" />
		<path
		fill="currentColor"
		d="M2747 2676 c-53 -19 -79 -45 -75 -75 7 -58 108 -27 143 43 8 16 15 33 15 38 0 12 -39 9 -83 -6z"
		id="path26" />
		<path
		fill="currentColor"
		d="M2380 2428 c-32 -22 -78 -93 -67 -104 19 -19 156 94 142 117 -10 15 -40 10 -75 -13z"
		id="path28" />
		<path
		fill="currentColor"
		d="M2060 2139 c-52 -21 -114 -99 -77 -99 39 1 147 74 147 100 0 12 -37 12 -70 -1z"
		id="path30" />
		<path
		fill="currentColor"
		d="M1715 2010 c-4 -6 3 -10 14 -10 25 0 27 6 6 13 -8 4 -17 2 -20 -3z"
		id="path32" />
		<path
		fill="currentColor"
		d="M2910 3453 c-213 -8 -542 -52 -651 -89 -110 -36 -110 -36 -99 -113 5 -35 14 -69 19 -74 8 -8 71 1 214 28 111 21 218 39 237 40 19 1 62 11 96 23 50 17 266 70 586 143 25 6 55 17 65 24 16 13 13 14 -32 15 -155 4 -379 5 -435 3z m-14 -50 c-4 -5 -46 -18 -94 -29 l-87 -22 53 -1 c59 -1 68 -14 20 -30 -145 -47 -468 -115 -468 -98 0 3 30 15 66 27 36 12 64 23 62 25 -2 2 -30 -1 -62 -6 -67 -11 -93 -7 -56 9 77 31 77 32 15 27 l-60 -5 55 19 c45 16 50 19 26 20 -23 1 -26 4 -17 15 12 14 91 34 188 46 78 10 368 12 359 3z"
		id="path34" />
	</g>
	<g
	id="g2"
	transform="translate(13.558338,367.11562)">
		<path
		fill="currentColor"
		d="M 110.49299,178.06019 96.685996,167.64152 q -3.017397,-6.85732 -4.216073,-20.09371 -0.190768,-2.08182 -0.910161,-20.50588 -0.286519,-7.7915 -3.340745,-11.68173 l -14.823316,19.6441 q -2.668197,3.53594 -3.335155,5.58712 -0.666957,2.05118 -0.651786,6.46686 L 52.234205,134.09847 q 5.064747,-0.75858 6.545016,-2.01987 l 4.345422,-4.82477 34.432445,-45.63044 q 3.176422,-4.20945 3.036262,-9.159883 -0.20801,-5.794385 -1.218274,-6.556727 l 1.920664,-2.778752 1.82461,1.20067 q 8.0143,5.254783 9.13306,12.176845 l -0.26133,2.797683 q 13.50118,-0.382271 23.2671,6.987035 6.73512,5.08228 8.8249,11.768126 2.41069,7.544603 -2.50218,14.055223 -11.18102,14.81726 -40.80377,7.61471 3.56282,7.88548 4.20333,19.64366 0.14223,4.24731 0.72558,16.3147 0.82922,14.54312 4.78595,22.37351 z m 18.4003,-74.11197 q 5.80227,-7.689257 -2.89726,-14.253868 -3.92882,-2.964663 -8.39754,-4.046527 -5.87393,-1.43755 -8.33036,1.817757 L 93.089535,108.90571 q 24.707445,9.74753 35.803755,-4.95749 z"
		id="path845" />
		<path
		fill="currentColor"
		d="m 222.89111,172.32442 q -7.02112,20.41217 -25.74247,27.28231 -17.00278,6.19723 -35.81921,-0.275 -19.08239,-6.56371 -28.40931,-21.81749 -10.48813,-17.06595 -3.51276,-37.34514 6.99824,-20.34568 25.7196,-27.21582 16.93629,-6.2201 35.81921,0.275 19.0159,6.54084 28.40931,21.81749 10.48813,17.06595 3.53563,37.27865 z m -14.22868,-4.89419 q 6.01483,-17.48665 -0.68176,-31.09212 -5.97581,-12.24222 -19.20715,-16.79336 -15.69144,-5.39734 -28.10647,2.37792 -11.51932,7.11674 -17.03101,23.14062 -5.46595,15.89091 -0.71829,28.6773 5.04874,13.85658 20.6072,19.20818 15.55846,5.3516 28.06285,-2.46728 11.60868,-7.16036 17.07463,-23.05126 z"
		id="path847" />
		<path
		fill="currentColor"
		d="m 290.24406,188.91987 q -1.76383,18.47851 -23.84704,24.14013 -9.62994,2.47113 -22.16911,2.12181 l 0.11994,0.22334 -3.35972,-0.32069 q -1.04992,-0.10022 -3.22643,-0.23734 -2.1765,-0.13712 -3.22642,-0.23734 l -3.21974,-0.30734 -2.43644,-0.37383 -5.94952,-0.5679 q 3.91714,-3.29896 4.51749,-5.14872 l 1.17463,-6.38603 5.4318,-56.90541 q 0.50109,-5.24958 -2.2112,-9.39324 -3.21211,-4.82706 -4.47201,-4.94732 l 0.18071,-3.37309 2.18319,0.0671 q 9.57936,0.2787 14.15795,5.58935 l 1.24272,2.52011 q 11.3009,-7.39714 23.47992,-6.23462 8.39932,0.80175 13.68135,5.4026 6.00521,5.1643 5.23019,13.28364 -0.90196,9.44924 -8.99298,16.51709 13.20731,8.88894 11.71072,24.56768 z m -17.80343,-41.39463 q 0.91532,-9.58923 -9.9338,-10.62481 -4.61963,-0.44096 -8.83297,0.7814 -5.52001,1.59206 -6.43406,5.24831 l -0.0169,0.91661 -1.08903,11.40908 q 5.73286,0.61785 17.59499,2.88024 1.04324,0.17022 4.26616,1.18418 3.77746,-4.79558 4.44558,-11.79501 z m 2.79792,40.24483 q 1.10239,-11.54906 -8.6087,-19.32733 -7.9415,-6.33798 -17.32074,-7.23326 -3.63971,-0.34742 -3.76983,0.27585 l -4.38286,45.91629 q -0.1069,1.11991 0.14285,2.20323 0.2733,0.0967 0.62995,0.0601 1.70659,-0.11963 2.8965,-0.006 9.79921,0.93536 18.20298,-3.48925 11.00723,-5.80063 12.20985,-18.39962 z"
		id="path849" />
		<path
		fill="currentColor"
		d="m 356.8164,213.01003 q -1.10029,2.40313 -3.06422,2.54079 l -54.56924,3.82493 -2.76727,-2.27301 5.5955,-3.63452 q 1.75614,-2.09667 2.16354,-3.32347 -0.0639,-0.91183 0.0138,-2.82037 l 0.0603,-0.14519 -4.43456,-63.26665 q -0.21141,-3.01604 -3.13862,-5.55978 l -6.04781,-2.8184 2.42312,-2.63682 54.56924,-3.82493 q 1.96393,-0.13766 3.3887,2.08848 -2.86265,5.41654 -2.72991,7.31033 l 0.96558,4.72531 -4.30183,-1.03769 q -6.86721,-4.45261 -16.95006,-5.50799 l -3.52668,-0.0348 -3.58699,0.11046 -5.81183,0.54834 -2.78595,0.47721 1.91247,27.28462 35.98203,-2.52209 -4.57585,9.13136 -6.61221,7.23003 q -6.98749,-8.17988 -20.14307,-7.82164 -0.28057,0.0197 -1.61815,0.0429 -1.40772,0.0282 -2.02424,0.28286 -0.62143,0.18453 -0.52179,0.60045 l 2.86755,39.90498 2.82528,0.0839 5.83149,-0.26778 3.56733,-0.39102 3.48735,-0.52638 q 9.83703,-2.45163 16.01594,-7.81868 l 4.11502,-1.62765 -0.29695,4.81379 q 0.13274,1.89379 3.72301,6.85803 z"
		id="path851" />
		<path
		fill="currentColor"
		d="m 454.03131,189.66183 -16.54523,5.04356 q -7.32102,-1.59066 -18.73297,-8.40285 -1.79619,-1.06961 -17.12281,-11.31941 -6.47119,-4.34895 -11.4137,-4.16542 l 7.17579,23.53995 q 1.29164,4.2372 2.55877,5.98263 1.26714,1.74543 4.84802,4.32919 l -20.58065,6.27369 q 2.36399,-4.54298 2.21397,-6.48193 l -1.34815,-6.35166 -16.66833,-54.67995 q -1.53767,-5.04428 -5.6246,-7.84131 -4.80951,-3.23833 -6.02014,-2.86929 l -1.11862,-3.18734 2.04396,-0.77008 q 8.96244,-3.39362 15.2196,-0.22905 l 2.10947,1.85619 q 7.62828,-11.14618 19.331,-14.71357 8.07084,-2.46027 14.70779,-0.22005 7.52029,2.4855 9.89855,10.28732 5.4126,17.75585 -17.8293,37.48395 8.47339,1.75392 18.36143,8.14857 3.51938,2.382 13.62394,9.00467 12.2518,7.87931 20.91221,9.28219 z m -49.13324,-58.45579 q -2.80881,-9.21421 -13.23364,-6.03636 -4.708,1.43516 -8.21036,4.41397 -4.61622,3.90642 -3.42709,7.80733 l 7.83186,25.69217 q 22.41082,-14.25577 17.03923,-31.87711 z"
		id="path853" />
		<path
		fill="currentColor"
		d="m 493.44202,62.059371 -2.61025,7.10464 q -1.4165,3.885774 0.0967,9.165231 l 2.38433,6.044864 q -8.46128,-2.099675 -11.67653,-1.928205 -4.69614,0.25506 -10.76879,4.453727 l -7.57636,5.238338 38.10791,55.116554 q 2.79911,4.04843 4.12367,5.09872 1.54233,1.24164 6.12642,2.43177 l -17.35044,11.9962 q 0.26975,-4.80255 -0.55146,-7.22664 l -2.93195,-4.98237 -32.30975,-46.73051 q -3.71882,-5.37864 -8.40141,-5.47488 -0.60478,-0.009 -2.08137,0.32781 l -9.42707,6.51793 q -7.22935,4.99841 -10.07387,9.78605 l -6.08734,13.69735 -0.12403,-15.38654 q -0.0359,-6.72826 -6.13613,-15.6748 6.97971,3.295 12.58336,2.49797 4.94103,-0.76631 11.7077,-5.44483 z"
		id="path855" />
	</g>
</svg>
