<?xml version="1.0" encoding="UTF-8" standalone="no"?>
<!-- Created with Inkscape (http://www.inkscape.org/) -->

<svg
   version="1.1"
   id="svg1"
   width="410.52393"
   height="392.06036"
   viewBox="0 0 410.52392 392.06037"
   sodipodi:docname="stugamathe.svg"
   inkscape:version="1.3.2 (091e20ef0f, 2023-11-25, custom)"
   xmlns:inkscape="http://www.inkscape.org/namespaces/inkscape"
   xmlns:sodipodi="http://sodipodi.sourceforge.net/DTD/sodipodi-0.dtd"
   xmlns="http://www.w3.org/2000/svg"
   xmlns:svg="http://www.w3.org/2000/svg">
  <defs
     id="defs1" />
  <sodipodi:namedview
     id="namedview1"
     pagecolor="#ffffff"
     bordercolor="#666666"
     borderopacity="1.0"
     inkscape:showpageshadow="2"
     inkscape:pageopacity="0.0"
     inkscape:pagecheckerboard="0"
     inkscape:deskcolor="#d1d1d1"
     inkscape:zoom="1.81866"
     inkscape:cx="221.3168"
     inkscape:cy="290.04872"
     inkscape:window-width="1920"
     inkscape:window-height="1052"
     inkscape:window-x="0"
     inkscape:window-y="1080"
     inkscape:window-maximized="1"
     inkscape:current-layer="g1">
    <inkscape:page
       x="0"
       y="0"
       inkscape:label="1"
       id="page1"
       width="410.52393"
       height="392.06036"
       margin="0"
       bleed="0" />
  </sodipodi:namedview>
  <g
     id="g1"
     inkscape:groupmode="layer"
     inkscape:label="1"
     transform="translate(-37.689381,-19.813675)">
    <path
       id="path1"
       d="m 183.559,24.288 c -0.547,0.223 -1,1.157 -1,2.074 0,0.918 -0.614,2.352 -1.364,3.18 -1.113,1.231 -1.187,1.789 -0.398,3.051 0.527,0.852 0.965,2.57 0.965,3.82 0,1.84 0.73,2.75 3.797,4.735 2.089,1.347 5.879,3.437 8.418,4.636 4.445,2.098 7.816,5.446 7.753,7.7 -0.015,0.593 -0.527,1.976 -1.136,3.078 l -1.114,2 -0.769,-2 c -1.289,-3.364 -3.785,-5.02 -7.535,-5.008 -1.879,0.004 -4.75,-0.668 -6.383,-1.492 -4.324,-2.188 -7.316,-1.95 -9.598,0.761 -1.414,1.684 -2.675,2.293 -4.898,2.379 -1.649,0.059 -4.215,0.688 -5.703,1.395 -2.512,1.191 -2.86,1.183 -4.836,-0.11 -1.871,-1.226 -2.598,-1.277 -6.004,-0.402 -2.934,0.75 -4.293,0.77 -5.582,0.082 -1.926,-1.031 -5.887,-0.437 -8.613,1.289 -1.575,1 -2.043,0.981 -3.754,-0.14 -1.078,-0.704 -2.965,-1.164 -4.2,-1.02 l -2.246,0.266 -0.222,-5.602 -0.227,-5.601 3.817,-1.555 c 8.886,-3.633 13.429,-13.711 6.91,-15.348 -2.774,-0.695 -15.684,0.137 -20.676,1.336 -6.402,1.539 -15.832,4.797 -18,6.227 -1.266,0.836 -3.211,1.226 -5.301,1.066 -4.332,-0.332 -14.32,2.66 -15.762,4.719 -0.816,1.168 -0.941,2.504 -0.46,4.976 0.785,4.059 0.91,10.364 0.238,12.114 -1,2.601 -4.125,1.437 -6.789,-2.535 C 64.688,42.144 53.633,35.612 45.66,38.277 c -5.488,1.832 -11.031,8.847 -14.058,17.796 -2.27,6.704 -3.637,22.122 -3.278,36.887 0.196,7.969 0.442,9.578 1.438,9.465 4.086,-0.461 19.484,-4.234 20.203,-4.949 0.535,-0.535 0.894,-5.379 0.941,-12.692 0.063,-10.363 0.289,-12.293 1.817,-15.625 1.359,-2.953 2.16,-3.793 3.593,-3.769 5.692,0.086 8.372,5.125 11.5,21.605 1.954,10.305 6.426,15.766 13.579,16.571 12.066,1.359 19.98,-16.543 19.894,-45.004 -0.016,-4.84 -0.269,-10.692 -0.566,-13 -0.602,-4.707 0.066,-5.219 3.437,-2.629 l 2,1.535 v 23.844 c 0,13.117 -0.164,33.75 -0.363,45.847 -0.469,28.219 1.074,42.789 4.973,47 2.734,2.95 8.324,2.524 12.918,-0.984 3.082,-2.355 3.957,-2.668 5.66,-2.02 2.211,0.84 5.468,-0.054 7.761,-2.128 1.215,-1.102 1.539,-1.098 3.18,0.054 2.391,1.676 3.469,1.617 7.668,-0.414 l 3.5,-1.695 1.801,1.695 c 2.265,2.125 5.289,2.164 7.922,0.094 2.386,-1.879 3.781,-2.051 3.781,-0.465 0,0.621 0.219,1.703 0.484,2.402 0.364,0.938 -0.152,1.395 -1.98,1.762 -4.012,0.801 -9.141,6.981 -11.176,13.465 -3.223,10.258 -2.18,16.816 4.449,28.062 4.129,6.997 6.133,14.286 6.18,22.45 0.043,7.285 0.91,9.922 3.258,9.922 1.281,0 9.246,-5.254 10.558,-6.965 0.856,-1.114 1.078,-1 1.817,0.941 1.246,3.274 3.758,6.199 7.07,8.223 7.301,4.461 17.121,0.137 20.887,-9.199 1.09,-2.707 1.972,-3.223 2.91,-1.704 0.723,1.172 7.227,0.297 9.66,-1.3 2.496,-1.633 3.035,-1.52 4.328,0.894 1.555,2.903 4.043,3.672 7.723,2.395 3.012,-1.043 3.031,-1.078 2.777,-4.965 -0.426,-6.567 2.973,-15.684 8.321,-22.32 2.484,-3.079 5.585,-7.938 6.898,-10.797 2.141,-4.672 2.332,-5.727 1.871,-10.371 -0.324,-3.235 -1.426,-7.079 -2.953,-10.282 l -2.441,-5.109 2.636,-2.719 c 1.45,-1.496 3.395,-2.722 4.321,-2.722 0.925,0 2.023,-0.336 2.441,-0.747 1.223,-1.199 3.129,0.825 4.195,4.454 1.094,3.722 1.84,4.484 5.625,5.757 3.407,1.149 10.215,-0.175 12.715,-2.468 4.223,-3.875 5.445,-17.399 4.735,-52.391 -0.973,-47.988 -1.344,-62.164 -1.668,-64.203 -0.274,-1.699 0.285,-2.34 3.703,-4.25 2.215,-1.234 4.246,-2.027 4.511,-1.758 0.528,0.527 0.629,1.809 0.821,10.551 0.144,6.707 1.187,8.25 5.582,8.269 4.371,0.016 1.609,1.422 -4.078,2.071 -2.539,0.289 -4.809,0.84 -5.043,1.218 -0.547,0.883 1.3,16.887 2.043,17.727 0.308,0.348 1.425,0.777 2.488,0.953 12.48,2.102 18.73,3.004 27.531,3.985 5.719,0.64 12.11,1.406 14.199,1.707 l 3.801,0.543 V 71.679 l -2.906,-1.215 -2.902,-1.215 0.539,-5.277 c 0.644,-6.297 0.804,-6.613 3.316,-6.613 h 1.953 v -9.954 c 0,-5.472 -0.269,-10.101 -0.601,-10.285 -0.75,-0.418 -11.039,0.516 -24.598,2.231 -15.149,1.914 -20.457,1.047 -17.695,-2.903 1.695,-2.418 1.632,-3.55 -0.305,-5.488 -1.281,-1.277 -2.668,-1.601 -6.91,-1.601 -8.403,0 -28.68,3.824 -32.074,6.046 -2.856,1.875 -2.368,4.79 1.183,7.028 2.863,1.808 2.996,2.082 2.899,6.012 -0.133,5.539 -0.118,5.472 -1.621,6.05 -0.758,0.293 -2.047,-0.101 -3,-0.914 -4.114,-3.488 -9.872,-4.562 -13.231,-2.465 -1.16,0.723 -2.016,0.735 -3.535,0.039 -3.863,-1.761 -10.113,1.422 -10.113,5.153 0,5.676 -7.973,-0.168 -9.625,-7.055 -1,-4.172 -3.696,-7.086 -8.352,-9.031 -2.391,-1 -6.023,-4.985 -6.023,-6.606 0,-0.386 -0.539,-1.476 -1.204,-2.421 -1.035,-1.477 -1.574,-1.614 -3.796,-0.977 -2.192,0.629 -2.782,0.488 -3.829,-0.898 -0.765,-1.012 -1.73,-1.45 -2.535,-1.141 -0.875,0.336 -1.894,-0.305 -3.117,-1.961 -1.789,-2.414 -2.527,-2.731 -4.519,-1.93 z m -45.95,6.563 c 1.829,1.16 -2.406,5.136 -8.117,7.621 -2.879,1.254 -5.379,2.687 -5.558,3.183 -0.18,0.497 -0.079,3.606 0.23,6.907 0.594,6.418 0.277,40.679 -0.422,46 -0.234,1.758 -0.531,15.797 -0.664,31.199 -0.133,15.398 -0.508,28.809 -0.832,29.797 -0.703,2.137 -3.695,3.082 -5.949,1.875 -4.926,-2.637 -6.137,-24.946 -4.074,-75.02 0.789,-19.183 0.738,-22.902 -0.442,-31.597 -0.734,-5.422 -1.582,-10.09 -1.879,-10.379 -0.297,-0.285 -1.257,-0.653 -2.132,-0.809 -2.497,-0.449 -2.403,-2.726 0.152,-3.672 11.16,-4.129 26.945,-6.844 29.687,-5.105 z m 150.551,3.625 c 0,0.617 -1.191,2.164 -2.644,3.437 -2.383,2.094 -4.391,3.137 -8.825,4.574 -1.332,0.43 -1.41,1.051 -0.839,6.672 0.953,9.43 0.605,92.102 -0.426,101.262 -0.488,4.32 -1.41,8.867 -2.047,10.106 -1.567,3.027 -4.863,3.812 -7.559,1.8 -2.859,-2.132 -3.05,-3.988 -0.484,-4.632 2.039,-0.512 4.426,-3.883 4.426,-6.258 0,-2.489 -1.852,-5.098 -4.512,-6.367 l -2.754,-1.313 0.234,-6.988 0.231,-6.985 3.133,-0.507 c 4.203,-0.68 5.515,-2.575 4.922,-7.086 -0.578,-4.383 -0.899,-4.715 -5.262,-5.461 l -3.492,-0.598 0.074,-4.586 c 0.039,-2.523 0.109,-6.746 0.148,-9.387 l 0.075,-4.8 h 3.238 c 2.465,0 3.703,-0.5 5.176,-2.086 5.293,-5.715 2.3,-11.512 -5.942,-11.512 h -3.207 l 0.059,-9.176 c 0.051,-8.215 0.215,-9.223 1.547,-9.648 2.246,-0.711 4.73,-4.309 4.73,-6.852 0,-1.621 -0.789,-2.887 -2.801,-4.492 -2.671,-2.129 -2.8,-2.469 -2.8,-7.309 0,-4.402 -0.211,-5.129 -1.598,-5.492 -2.711,-0.711 -1.91,-3.078 1.398,-4.133 9.34,-2.972 25.801,-4.367 25.801,-2.183 z m -84.797,5.965 c 1.258,1.257 3.5,2.859 4.985,3.562 3.343,1.59 5.129,3.52 5.82,6.293 0.441,1.77 0.144,2.383 -1.738,3.586 -1.246,0.797 -2.711,2.047 -3.25,2.773 -1.094,1.469 -4.668,2.618 -5.864,1.875 -0.461,-0.281 -0.285,-1.171 0.434,-2.199 2.105,-3.008 1.461,-5.195 -2.789,-9.449 -2.199,-2.199 -4,-4.148 -4,-4.332 0,-0.352 3.414,-4.16 3.859,-4.305 0.145,-0.047 1.289,0.942 2.543,2.196 z M 95.641,45.562 c 2.097,17.441 -2.313,47.261 -7.567,51.183 -1.832,1.367 -2.469,1.438 -5.59,0.602 C 77.16,95.921 72.758,90.952 71.469,84.913 69.922,77.671 67.316,70.093 65.238,66.784 60.34,58.987 50.148,59.702 46.953,68.07 c -1.156,3.027 -1.312,5.238 -0.918,13.066 0.262,5.184 0.578,10.324 0.699,11.426 0.219,1.925 0.004,2.023 -6.007,2.726 -4.211,0.489 -6.504,0.453 -7.071,-0.109 -0.519,-0.524 -0.808,-5.824 -0.761,-14.039 0.058,-11.106 0.375,-14.387 1.972,-20.692 3.832,-15.07 8.856,-18.871 20.426,-15.433 3.336,0.988 5.293,2.34 9.34,6.445 2.812,2.86 6.187,6.75 7.492,8.649 2.633,3.828 5.754,5.031 8.484,3.273 2.407,-1.551 3.743,-6.992 3.426,-13.965 l -0.273,-6.058 4.797,-0.911 c 2.64,-0.503 5.203,-0.953 5.691,-1 0.492,-0.05 1.109,1.778 1.391,4.114 z m 236.355,2.797 -0.234,5.402 -5,0.238 c -4.282,0.203 -5,0.453 -5,1.746 0,0.828 0.672,1.719 1.492,1.981 4.566,1.449 5.027,6.73 0.801,9.136 -2.942,1.672 -2.989,3.903 -0.094,4.586 1.211,0.286 3.551,1.258 5.199,2.161 2.879,1.578 3,1.816 3,5.851 0,2.313 -0.308,4.399 -0.691,4.633 -0.692,0.426 -6.629,-0.156 -24.508,-2.398 -14.18,-1.782 -12.789,-0.989 -14.223,-8.122 -0.687,-3.418 -0.996,-6.476 -0.687,-6.8 0.308,-0.325 4.511,-1.051 9.336,-1.618 8.508,-1.003 8.773,-1.093 8.773,-3.003 0,-2.594 -2.836,-3.922 -9.992,-4.688 -3.059,-0.324 -5.703,-0.754 -5.875,-0.949 -0.172,-0.195 -0.527,-2.785 -0.793,-5.754 l -0.48,-5.402 6.968,-0.063 c 3.836,-0.039 11.832,-0.527 17.774,-1.094 5.937,-0.562 11.625,-1.074 12.636,-1.132 1.766,-0.106 1.825,0.097 1.598,5.289 z m -82.414,6.246 c 2.664,1.867 2.48,6.886 -0.328,9.097 -4.309,3.387 -15.617,1.137 -17.742,-3.531 -2.129,-4.672 1.445,-7.496 5.601,-4.426 2.141,1.586 2.5,1.637 3.723,0.528 1.379,-1.246 4.648,-2.77 6.144,-2.864 0.454,-0.027 1.625,0.512 2.602,1.196 z m -54.551,1.55 c 1.821,2.778 0.934,5.368 -2.699,7.887 -4.152,2.875 -9.004,2.895 -12.742,0.043 -2.227,-1.699 -2.676,-2.527 -2.477,-4.574 0.172,-1.734 0.907,-2.871 2.395,-3.699 1.933,-1.082 2.433,-1.063 5.09,0.203 2.527,1.207 3.07,1.242 3.851,0.265 0.934,-1.168 2.559,-1.945 4.293,-2.058 0.539,-0.035 1.57,0.836 2.289,1.933 z m 68.301,0.77 c 1.883,2.27 -1.227,3.844 -3.973,2.008 -1.039,-0.696 -0.992,-0.961 0.356,-1.988 1.933,-1.477 2.406,-1.477 3.617,-0.02 z m -103.703,1.367 c 1.273,2.024 -0.758,4.004 -3.801,3.707 -3.215,-0.312 -3.976,-3.445 -1.125,-4.601 2.449,-0.996 3.902,-0.731 4.926,0.894 z m 12.805,-0.57 c 0.246,0.637 -0.164,1.91 -0.914,2.824 -1.77,2.168 -6.559,1.5 -6.559,-0.91 0,-2.566 6.578,-4.25 7.473,-1.914 z m 46.418,-0.141 c 1.578,1.153 1.031,3.778 -0.79,3.778 -0.617,0 -1.808,0.429 -2.648,0.953 -1.195,0.746 -1.797,0.726 -2.789,-0.098 -1.613,-1.336 -1.598,-2.359 0.059,-4.191 1.543,-1.703 4.179,-1.895 6.168,-0.442 z m -83.192,1.563 c 1.149,1.824 -0.621,3.625 -3.898,3.965 -1.946,0.203 -2.45,-0.075 -2.649,-1.473 -0.152,-1.082 0.442,-2.203 1.602,-3.016 2.187,-1.539 3.75,-1.371 4.945,0.524 z m 13.852,-0.477 c 0.742,1.934 -0.739,3.735 -3.688,4.5 -3.976,1.031 -6.566,-2.187 -3.902,-4.847 1.473,-1.477 6.988,-1.223 7.59,0.347 z m 12.375,28.293 c -2.844,-2.715 -6.032,-3.109 -9.723,-1.203 -1.715,0.887 -2.852,0.992 -4.398,0.406 -1.379,-0.523 -3.293,-0.523 -5.664,0.012 -3.149,0.703 -3.864,0.594 -5.899,-0.91 -1.805,-1.336 -2.933,-1.59 -5.176,-1.172 l -2.867,0.539 v -3.117 c 0,-1.715 0.223,-5.266 0.5,-7.887 l 0.496,-4.769 3.903,-1.789 c 2.144,-0.985 3.902,-2.133 3.902,-2.551 0,-1.254 1.496,-0.86 3.199,0.84 1.902,1.906 4.613,2.035 8.496,0.41 2.043,-0.852 3.278,-0.957 4.36,-0.379 1.593,0.851 5.246,0.301 6.964,-1.055 1.7,-1.34 1.731,-0.367 0.133,4.363 -0.84,2.489 -1.621,6.625 -1.738,9.196 -0.195,4.199 -0.047,4.691 1.449,4.902 1.184,0.172 2.512,-0.851 4.598,-3.531 3.32,-4.258 3.398,-4.528 1.738,-5.906 -0.66,-0.547 -1.199,-1.875 -1.199,-2.95 0,-1.074 -0.399,-2.699 -0.887,-3.605 -0.828,-1.555 -0.719,-1.625 1.801,-1.156 1.73,0.324 3.52,0.066 5.027,-0.719 2.297,-1.195 2.41,-1.156 5.602,1.926 1.789,1.73 5.141,2.48 6.57,2.777 5.906,1.012 7.086,0.035 10.36,-2.273 0.976,-1.036 2.101,-1.762 3.476,-3.477 2.422,-3.012 2,-3.238 6.504,-3.113 3.727,0.105 4.906,0.875 5.207,2.019 3.277,4.653 7.215,5.133 12.586,0.399 3.231,-2.867 5.504,-2.961 7.523,-0.309 0.54,0.703 0.989,1.524 1.004,1.817 0.016,0.292 1.282,1.312 2.821,2.261 2,1.239 4.441,1.813 8.597,2.028 5.133,0.265 5.836,0.492 6.067,1.953 0.14,0.906 -0.489,2.851 -1.399,4.324 -1.394,2.258 -1.515,3.07 -0.777,5.187 0.984,2.829 1.645,3.082 3.184,1.231 0.703,-0.844 1.027,-3.305 0.953,-7.207 -0.11,-5.723 -0.016,-6.043 2.832,-9.469 1.621,-1.945 3.207,-3.562 3.519,-3.594 1.485,-0.129 2.157,3.723 2.278,13.078 l 0.129,10.188 -4.711,0.301 c -2.59,0.164 -5.184,0.004 -5.77,-0.356 -1.855,-1.148 -6.769,0.535 -8.883,3.047 -2.48,2.942 -7.215,3.809 -7.215,1.32 0,-3.203 -7.476,-3.839 -10.64,-0.906 -1.485,1.379 -3.164,1.985 -5.918,2.133 -7.492,0.406 -9.024,0.094 -9.824,-2.012 -1.789,-4.703 -7.973,-5.586 -11.118,-1.59 -1.41,1.793 -2.191,1.965 -10.808,2.352 -11.301,0.191 -16.969,0.484 -21.164,-2.004 z m 105.609,1.324 c 2.477,2.243 1.852,3.606 -1.531,3.325 -2.176,-0.18 -3.07,-0.657 -3.277,-1.754 -0.516,-2.715 2.468,-3.692 4.808,-1.571 z M 136,88.722 c 1.418,1.418 1.234,1.84 -1.832,4.176 -2.273,1.734 -3.086,1.968 -4.398,1.265 -2.125,-1.136 -2.047,-3.605 0.168,-5.156 2.124,-1.488 4.738,-1.613 6.062,-0.285 z m 23.938,-0.063 c 1.289,1.286 0.39,2.973 -2.333,4.379 -1.839,0.953 -2.613,1.012 -3.503,0.274 -1.395,-1.157 -1.477,-3.297 -0.18,-4.59 1.207,-1.211 4.832,-1.25 6.016,-0.063 z m 41.355,-0.414 c 2.496,0.957 1.426,3.282 -1.895,4.121 -3.277,0.832 -4.039,0.629 -4.039,-1.082 0,-2.461 3.188,-4.093 5.934,-3.039 z m 46.066,0.305 c 1.922,1.223 -0.086,3.57 -3.281,3.836 -1.945,0.16 -2.39,0.008 -1.57,-0.539 0.918,-0.61 0.953,-1.004 0.168,-1.949 -0.781,-0.938 -0.77,-1.27 0.051,-1.598 1.656,-0.664 3.343,-0.574 4.632,0.25 z m 9.137,-0.305 c 1.832,0.703 1.617,3.516 -0.269,3.516 -0.844,0 -2.106,0.219 -2.801,0.484 -0.949,0.364 -1.266,-0.019 -1.266,-1.531 0,-2.477 1.735,-3.465 4.336,-2.469 z M 148.52,90.097 c 0.824,1.332 -2.024,3.262 -4.817,3.262 -2.172,0 -2.742,-0.321 -2.742,-1.532 0,-0.843 0.449,-1.715 1,-1.937 1.73,-0.699 6.086,-0.563 6.559,0.207 z m 80.085,0.414 c 1.391,1.027 1.426,1.281 0.344,2.383 -0.664,0.676 -2.375,1.465 -3.801,1.75 -2.382,0.476 -2.589,0.351 -2.589,-1.543 0,-3.258 3.265,-4.653 6.046,-2.59 z m -36.871,1.449 c 2.961,5.406 4.602,5.879 10.598,3.047 3.848,-1.816 5.633,-2.172 10.57,-2.094 3.266,0.055 6.063,0.446 6.211,0.871 0.969,2.766 2.496,4.801 3.801,5.055 2.82,0.543 7.699,-1.66 8.922,-4.023 1.637,-3.168 4.629,-3.008 7.961,0.418 2.383,2.457 2.562,2.992 2.183,6.601 -0.308,2.953 -1.031,4.582 -2.918,6.59 l -2.503,2.664 3.129,2.641 c 3.089,2.613 3.105,2.648 1.199,3.187 -1.059,0.297 -2.711,0.926 -3.668,1.399 -1.407,0.687 -2.16,0.523 -3.91,-0.852 -2.641,-2.078 -7.571,-2.254 -10.743,-0.379 -2.132,1.258 -2.343,1.238 -4.429,-0.402 -2.731,-2.149 -5.61,-2.188 -8.996,-0.121 -2.246,1.371 -3.129,1.484 -6.231,0.785 -2.558,-0.57 -4.101,-0.547 -5.277,0.082 -1.301,0.695 -2.352,0.578 -4.828,-0.539 -2.989,-1.348 -3.375,-1.352 -6.774,-0.094 -3.222,1.195 -3.847,1.211 -5.898,0.149 -4.297,-2.219 -7.899,-1.196 -9.985,2.839 l -1.23,2.379 -20.578,-0.203 -20.578,-0.199 -0.11,-24.078 4.282,0.039 c 2.918,0.027 4.511,-0.332 5.004,-1.125 0.609,-0.985 1.023,-1 2.707,-0.098 2.132,1.141 6.765,0.668 9.371,-0.957 1.16,-0.726 1.785,-0.613 3.07,0.551 1.152,1.043 2.258,1.312 3.848,0.941 1.222,-0.289 2.754,-0.601 3.398,-0.699 1.711,-0.258 2.57,6.356 1.977,15.227 -0.344,5.121 -0.231,7.398 0.375,7.398 0.484,0 0.875,-0.687 0.875,-1.523 0,-0.961 1.332,-2.305 3.601,-3.633 1.981,-1.16 3.602,-2.633 3.602,-3.27 0,-0.632 1.437,-2.062 3.199,-3.175 3.371,-2.125 4.035,-3.852 1.941,-5.024 -0.695,-0.387 -1.691,-1.574 -2.222,-2.633 -0.528,-1.058 -1.672,-2.058 -2.539,-2.218 -0.871,-0.161 -2.121,-0.754 -2.782,-1.325 -0.66,-0.57 -1.918,-1.168 -2.8,-1.328 -0.879,-0.16 -1.598,-0.828 -1.598,-1.48 1.316,-2.344 14.5,-2.246 19,-1.789 1.781,-0.309 9.562,0.008 9.773,0.398 z m 62.028,4.008 c 1.097,0 2.726,-0.246 3.613,-0.551 1.574,-0.535 1.613,-0.273 1.402,10.098 -0.113,5.855 -0.211,11.074 -0.215,11.597 0,0.692 -0.609,0.637 -2.203,-0.195 -2.839,-1.48 -5.804,-1.465 -7.957,0.043 -1.961,1.371 -4.547,0.75 -3.902,-0.937 0.242,-0.621 0.008,-2.735 -0.52,-4.696 -1.89,-7.07 2.071,-17.297 6.161,-15.91 0.89,0.305 2.519,0.551 3.621,0.551 z m -37.258,23.254 c 2.141,1.562 0.992,4.23 -2.082,4.848 -4.301,0.859 -6.254,-2.305 -2.883,-4.665 2.172,-1.523 3.09,-1.554 4.965,-0.183 z m 14.91,0.566 c 1.477,0.789 2.203,3.891 0.945,4.047 -6.566,0.817 -9.8,0.219 -9.8,-1.812 0,-0.793 4.511,-2.981 6.253,-3.032 0.579,-0.015 1.75,0.34 2.602,0.797 z m 24.871,1.008 c 0.965,1.5 -0.207,2.801 -2.996,3.324 -3.203,0.602 -4.328,0.11 -4.328,-1.886 0,-2.723 5.773,-3.86 7.324,-1.438 z m -76.59,-0.551 c 1.922,0.739 1.512,3.203 -0.843,5.055 -2.465,1.941 -2.77,1.984 -4.461,0.66 -0.891,-0.695 -1.153,-1.793 -0.864,-3.601 0.352,-2.215 0.746,-2.598 2.657,-2.598 1.234,0 2.816,0.219 3.511,0.484 z m 13.321,0.782 c 2.226,2.683 -3.282,6.128 -6.539,4.093 -1.915,-1.191 -1.989,-4.32 -0.118,-4.808 2.996,-0.782 5.649,-0.496 6.657,0.715 z m 11.574,0.382 c 0.781,1.266 -2.008,3.95 -4.102,3.95 -1.863,0 -3.293,-2.442 -2.332,-3.993 0.66,-1.07 5.766,-1.039 6.434,0.043 z m 40.371,0.75 c 0,1.051 -0.535,1.602 -1.555,1.602 -0.851,0 -1.773,0.359 -2.047,0.801 -0.699,1.133 -3.394,0.992 -3.828,-0.203 -0.633,-1.743 1.938,-3.797 4.754,-3.797 2.141,0 2.676,0.316 2.676,1.597 z m 22.398,0.028 c 0,2.113 -3.164,3.429 -4.707,1.957 -1.718,-1.641 -0.48,-3.582 2.282,-3.582 1.906,0 2.425,0.347 2.425,1.625 z m -97.218,3.918 c 1.019,3.203 7.5,4.234 10.785,1.711 1.926,-1.485 2.004,-1.481 3.906,0.015 2.453,1.93 5.441,1.942 8.57,0.031 2.387,-1.453 2.493,-1.453 4.289,0.004 2.407,1.95 3.114,1.891 6.696,-0.543 2.777,-1.89 3.125,-1.945 4.761,-0.8 2.309,1.617 6.59,1.578 9.407,-0.086 2.133,-1.262 2.343,-1.242 4.429,0.398 2.625,2.067 7.239,2.274 9.848,0.445 1.598,-1.121 1.992,-1.136 3.176,-0.121 2.504,2.145 4.293,2.278 7.816,0.571 3.266,-1.582 3.547,-1.598 5.5,-0.317 1.465,0.957 2.942,1.207 5.106,0.86 l 3.043,-0.485 0.879,8.508 c 0.863,8.289 0.839,8.547 -0.856,9.953 -2.195,1.824 -5.293,1.567 -16.336,-1.371 -1.633,-0.437 -1.137,-1.918 0.641,-1.918 1.121,0 2.015,-0.89 2.816,-2.816 1.281,-3.063 2.449,-9.985 1.688,-9.985 -1.196,0 -4.543,1.942 -4.543,2.633 0,0.438 -1.203,0.582 -2.762,0.328 -2.234,-0.363 -3.312,-0.011 -5.645,1.844 -1.585,1.262 -3.199,2.406 -3.582,2.543 -0.382,0.141 -0.949,1.273 -1.257,2.52 -0.528,2.117 -0.414,2.25 1.742,2.054 1.265,-0.113 3.91,0.094 5.875,0.465 2.797,0.527 3.23,0.801 2,1.266 -0.867,0.324 -3.012,0.414 -4.774,0.195 -2.793,-0.34 -3.5,-0.074 -5.55,2.082 l -2.348,2.473 -12.852,-0.008 c -14.621,-0.004 -17.906,-0.66 -22.367,-4.481 -3.66,-3.132 -5.808,-3.386 -8.797,-1.039 -1.172,0.926 -2.57,1.45 -3.109,1.172 -0.535,-0.281 -1.875,-1.031 -2.977,-1.668 -2.429,-1.402 -6.339,-1.476 -8.078,-0.152 -0.699,0.535 -1.875,2.137 -2.613,3.559 -1.332,2.582 -1.34,2.582 -2.922,1 -1.926,-1.926 -6.121,-2.083 -8.641,-0.317 -1.191,0.832 -2.148,1.012 -2.781,0.516 -0.531,-0.414 -2.191,-1.164 -3.691,-1.672 -2.336,-0.785 -3.117,-0.692 -5.414,0.664 -2.672,1.578 -2.696,1.578 -5.27,0.008 -1.426,-0.867 -3.59,-1.578 -4.812,-1.582 -1.227,0 -2.367,-0.453 -2.539,-1 -0.172,-0.551 -0.481,-5.047 -0.68,-9.996 l -0.363,-8.993 21.066,0.059 c 19.418,0.051 21.106,0.168 21.52,1.473 z m -10.754,2.402 c -0.887,1.664 -1.106,9.734 -0.336,12.598 0.258,0.961 0.926,1.922 1.488,2.136 1.754,0.672 6.707,-3.515 7.695,-6.507 0.911,-2.754 0.856,-2.872 -2.867,-6.289 -4.289,-3.938 -4.816,-4.11 -5.98,-1.938 z m 15.82,16.918 c 1.367,0.48 2.707,1.559 2.973,2.402 0.664,2.09 2.152,1.926 4.23,-0.468 2.836,-3.258 6.567,-2.567 8.113,1.507 0.801,2.106 0.606,2.536 -2.644,5.786 -3.238,3.238 -3.824,3.507 -7.641,3.507 -7.273,0 -12.078,-3.242 -12.078,-8.144 0,-1.227 0.774,-2.914 1.75,-3.824 2.039,-1.899 2.043,-1.899 5.297,-0.766 z m 90.391,4.469 c 0.414,2.793 -4.082,5.035 -6.524,3.25 -1.957,-1.434 -0.902,-3.621 2.172,-4.508 3.254,-0.938 4.063,-0.703 4.352,1.258 z m -130.332,0.086 c 1.082,2.027 -0.254,3.953 -3.192,4.597 -3.086,0.68 -3.851,-0.105 -3.336,-3.418 0.364,-2.336 0.676,-2.597 3.086,-2.597 1.746,0 2.946,0.492 3.442,1.418 z m 12.867,-0.25 c 0.797,0.961 0.496,1.457 -1.703,2.808 -3.082,1.891 -4.934,1.813 -5.328,-0.226 -0.625,-3.25 4.816,-5.25 7.031,-2.582 z m 12.426,0.679 c 0,0.797 -0.961,2.036 -2.137,2.75 -1.777,1.078 -2.356,1.121 -3.402,0.25 -1.59,-1.32 -1.582,-2.011 0.042,-3.636 1.731,-1.731 5.497,-1.297 5.497,0.636 z m 75.164,-0.121 c 1.57,0.715 2.75,0.692 5.164,-0.105 6.199,-2.043 8.789,0.324 6.082,5.558 -2.059,3.985 -11.86,5.254 -15.153,1.961 -1.601,-1.601 -1.605,-4.289 -0.011,-6.562 1.453,-2.078 1.3,-2.043 3.918,-0.852 z m 18.039,1.871 c 0,0.661 -0.543,1.2 -1.203,1.2 -0.661,0 -1.2,-0.539 -1.2,-1.2 0,-0.66 0.539,-1.199 1.2,-1.199 0.66,0 1.203,0.539 1.203,1.199 z m -34,2.024 c 4.453,0.84 4.953,1.16 6.972,4.453 2.418,3.937 4.211,4.875 10.825,5.648 4.925,0.582 7.277,2.403 9.488,7.344 1.492,3.344 0.644,4.547 -3.695,5.242 -2.672,0.426 -3.364,0.95 -4.344,3.305 -0.645,1.535 -2.012,3.117 -3.043,3.508 -2.328,0.883 -3.434,2.25 -4.106,5.066 -0.351,1.473 -1.207,2.36 -2.621,2.711 -2.965,0.746 -33.492,-1.273 -35.195,-2.324 -0.488,-0.305 -1.051,-2.77 -1.246,-5.481 -0.426,-5.871 -2.238,-7.894 -7.07,-7.894 -3.356,0 -5.567,-1.629 -5.567,-4.098 0,-2.281 -2.254,-6.304 -3.527,-6.304 -0.602,0 -2.293,-0.504 -3.762,-1.122 -2.617,-1.101 -2.539,-1.125 3.66,-1.191 7.606,-0.078 12.637,-2.187 15.477,-6.484 1.652,-2.504 2.332,-2.856 6.402,-3.317 5.746,-0.652 15.129,-0.238 21.352,0.938 z m 6.465,22.094 c -0.278,0.722 0.043,1.921 0.714,2.664 1.551,1.711 1.532,2.347 -0.121,4.175 -1.07,1.18 -1.14,1.68 -0.347,2.461 1.39,1.371 4.886,-2.738 4.886,-5.738 0,-3.602 -4.043,-6.41 -5.132,-3.562 z m -26.153,2.484 c -0.668,1.738 -0.554,2.742 0.547,4.801 1.375,2.57 4.195,3.793 3.223,1.398 l -0.969,-2.398 c -0.355,-0.883 0.059,-1.203 1.551,-1.203 2.789,0 3.312,-1.219 1.363,-3.168 -2.32,-2.325 -4.695,-2.086 -5.715,0.57 z m 11.492,18.359 c 1.856,4.086 1.086,4.34 -0.968,0.317 -0.918,-1.801 -1.379,-3.278 -1.02,-3.278 0.356,0 1.254,1.332 1.988,2.961 z m 10.071,-0.203 c 0.175,0.914 -0.114,1.297 -0.801,1.07 -0.59,-0.199 -1.199,-1 -1.352,-1.785 -0.175,-0.914 0.11,-1.297 0.801,-1.066 0.59,0.195 1.199,1 1.352,1.781 z m 4.922,0.539 c 0,0.438 -0.36,0.574 -0.797,0.305 -0.442,-0.274 -0.801,-0.856 -0.801,-1.297 0,-0.437 0.359,-0.574 0.801,-0.305 0.437,0.274 0.797,0.856 0.797,1.297 z m -17.293,1.946 c 0.273,0.71 0.14,1.031 -0.317,0.753 -0.433,-0.269 -0.789,-0.828 -0.789,-1.242 0,-1.152 0.574,-0.898 1.106,0.489 z m 16.476,5.464 c 0.012,0.391 -0.703,-0.207 -1.582,-1.324 -0.879,-1.121 -1.594,-2.336 -1.582,-2.707 0.024,-0.875 3.141,3.102 3.164,4.031 z m -49.582,-2.707 c 0,0.442 -0.16,0.801 -0.351,0.801 -0.196,0 -0.579,-0.359 -0.848,-0.801 -0.273,-0.437 -0.113,-0.8 0.351,-0.8 0.465,0 0.848,0.363 0.848,0.8 z m 22.281,3.313 c 3.247,2.027 5.27,6.351 5.586,11.933 0.266,4.723 0.024,5.938 -1.875,9.426 -5.617,10.321 -16.179,9.199 -21.445,-2.269 -3.133,-6.828 -1.727,-16.258 2.852,-19.157 3.738,-2.363 11.043,-2.332 14.882,0.067 z m -3.464,4.933 c -2.762,1.665 -3.567,3.254 -3.59,7.098 -0.032,4.242 1.406,6.258 4.468,6.258 5.192,0 8.043,-8.914 4.055,-12.66 -2.09,-1.961 -2.687,-2.047 -4.933,-0.696 z m 3.453,8.067 c 0.484,2.523 -3.477,4.039 -4.383,1.68 -0.602,-1.563 1.195,-3.731 2.832,-3.418 0.695,0.136 1.391,0.918 1.551,1.738 z m 18.781,-12.367 c 3.172,1.203 3.926,4.781 2.488,11.84 -0.433,2.136 -4.125,4.214 -7.48,4.214 -3.258,0 -4.645,-2.316 -5.317,-8.886 -0.504,-4.942 -0.418,-5.368 1.336,-6.598 2.086,-1.461 5.985,-1.707 8.973,-0.57 z m -6.981,4.117 c -2.441,2.902 -2.617,4.797 -0.609,6.613 1.734,1.567 2.586,1.633 5.274,0.41 2.972,-1.355 3.808,-4.554 1.898,-7.285 -2.004,-2.863 -4,-2.785 -6.563,0.262 z m 4.329,3.984 c 0,0.414 -0.539,0.754 -1.2,0.754 -1.238,0 -1.589,-0.945 -0.687,-1.844 0.64,-0.64 1.887,0.082 1.887,1.09 z m -44.696,7.754 c 0.992,1.27 0.965,1.297 -0.304,0.301 -0.77,-0.602 -1.399,-1.234 -1.399,-1.399 0,-0.66 0.656,-0.234 1.703,1.098 z M 314.934,90.218 c -5.204,0.328 -8.231,0.961 -10.801,2.254 -9.063,4.555 -11.317,9.344 -8.352,17.746 2.242,6.355 6.375,9.039 16.723,10.855 6.293,1.106 15.867,0.84 18.031,-0.496 0.578,-0.359 1.016,-2.8 1.094,-6.109 l 0.133,-5.508 -4,-0.398 c -3.657,-0.367 -4.024,-0.594 -4.254,-2.602 -0.238,-2.066 -0.063,-2.199 2.84,-2.199 1.699,0 3.523,-0.434 4.05,-0.961 1.293,-1.293 1.262,-10.602 -0.039,-11.656 -1.394,-1.133 -6.929,-1.465 -15.425,-0.926 z m 12.683,4.543 c 0.195,0.328 0.176,1.769 -0.043,3.199 -0.39,2.57 -0.445,2.602 -4.797,2.602 h -4.402 l 0.563,4.597 c 0.308,2.532 0.855,4.911 1.222,5.293 0.363,0.379 2.313,0.875 4.332,1.102 3.324,0.375 3.668,0.609 3.656,2.512 -0.023,4.082 -0.679,4.336 -10.128,3.949 -9.727,-0.403 -14.04,-2.031 -16.532,-6.254 -2.984,-5.055 -0.89,-11.742 4.551,-14.535 4.34,-2.227 20.629,-4.086 21.578,-2.465 z m -20.5,7.961 c -1.117,0.289 -1.39,1.019 -1.203,3.23 0.219,2.532 0.606,2.981 3.422,3.95 4.262,1.472 5.223,0.941 5.223,-2.887 0,-4.238 -2.375,-5.61 -7.442,-4.293 z M 51.961,101.425 c -1.063,0.617 -1.402,1.867 -1.402,5.176 0,2.937 -0.325,4.367 -1,4.386 -5.278,0.145 -16.485,1.094 -18.129,1.54 l -2.071,0.558 0.293,7.938 c 0.41,11.082 0.254,10.906 8.852,10.254 3.883,-0.293 8.348,-0.29 9.918,0.003 2.578,0.485 2.918,0.86 3.512,3.864 0.57,2.875 1.015,3.414 3.296,4.008 1.45,0.375 4.864,0.574 7.582,0.445 4.856,-0.231 4.954,-0.281 5.168,-2.637 0.426,-4.691 0.985,-6 2.551,-6 0.848,0 2.473,0.809 3.617,1.801 1.672,1.445 2.188,2.805 2.645,6.941 l 0.566,5.145 6.801,1.328 c 3.738,0.73 7.766,1.793 8.949,2.363 1.18,0.567 2.758,0.797 3.5,0.512 1.207,-0.461 1.317,-1.727 1.004,-11.539 -0.398,-12.516 -1.683,-16.481 -6.785,-20.961 -4.129,-3.621 -12.031,-7.277 -17.019,-7.871 -4.153,-0.496 -4.383,-0.649 -5.071,-3.32 -0.398,-1.539 -1.093,-3.25 -1.547,-3.797 -1.015,-1.231 -13.171,-1.336 -15.23,-0.137 z m 12.199,5.129 c 0,0.996 0.543,3.113 1.211,4.707 1.012,2.422 1.609,2.898 3.613,2.898 2.914,0 13.758,2.836 16.676,4.36 5.996,3.133 8.086,8.465 8.094,20.656 l 0.008,5.414 -2.203,-0.516 c -1.207,-0.285 -4,-0.961 -6.2,-1.507 l -4,-0.989 -1.035,-4.707 c -1.351,-6.129 -3.582,-8.414 -8.695,-8.902 -4.59,-0.441 -6.395,0.984 -6.805,5.391 -0.246,2.597 -0.48,2.82 -3.23,3.046 -3.844,0.321 -6.235,-0.988 -6.235,-3.406 0,-4.367 -0.187,-4.437 -11.285,-4.437 H 33.762 v -11.203 l 2.597,-0.164 c 1.43,-0.09 6.02,-0.184 10.2,-0.2 l 7.601,-0.035 0.235,-6.152 0.23,-6.153 2.566,-0.246 c 4.875,-0.472 6.969,0.172 6.969,2.145 z m 226.067,15.805 c -0.516,2.55 -1.582,21.773 -1.489,26.832 0.098,5.195 1.145,6.57 5.008,6.57 1.645,0 4.645,0.226 6.664,0.504 l 3.676,0.504 0.238,4.496 0.235,4.496 3.05,0.25 c 2.364,0.195 2.989,0.555 2.778,1.601 -0.305,1.512 -0.864,1.543 -11.328,0.653 l -7.106,-0.606 0.567,2.25 c 0.312,1.239 0.753,4.809 0.984,7.938 l 0.418,5.687 5.32,0.883 c 6.789,1.129 29.946,2.528 30.656,1.856 0.297,-0.282 0.79,-3.446 1.098,-7.028 0.609,-7.144 0.942,-6.586 -4.637,-7.828 -3.152,-0.699 -2.711,-1.918 0.801,-2.207 l 3,-0.25 0.231,-6.074 c 0.171,-4.531 -0.063,-6.32 -0.918,-7.035 -1.543,-1.278 -8.95,-2.41 -17.504,-2.676 l -6.992,-0.215 -0.008,-2.914 c -0.012,-3.598 0.797,-3.957 7.797,-3.453 2.968,0.211 8.273,0.473 11.793,0.574 l 6.402,0.192 0.18,-4.579 c 0.097,-2.515 0.73,-5.89 1.398,-7.496 0.672,-1.605 1.223,-3.179 1.223,-3.492 0,-1.68 -4.946,-2.433 -15.953,-2.433 -12.789,0 -12.848,-0.02 -12.848,-4.399 0,-4.101 -0.523,-4.398 -7.672,-4.398 -6.305,0 -6.719,0.105 -7.062,1.797 z m 11.117,6.058 c 0.449,2.344 1.355,4.551 2.015,4.906 0.661,0.356 6.149,0.809 12.196,1.004 6.047,0.196 11.211,0.571 11.472,0.832 0.262,0.262 0.164,2.395 -0.215,4.739 l -0.691,4.261 -4.781,-0.398 c -2.629,-0.223 -7.778,-0.402 -11.438,-0.402 -7.609,0 -8.238,0.48 -8.941,6.8 l -0.402,3.602 -3.2,-0.266 c -1.757,-0.148 -3.464,-0.523 -3.793,-0.836 -0.328,-0.312 -0.359,-6.742 -0.074,-14.293 0.492,-13.086 0.594,-13.742 2.192,-14.07 4.093,-0.844 4.812,-0.316 5.66,4.121 z m 22.418,30.457 c 2.086,0.512 2.398,0.946 2.398,3.336 0,2.61 -0.164,2.77 -3.199,3.149 -3.141,0.394 -3.207,0.468 -3.453,3.91 -0.297,4.14 0.347,4.961 4.41,5.633 2.992,0.496 3.039,0.558 2.762,3.679 -0.157,1.75 -0.477,3.496 -0.715,3.887 -0.238,0.391 -3.653,0.449 -7.719,0.125 -4.008,-0.316 -9.805,-0.731 -12.887,-0.914 -3.078,-0.188 -6.05,-0.504 -6.597,-0.703 -0.598,-0.219 -1,-1.805 -1,-3.926 v -3.563 l 7.511,0.45 c 7.122,0.425 7.559,0.359 8.442,-1.293 0.512,-0.957 0.82,-3.438 0.687,-5.512 -0.238,-3.715 -0.289,-3.777 -3.172,-4.016 -3.027,-0.254 -4.253,-1.683 -3.496,-4.074 0.344,-1.086 1.481,-1.25 7.02,-1.027 3.633,0.148 7.687,0.535 9.008,0.859 z M 56.961,145.87 c -6.086,0.7 -6.613,0.989 -6.086,3.328 0.266,1.188 1.023,5.043 1.68,8.563 0.66,3.535 1.73,6.793 2.39,7.281 0.793,0.582 2.586,0.664 5.297,0.235 4.535,-0.719 13.942,0.199 16.586,1.613 2.285,1.222 3.332,3.383 3.332,6.871 0,4.148 -1.094,5.672 -5.183,7.234 -3.153,1.203 -4.481,1.262 -10.665,0.469 -8.953,-1.148 -8.683,-1.16 -9.32,0.496 -1.137,2.961 -2.828,14.742 -2.246,15.649 0.68,1.054 0.633,1.046 11.613,1.828 4.289,0.304 7.801,0.793 7.801,1.086 0,0.293 -1.859,1.011 -4.137,1.593 -4.808,1.235 -10.316,5.84 -12.796,10.704 -2.207,4.324 -2.317,16.054 -0.188,19.66 1.078,1.824 1.223,2.699 0.559,3.363 -0.668,0.668 -0.504,1.828 0.629,4.477 0.843,1.964 1.535,4.296 1.535,5.183 0,0.887 0.625,2.668 1.386,3.965 1.383,2.34 1.422,2.348 7,1.84 3.086,-0.281 7.051,-0.828 8.813,-1.211 6.094,-1.328 18.773,-0.852 24.398,0.922 3.258,1.027 7.59,1.668 11.602,1.718 5.449,0.071 7.019,-0.234 10.566,-2.042 4.907,-2.508 5.332,-3.575 6.571,-16.536 0.992,-10.382 2.757,-19.629 4.351,-22.8 0.664,-1.321 1.321,-3.481 1.457,-4.797 l 0.254,-2.403 -4.801,0.078 c -5.004,0.083 -15.554,0.977 -18.507,1.567 -2.067,0.41 -2.7,3.527 -1.829,8.996 0.625,3.922 0.082,15.434 -0.796,16.852 -0.551,0.89 -7.125,-0.247 -8.329,-1.438 -0.363,-0.359 -0.218,-2.883 0.317,-5.609 1.25,-6.36 0.078,-12.149 -3.293,-16.239 -2.969,-3.597 -10.133,-7.086 -15.961,-7.765 l -4.402,-0.512 4.777,-1.437 c 6.434,-1.938 9.93,-3.832 12.965,-7.02 4.226,-4.445 5.461,-8.66 5.461,-18.672 0,-10.394 -1.02,-12.965 -7.551,-19.074 -6.453,-6.039 -10.602,-7.508 -22.449,-7.957 -5.5,-0.211 -11.262,-0.238 -12.801,-0.059 z m 21.215,5.532 c 3.082,0.46 7.886,3.011 12.058,6.402 4.532,3.68 6.297,9.324 5.715,18.258 -0.719,10.968 -4.113,16.179 -12.644,19.41 -4.278,1.617 -18.625,1.883 -23.645,0.433 l -3.301,-0.953 0.395,-3.797 c 0.531,-5.136 1.363,-5.847 5.805,-4.972 5.957,1.172 9.785,0.863 14.082,-1.137 5.586,-2.601 7.632,-5.664 7.632,-11.422 0,-8.793 -4.64,-11.847 -18.085,-11.898 l -8.77,-0.031 -0.66,-3.168 c -0.363,-1.743 -0.555,-4.067 -0.43,-5.168 0.211,-1.829 0.637,-2.036 5.031,-2.418 4.817,-0.418 12.309,-0.215 16.817,0.461 z m 7.941,56.281 c 6.621,3.004 7.91,5.273 7.977,14.078 0.027,3.519 -0.254,7.543 -0.629,8.945 l -0.684,2.547 6.875,2.145 c 11.434,3.562 12.602,2.332 12.953,-13.633 l 0.227,-10.395 2.664,-0.586 c 7.504,-1.648 11.203,-1.984 11.562,-1.05 0.2,0.527 -0.003,2.605 -0.457,4.617 -0.449,2.015 -1.199,8.824 -1.66,15.136 -1.011,13.793 -1.66,16.094 -5.129,18.239 -3.574,2.207 -11.976,2.183 -20.628,-0.059 -5.618,-1.457 -7.872,-1.621 -16.176,-1.191 -5.309,0.277 -11.711,0.797 -14.227,1.156 -2.515,0.359 -4.918,0.441 -5.34,0.184 -0.699,-0.434 -3.246,-6.856 -3.273,-8.254 -0.008,-0.332 0.539,-0.602 1.215,-0.602 2.183,0 2.273,-2.398 0.168,-4.648 -3.875,-4.141 -4.641,-6.641 -3.692,-12.035 1.235,-7.004 4.371,-11.512 10.059,-14.446 6.281,-3.242 11.281,-3.285 18.195,-0.148 z M 73.16,222.152 c -2.121,1.293 -2.601,2.089 -2.601,4.332 0,1.507 0.226,3.328 0.5,4.039 0.625,1.636 4.429,3.636 6.91,3.636 2.086,0 5.39,-2.656 5.39,-4.332 0,-3.644 -1.226,-6.351 -3.515,-7.746 -3.094,-1.886 -3.481,-1.883 -6.684,0.071 z m 5.238,3.367 c 1.364,1.363 1.192,4.601 -0.269,5.164 -2.387,0.914 -5.625,-3.801 -3.836,-5.59 0.848,-0.848 3.062,-0.617 4.105,0.426 z m 209.961,-38.836 c -0.746,0.304 -1,3.945 -1,14.316 0,12.93 0.11,13.961 1.547,14.735 2.117,1.128 8.317,1.043 9.492,-0.133 0.575,-0.574 0.961,-3.336 0.961,-6.856 0,-5.656 0.075,-5.886 1.801,-5.64 1.223,0.172 1.891,0.898 2.078,2.254 0.418,3.043 1.438,3.812 5.836,4.418 4.696,0.644 5.887,-0.122 5.887,-3.786 0,-1.367 0.41,-2.625 0.914,-2.793 0.637,-0.218 0.883,1.516 0.82,5.719 -0.125,8.195 0.567,8.844 9.426,8.844 3.688,0 6.953,-0.246 7.254,-0.547 0.297,-0.301 0.086,-1.922 -0.477,-3.602 -0.582,-1.753 -0.972,-6.363 -0.91,-10.835 0.071,-5.176 -0.281,-8.704 -1.047,-10.536 -1.312,-3.148 0.016,-2.902 -24.382,-4.496 -7.258,-0.472 -14.098,-1 -15.2,-1.168 -1.097,-0.172 -2.449,-0.121 -3,0.106 z m 38.582,8.367 c 0.43,0.414 0.801,5.082 0.821,10.367 l 0.039,9.617 -3.223,-0.238 -3.219,-0.234 -0.058,-7.067 c -0.067,-8 -0.406,-8.504 -5.711,-8.523 -2.574,-0.008 -3.578,0.371 -4.238,1.605 -0.477,0.887 -0.668,1.938 -0.426,2.328 0.66,1.067 -0.391,3.254 -1.567,3.254 -1.129,0 -2,-1.73 -2,-3.98 0,-1.777 -0.988,-2.18 -7.027,-2.863 -5.644,-0.637 -5.699,-0.543 -5.004,8.339 0.356,4.512 0.211,5.993 -0.605,6.309 -2.114,0.809 -2.739,-1.398 -2.934,-10.332 -0.109,-4.988 -0.105,-9.254 0.008,-9.473 0.383,-0.734 34.351,0.129 35.144,0.891 z m -20.781,28.711 -6.398,0.398 -0.09,9.465 -0.086,9.461 2.086,0.793 c 3.219,1.227 18.883,3.406 20.367,2.84 1.649,-0.633 1.895,-7.586 0.297,-8.203 -1.367,-0.524 -1.156,-3.969 0.352,-5.738 0.753,-0.883 1.183,-2.922 1.14,-5.418 l -0.066,-4 h -5.602 c -3.082,0 -8.48,0.179 -12,0.402 z m 14.485,3.664 c -0.266,0.695 -0.485,1.598 -0.485,2 0,0.406 -0.879,0.734 -1.953,0.734 -2.562,0 -3.277,1.301 -2.012,3.668 0.879,1.637 0.821,2.145 -0.383,3.473 -1.589,1.758 -1.082,3.262 1.098,3.262 1.621,0 3.688,2.035 2.688,2.648 -0.969,0.598 -14.7,-1.59 -15.59,-2.484 -0.43,-0.43 -0.664,-1.633 -0.516,-2.672 0.207,-1.469 0.988,-2.067 3.469,-2.656 2.992,-0.715 4.359,-1.653 4.387,-3.012 0.007,-0.313 -1.817,-0.813 -4.055,-1.109 -4.07,-0.54 -5.316,-1.641 -4.445,-3.918 0.371,-0.965 2.191,-1.2 9.371,-1.2 7.797,0 8.851,0.161 8.426,1.266 z m -87.684,2.965 c 0,2.234 5.617,7.148 10.621,9.293 3.863,1.656 6.18,3.633 6.18,5.273 0,1.871 -3.891,5.797 -6.192,6.246 -6.468,1.27 -14.812,-3.449 -15.922,-9 -0.695,-3.484 -2.316,-2.55 -2.152,1.243 0.074,1.714 -0.043,2.574 -0.258,1.914 -0.218,-0.661 -1.527,-2.098 -2.906,-3.2 -3.23,-2.574 -10.648,-2.863 -13.242,-0.519 -1.211,1.097 -3.059,1.523 -7.121,1.633 l -5.481,0.148 0.344,-2.43 c 0.344,-2.418 0.336,-2.421 -1.332,-0.937 -1.656,1.476 -4.289,1.523 -7.539,0.133 -1.055,-0.45 -1.402,-0.219 -1.402,0.933 0,1.02 -1.071,2.004 -3.204,2.946 -3.878,1.711 -4.867,3.359 -4.367,7.273 0.301,2.359 -0.035,3.473 -1.625,5.359 -2.703,3.215 -2.687,7.25 0.035,9.973 1.579,1.578 2.52,1.922 4.153,1.512 3.031,-0.762 6.449,-3.391 7.801,-6.004 1.113,-2.156 1.316,-2.223 4.554,-1.496 5.125,1.152 8.899,0.234 10.555,-2.571 1.398,-2.363 3.18,-3.039 4.098,-1.55 0.273,0.437 1.726,0.797 3.23,0.797 2.031,0 3.07,0.515 4.039,1.996 1.727,2.632 6.797,4.195 9.551,2.941 3.578,-1.629 4.055,-5.969 1.23,-11.242 -1.687,-3.152 -0.035,-3.277 3.016,-0.231 5.395,5.395 15.59,6.184 19.934,1.547 2.586,-2.761 3.425,-5.66 2.55,-8.824 -0.937,-3.394 -2.324,-4.66 -8.027,-7.348 -2.461,-1.16 -5.684,-3.355 -7.156,-4.875 -3.141,-3.238 -3.965,-3.433 -3.965,-0.933 z m -12.266,14.586 c 1.293,0.847 1.879,1.883 1.715,3.035 -0.199,1.391 -0.867,1.801 -3.265,2 -2.141,0.176 -3.383,0.812 -4.29,2.199 -1.417,2.164 -3.898,2.527 -5.832,0.86 -1.066,-0.922 -1.668,-0.922 -3.863,0 -1.43,0.601 -2.601,1.621 -2.601,2.265 0,1.777 -3.09,3.051 -6.18,2.551 -3.352,-0.543 -5.02,-1.816 -5.02,-3.832 0,-1.317 -0.414,-1.445 -3.218,-0.996 -4.844,0.773 -8.239,-2.762 -5.129,-5.344 1.433,-1.187 19.597,-1.742 22.468,-0.687 1.27,0.468 2.11,0.203 3.2,-1.012 2.961,-3.293 7.922,-3.723 12.015,-1.039 z m 5,10.183 c 0.918,2.434 -0.343,3.801 -3.507,3.801 -2.915,0 -5.688,-2.449 -4.95,-4.371 0.328,-0.855 1.574,-1.23 4.121,-1.23 3.051,0 3.766,0.296 4.336,1.8 z m -36.402,2.274 c 0.426,0.39 -0.754,2.023 -2.801,3.89 -4.39,3.997 -7.402,4.164 -7.769,0.426 -0.375,-3.82 2.14,-5.949 6.402,-5.418 1.891,0.239 3.766,0.735 4.168,1.102 z m 29.297,-26.918 c -0.918,1.113 -1.899,1.316 -4.598,0.945 -3.058,-0.418 -3.433,-0.293 -3.433,1.137 0,3.043 6.546,3.879 8.828,1.129 0.492,-0.594 0.777,-1.875 0.633,-2.856 -0.247,-1.672 -0.325,-1.695 -1.43,-0.355 z m -57.231,7.031 c -0.879,1.387 -3.937,4.188 -6.8,6.223 -5.754,4.09 -8.497,7.558 -9.278,11.738 -0.453,2.41 -0.172,3.129 2.149,5.523 1.59,1.641 4.316,3.274 6.75,4.043 3.75,1.18 4.449,1.18 8.492,0.004 4.859,-1.41 9.867,-5.578 10.402,-8.652 0.453,-2.609 -0.355,-7.094 -1.312,-7.297 -0.442,-0.094 -0.918,1.274 -1.059,3.031 -0.148,1.887 -0.973,3.985 -2,5.106 -2.336,2.555 -7.504,4.855 -10.941,4.875 -3.215,0.015 -7.477,-2.305 -8.813,-4.801 -1.312,-2.453 1.844,-6.906 7.746,-10.926 4.852,-3.308 8.266,-7.426 8.266,-9.972 0,-2.266 -1.816,-1.707 -3.602,1.105 z m 69.555,-0.914 c -1.219,1.973 2.754,10.328 4.91,10.328 0.625,0 1.137,-0.648 1.137,-1.441 0,-1.18 0.516,-1.379 2.875,-1.102 2.414,0.281 2.832,0.11 2.602,-1.074 -0.153,-0.777 -0.817,-1.691 -1.477,-2.035 -0.66,-0.344 -3.078,-1.719 -5.371,-3.059 -2.547,-1.488 -4.363,-2.117 -4.676,-1.617 z m -69.594,9.57 c -1.297,1.36 -3.531,3.196 -4.961,4.078 -2.457,1.52 -3.636,4.68 -1.746,4.68 1.387,0 4.192,-1.648 6.555,-3.855 l 2.211,-2.063 0.965,2.559 c 1.008,2.668 2.011,3.265 2.629,1.558 0.507,-1.394 -1.516,-8.832 -2.489,-9.16 -0.441,-0.144 -1.863,0.848 -3.164,2.203 z m 148.004,3.481 c -3.652,1.59 -5.164,3.492 -5.164,6.488 0,4.008 2.742,6.711 8.012,7.902 2.414,0.547 5.648,0.969 7.187,0.938 2.711,-0.051 2.809,-0.16 3.047,-3.426 0.219,-3.039 0.043,-3.422 -1.801,-3.887 -2.527,-0.632 -2.656,-1.742 -0.246,-2.082 2.086,-0.296 2.942,-4 1.36,-5.906 -1.223,-1.473 -9.035,-1.488 -12.395,-0.027 z m 10.035,2.496 c 0,0.672 -0.898,1.562 -2,1.98 -2.691,1.024 -2.656,3.789 0.059,4.825 1.336,0.503 1.965,1.273 1.789,2.179 -0.34,1.746 -4.504,1.524 -8.648,-0.461 -2.18,-1.047 -2.852,-1.886 -3.039,-3.808 -0.29,-2.957 1.156,-4.371 5.281,-5.176 4.969,-0.965 6.558,-0.852 6.558,0.461 z m -9.597,3.582 c 0,1.066 0.531,1.598 1.597,1.598 1.067,0 1.602,-0.532 1.602,-1.598 0,-1.066 -0.535,-1.602 -1.602,-1.602 -1.066,0 -1.597,0.536 -1.597,1.602 z M 81.359,255.378 c -11.531,1.684 -15.398,2.469 -29.074,5.902 -19.16,4.809 -21.555,6.43 -22.238,15.051 -0.66,8.34 3.203,12.543 14.367,15.629 3.16,0.875 8.805,2.086 12.547,2.695 14.09,2.293 20.637,3.758 28.555,6.391 11.902,3.957 11.07,4.5 10.906,-7.086 -0.16,-11.086 0.273,-10.441 -7.66,-11.426 -3.567,-0.441 -3.801,-0.617 -3.801,-2.824 v -2.351 h 5.027 c 4.696,0 5.117,-0.153 6.395,-2.313 1.113,-1.887 1.312,-3.867 1.082,-10.695 -0.156,-4.614 -0.535,-8.789 -0.84,-9.289 -0.707,-1.137 -6.035,-1.028 -15.266,0.316 z m 10.676,6.738 c 0.153,1.079 0.035,4.227 -0.262,7 l -0.539,5.043 h -4.273 c -6.465,0 -6.801,0.274 -6.801,5.528 0,2.504 0.434,4.984 0.961,5.511 0.527,0.532 3.027,0.961 5.551,0.961 2.527,0 4.828,0.379 5.113,0.844 0.289,0.465 0.27,3.016 -0.039,5.672 l -0.558,4.832 -2.915,-0.504 c -1.601,-0.277 -5.433,-1.058 -8.511,-1.73 -9.981,-2.192 -11.903,-2.555 -18.403,-3.5 -16.265,-2.36 -23.183,-4.993 -26.523,-10.09 -1.789,-2.731 -0.633,-6.332 2.969,-9.25 5.179,-4.192 41.074,-12.899 51.156,-12.41 2.312,0.113 2.848,0.476 3.074,2.093 z m -33.273,14.895 c -1.953,0.867 -2.602,1.664 -2.602,3.191 0,2.637 4.235,4.539 10.399,4.664 l 4.402,0.094 v -8.801 l -4.801,-0.152 c -2.777,-0.086 -5.894,0.336 -7.398,1.004 z m 8.433,3.348 c -0.218,1.078 -0.922,1.339 -3.058,1.128 -1.528,-0.152 -2.946,-0.441 -3.153,-0.644 -0.699,-0.684 1.957,-1.859 4.235,-1.871 1.73,-0.008 2.191,0.316 1.976,1.387 z m 233.836,-15.485 c -0.613,0.738 -0.847,4.289 -0.699,10.598 l 0.227,9.488 4,0.02 c 5.168,0.019 6,-0.27 6,-2.106 0,-1.722 2.027,-1.969 6.253,-0.758 4.254,1.223 4.95,0.512 4.95,-5.082 0,-2.785 -0.422,-5.375 -0.961,-5.914 -0.528,-0.527 -3.059,-0.961 -5.625,-0.961 -3.035,0 -4.774,-0.347 -4.973,-1 -0.172,-0.55 -0.527,-1.988 -0.793,-3.199 -0.433,-1.988 -0.812,-2.199 -3.969,-2.199 -2,0 -3.879,0.473 -4.41,1.113 z m 5.684,4.625 c -0.258,2.891 1.418,5.266 3.012,4.281 0.461,-0.285 2.457,-0.273 4.437,0.024 3.121,0.465 3.598,0.793 3.598,2.473 0,2.394 -1.657,3.101 -4.739,2.027 -3.168,-1.106 -5.628,-0.34 -6.531,2.031 -0.406,1.074 -1.176,1.809 -1.711,1.633 -0.683,-0.231 -0.894,-2.402 -0.719,-7.461 0.262,-7.605 0.508,-8.617 1.973,-8.113 0.531,0.183 0.82,1.504 0.68,3.105 z m -1.156,17.91 c -0.329,0.34 -0.598,2.176 -0.598,4.082 v 3.469 h 15.926 l 0.543,-2.887 c 0.609,-3.242 -0.297,-4.281 -3.754,-4.3 -1.145,-0.008 -4.203,-0.231 -6.797,-0.496 -2.598,-0.266 -4.988,-0.207 -5.32,0.132 z m 11.691,3.52 c 1.457,1.461 -1.074,2.547 -4.691,2.019 -3.848,-0.566 -5.293,-1.714 -3.594,-2.855 1.449,-0.969 7.043,-0.406 8.285,0.836 z m -20.289,8.07 c 0,1.188 0.219,3.27 0.492,4.621 0.453,2.274 0.77,2.477 4.199,2.7 l 3.707,0.242 -3.343,1.785 c -1.84,0.984 -3.586,2.176 -3.879,2.648 -0.707,1.145 5.183,6.293 7.222,6.317 0.879,0.011 2.45,-0.875 3.485,-1.965 2.406,-2.535 2.754,-2.504 5.578,0.519 1.289,1.379 2.695,2.293 3.121,2.028 0.43,-0.266 1.43,-2.184 2.223,-4.262 1.433,-3.754 1.433,-3.785 -0.282,-4.922 -2.25,-1.496 -2.175,-2.262 0.278,-2.879 1.629,-0.41 2,-0.992 2,-3.164 0,-4.504 -1.453,-5.078 -13.801,-5.476 l -11,-0.356 z m 20.199,1.258 c 1.649,0.484 1.906,3.504 0.297,3.504 -0.605,0 -1.555,0.547 -2.109,1.215 -0.821,0.988 -0.766,1.48 0.3,2.664 1.383,1.523 1.782,4.121 0.637,4.121 -0.371,0 -1.308,-0.695 -2.078,-1.547 -1.617,-1.789 -3.141,-1.457 -6.184,1.352 -2.07,1.91 -3.875,1.886 -3.855,-0.055 0.008,-0.524 1.266,-1.766 2.801,-2.758 1.535,-0.996 2.793,-2.121 2.793,-2.504 0,-1.336 -2.051,-2.371 -5.207,-2.629 -3.676,-0.3 -5.035,-2.707 -1.84,-3.254 2.871,-0.492 12.887,-0.57 14.445,-0.109 z"
       style="fill:#000000;fill-opacity:1;fill-rule:nonzero;stroke:none"
       transform="matrix(1.3333333,0,0,-1.3333333,0,443.73332)" />
  </g>
</svg>
