<?xml version="1.0" encoding="UTF-8" standalone="no"?>
<svg
   width="149.28029mm"
   height="127.71519mm"
   version="1.1"
   id="svg33"
   sodipodi:docname="stugainf_comp.svg"
   inkscape:version="1.3.2 (091e20ef0f, 2023-11-25, custom)"
   xmlns:inkscape="http://www.inkscape.org/namespaces/inkscape"
   xmlns:sodipodi="http://sodipodi.sourceforge.net/DTD/sodipodi-0.dtd"
   xmlns="http://www.w3.org/2000/svg"
   xmlns:svg="http://www.w3.org/2000/svg">
  <defs
     id="defs33" />
  <sodipodi:namedview
     id="namedview33"
     pagecolor="#ffffff"
     bordercolor="#666666"
     borderopacity="1.0"
     inkscape:showpageshadow="2"
     inkscape:pageopacity="0.0"
     inkscape:pagecheckerboard="0"
     inkscape:deskcolor="#d1d1d1"
     inkscape:document-units="mm"
     inkscape:zoom="0.97530891"
     inkscape:cx="269.65815"
     inkscape:cy="374.75306"
     inkscape:window-width="1866"
     inkscape:window-height="1020"
     inkscape:window-x="54"
     inkscape:window-y="32"
     inkscape:window-maximized="1"
     inkscape:current-layer="svg33" />
  <g
     transform="translate(-144.67294,-123.76658)"
     id="g33">
    <g
       id="g3"
       transform="translate(71.170501)">
      <path
         d="m 265.49,210.38 13.311,26.232 1.6986,22.801 -5.1502,23.139 -11.541,21.167 -11.393,12.578 36.203,14.803 43.312,8.1585 47.054,2.8245 58.673,-5.1871 65.07,-14.657 37.506,-16.728 21.779,-10.802 -5.4895,-30.051 -16.129,-36.963 -21.188,-23.555 -30.235,-21.391 -39.712,-16.346 -40.431,-7.7288 -34.843,1.1492 -28.91,5.4331 -28.114,9.9708 -30.573,18.102 z"
         fill="#c81e00"
         id="path1" />
      <path
         d="m 190.48,197.5 20.779,-7.892 16.692,2.036 22.71,8.0321 16.657,12.908 11.169,29.199 -0.53478,35.498 -10.4,21.11 -13.507,16.115 -23.118,6.8634 -32.102,-1.2747 -24.105,-13.112 -23.274,-19.447 11.985,-0.59212 -7.7792,-18.496 1.2893,-8.6456 7.7579,6.4822 10.414,2.3461 8.9907,-3.3048 9.8784,-8.4978 7.9407,-12.979 3.6636,-18.489 -0.56392,-11.415 -6.243,-10.562 z"
         fill="#323232"
         stroke="#000000"
         stroke-width="1px"
         id="path2" />
      <path
         d="m 442.45,165.57 c 3.7736,60.849 -129.81,94.746 -160.85,82.547 -3.1204,-1.2264 -15.094,-37.736 -15.094,-37.736 l 25.472,-20.755 44.34,-20.283 37.736,-8.0189 h 36.792 z"
         fill="#ffc7c1"
         id="path3" />
    </g>
    <g
       transform="matrix(1.1705,0,0,1.294,-421.0063,349.02514)"
       style="white-space:pre;shape-inside:url(#rect3765)"
       aria-label="StugA Informatik"
       id="g18">
      <path
         d="m 614.137,29.007 v 14.812 q -5.7656,-2.5781 -11.25,-3.8906 -5.4844,-1.3125 -10.359,-1.3125 -6.4688,0 -9.5625,1.7812 -3.0937,1.7812 -3.0938,5.5312 0,2.8125 2.0625,4.4062 2.1094,1.5469 7.5938,2.6719 l 7.6875,1.5469 q 11.672,2.3438 16.594,7.125 4.9219,4.7812 4.9219,13.594 0,11.578 -6.8906,17.25 -6.8438,5.625 -20.953,5.625 -6.6562,0 -13.359,-1.2656 -6.7031,-1.2656 -13.406,-3.75 v -15.234 q 6.7031,3.5625 12.938,5.3906 6.2812,1.7812 12.094,1.7812 5.9062,0 9.0469,-1.9688 3.1406,-1.9688 3.1406,-5.625 0,-3.2812 -2.1562,-5.0625 -2.1094,-1.7812 -8.4844,-3.1875 l -6.9844,-1.5469 q -10.5,-2.25 -15.375,-7.1719 -4.8281,-4.9219 -4.8281,-13.266 0,-10.453 6.75,-16.078 6.75,-5.625 19.406,-5.625 5.7656,0 11.859,0.89062 6.0938,0.84375 12.609,2.5781 z"
         id="path4" />
      <path
         d="m 652.147,29.382 v 14.906 h 17.297 v 12 h -17.297 v 22.266 q 0,3.6562 1.4531,4.9688 1.4531,1.2656 5.7656,1.2656 h 8.625 v 12 h -14.391 q -9.9375,0 -14.109,-4.125 -4.125,-4.1719 -4.125,-14.109 v -22.266 h -8.3438 v -12 h 8.3438 v -14.906 z"
         id="path5" />
      <path
         d="M 679.147,76.351 V 44.289 h 16.875 v 5.25 q 0,4.2656 -0.0469,10.734 -0.0469,6.4219 -0.0469,8.5781 0,6.3281 0.32812,9.1406 0.32813,2.7656 1.125,4.0312 1.0312,1.6406 2.6719,2.5312 1.6875,0.89062 3.8438,0.89062 5.25,0 8.25,-4.0312 3,-4.0312 3,-11.203 v -25.922 h 16.781 v 52.5 h -16.781 v -7.5938 q -3.7969,4.5938 -8.0625,6.7969 -4.2188,2.1562 -9.3281,2.1562 -9.0938,0 -13.875,-5.5781 -4.7344,-5.5781 -4.7344,-16.219 z"
         id="path6" />
      <path
         d="m 783.777,87.882 q -3.4688,4.5938 -7.6406,6.75 -4.1719,2.1562 -9.6562,2.1562 -9.6094,0 -15.891,-7.5469 -6.2812,-7.5938 -6.2812,-19.312 0,-11.766 6.2812,-19.266 6.2812,-7.5469 15.891,-7.5469 5.4844,0 9.6562,2.1562 4.1719,2.1562 7.6406,6.7969 v -7.7812 h 16.875 v 47.203 q 0,12.656 -8.0156,19.312 -7.9688,6.7031 -23.156,6.7031 -4.9219,0 -9.5156,-0.75 -4.5937,-0.75 -9.2344,-2.2969 v -13.078 q 4.4062,2.5312 8.625,3.75 4.2188,1.2656 8.4844,1.2656 8.25,0 12.094,-3.6094 3.8438,-3.6094 3.8438,-11.297 z M 772.715,55.21 q -5.2031,0 -8.1094,3.8438 -2.9063,3.8438 -2.9062,10.875 0,7.2188 2.8125,10.969 2.8125,3.7031 8.2031,3.7031 5.25,0 8.1562,-3.8438 2.9062,-3.8438 2.9062,-10.828 0,-7.0312 -2.9062,-10.875 -2.9062,-3.8438 -8.1562,-3.8438 z"
         id="path7" />
      <path
         d="m 859.997,84.039 h -28.219 l -4.4531,12.75 h -18.141 l 25.922,-69.984 h 21.516 l 25.922,69.984 h -18.141 z M 836.278,71.055 h 19.172 l -9.5625,-27.844 z"
         id="path8" />
      <path
         d="m 483.28,127.6 h 9.4688 v 69.984 H 483.28 Z"
         id="path9" />
      <path
         d="m 554.86,165.9 v 31.688 h -8.625 v -31.406 q 0,-7.4531 -2.9062,-11.156 -2.9062,-3.7031 -8.7188,-3.7031 -6.9844,0 -11.016,4.4531 -4.0312,4.4531 -4.0312,12.141 v 29.672 h -8.6719 v -52.5 h 8.6719 v 8.1562 q 3.0938,-4.7344 7.2656,-7.0781 4.2188,-2.3438 9.7031,-2.3438 9.0469,0 13.688,5.625 4.6406,5.5781 4.6406,16.453 z"
         id="path10" />
      <path
         d="m 598.64,124.65 v 7.1719 h -8.25 q -4.6406,0 -6.4688,1.875 -1.7812,1.875 -1.7812,6.75 v 4.6406 h 14.203 v 6.7031 H 582.14 v 45.797 h -8.6719 v -45.797 h -8.25 v -6.7031 h 8.25 v -3.6562 q 0,-8.7656 4.0781,-12.75 4.0781,-4.0312 12.938,-4.0312 z"
         id="path11" />
      <path
         d="m 626.21,151.14 q -6.9375,0 -10.969,5.4375 -4.0312,5.3906 -4.0312,14.812 0,9.4219 3.9844,14.859 4.0312,5.3906 11.016,5.3906 6.8906,0 10.922,-5.4375 4.0314,-5.4375 4.0312,-14.812 0,-9.3281 -4.0312,-14.766 -4.0312,-5.4844 -10.922,-5.4844 z m 0,-7.3125 q 11.25,0 17.672,7.3125 6.4219,7.3125 6.4219,20.25 0,12.891 -6.4219,20.25 -6.4219,7.3125 -17.672,7.3125 -11.297,0 -17.719,-7.3125 -6.375,-7.3594 -6.375,-20.25 0,-12.938 6.375,-20.25 6.4219,-7.3125 17.719,-7.3125 z"
         id="path12" />
      <path
         d="m 695.02,153.15 q -1.4531,-0.84375 -3.1875,-1.2188 -1.6875,-0.42188 -3.75,-0.42188 -7.3125,0 -11.25,4.7812 -3.8906,4.7344 -3.8906,13.641 v 27.656 H 664.27 v -52.5 h 8.6719 v 8.1562 q 2.7188,-4.7812 7.0781,-7.0781 4.3594,-2.3438 10.594,-2.3438 0.89062,0 1.9688,0.14063 1.0781,0.0937 2.3906,0.32812 z"
         id="path13" />
      <path
         d="m 743.25,155.17 q 3.2344,-5.8125 7.7344,-8.5781 4.5,-2.7656 10.594,-2.7656 8.2031,0 12.656,5.7656 4.4531,5.7188 4.4531,16.312 v 31.688 h -8.6719 v -31.406 q 0,-7.5469 -2.6719,-11.203 -2.6719,-3.6562 -8.1562,-3.6562 -6.7031,0 -10.594,4.4531 -3.8906,4.4531 -3.8906,12.141 v 29.672 h -8.6719 v -31.406 q 0,-7.5938 -2.6719,-11.203 -2.6719,-3.6562 -8.25,-3.6562 -6.6094,0 -10.5,4.5 -3.8906,4.4531 -3.8906,12.094 v 29.672 h -8.6719 v -52.5 h 8.6719 v 8.1562 q 2.9531,-4.8281 7.0781,-7.125 4.125,-2.2969 9.7969,-2.2969 5.7188,0 9.7031,2.9062 4.0312,2.9062 5.9531,8.4375 z"
         id="path14" />
      <path
         d="m 819.75,171.2 q -10.453,0 -14.484,2.3906 -4.0312,2.3906 -4.0312,8.1562 0,4.5938 3,7.3125 3.0469,2.6719 8.25,2.6719 7.1719,0 11.484,-5.0625 4.3594,-5.1094 4.3594,-13.547 v -1.9219 z m 17.203,-3.5625 v 29.953 h -8.625 v -7.9688 q -2.9531,4.7812 -7.3594,7.0781 -4.4062,2.25 -10.781,2.25 -8.0625,0 -12.844,-4.5 -4.7344,-4.5469 -4.7344,-12.141 0,-8.8594 5.9062,-13.359 5.9531,-4.5 17.719,-4.5 h 12.094 v -0.84375 q 0,-5.9531 -3.9375,-9.1875 -3.8906,-3.2812 -10.969,-3.2812 -4.5,0 -8.7656,1.0781 -4.2656,1.0781 -8.2031,3.2344 v -7.9688 q 4.7344,-1.8281 9.1875,-2.7188 4.4531,-0.9375 8.6719,-0.9375 11.391,0 17.016,5.9062 5.625,5.9062 5.625,17.906 z"
         id="path15" />
      <path
         d="m 863.25,130.18 v 14.906 h 17.766 v 6.7031 H 863.25 v 28.5 q 0,6.4219 1.7344,8.25 1.7812,1.8281 7.1719,1.8281 h 8.8594 v 7.2188 h -8.8594 q -9.9844,0 -13.781,-3.7031 -3.7969,-3.75 -3.7969,-13.594 v -28.5 h -6.3281 v -6.7031 h 6.3281 v -14.906 z"
         id="path16" />
      <path
         d="m 892.36,145.09 h 8.625 v 52.5 h -8.625 z m 0,-20.438 h 8.625 v 10.922 h -8.625 z"
         id="path17" />
      <path
         d="m 918.71,124.65 h 8.6719 v 43.078 l 25.734,-22.641 h 11.016 l -27.844,24.562 29.016,27.938 h -11.25 l -26.672,-25.641 v 25.641 H 918.71 Z"
         id="path18" />
    </g>
    <path
       d="m 337.2305,210.36 c 0,0 44.347,-51.966 124.48,-51.347 74.098,-1.6314 167.87,43.768 170.91,135.73 0,0 -64.319,41.431 -164.79,45.902 -107.92,4.8016 -145.4,-24.856 -145.4,-24.856"
       fill="none"
       stroke="#000000"
       stroke-linecap="round"
       stroke-width="10"
       id="path19" />
    <path
       d="m 300.6005,189.92 c -15.603,-1.9846 -26.221,-1.5474 -40.66,7.6673 0,0 -8.5328,0.99367 -14.071,4.7 -5.5382,3.7064 -17.655,14.572 -20.306,29.037 -2.6514,14.465 -1.1833,22.371 -1.1833,22.371 0,0 2.1069,7.9057 2.9596,13.585 0.85269,5.6791 7.8074,19.067 7.8074,19.067 l -14.924,-0.97911 c 0,0 15.883,16.138 25.099,21.645 12.38,7.3981 31.066,15.057 45.962,15.465 14.895,0.40837 30.791,-2.0933 45.841,-21.717 19.61,-28.46 22.845,-83.699 -18.886,-104.34"
       fill="none"
       stroke="#000000"
       stroke-linecap="round"
       stroke-linejoin="round"
       stroke-width="10"
       id="path20" />
    <g
       stroke="#000000"
       stroke-linecap="round"
       stroke-linejoin="round"
       id="g26"
       transform="translate(71.170501)">
      <g
         id="g22">
        <path
           d="m 269.25,362.82 6.461,-32.895 25.667,9.099 -22.313,27.297 z"
           stroke-width="10"
           id="path21" />
        <ellipse
           transform="rotate(-2.8283,61.523,138.88)"
           cx="423.70999"
           cy="236.64999"
           rx="39.143002"
           ry="36.856998"
           stroke-width="5"
           id="ellipse21" />
        <ellipse
           transform="rotate(-2.8283,1274.2,1880.8)"
           cx="423.70999"
           cy="236.64999"
           rx="39.143002"
           ry="36.856998"
           stroke-width="5"
           id="ellipse22" />
      </g>
      <g
         stroke-width="5"
         id="g24">
        <path
           d="m 363.76,159.63 c 11.276,20.331 0.90562,40.801 -18.407,50.515 -19.313,9.714 -40.124,1.5219 -51.53,-15.338 -3.9605,-5.8543 11.32,-13.371 30.633,-23.085 19.313,-9.714 38.109,-14.248 39.305,-12.092 z"
           id="path22" />
        <path
           d="m 555.41,267.31 c -18.602,13.945 -40.296,6.4652 -52.555,-11.341 -12.259,-17.8062 -6.9833,-39.541 8.1623,-53.141 5.2591,-4.7224 14.791,9.3893 27.049,27.196 12.259,17.806 19.316,35.808 17.343,37.287 z"
           id="path23" />
        <path
           d="m 422.62,334.82 c -6.4768,-22.328 8.1822,-39.983 29.17,-45.163 20.988,-5.1803 39.459,7.4308 46.834,26.404 2.5608,6.588 -14.008,10.522 -34.996,15.702 -20.988,5.18 -40.322,5.4254 -41.009,3.0573 z"
           id="path24" />
      </g>
      <path
         d="m 378.9,375.53 -4.3389,-33.241 27.228,0.46144 -12.47,32.977 z"
         stroke-width="10"
         id="path25" />
      <path
         d="m 491.76,362.74 -16.447,-29.212 25.428,-9.7469 0.7563,35.248 z"
         stroke-width="10"
         id="path26" />
    </g>
    <g
       stroke="#000000"
       id="g30"
       transform="translate(71.170501)">
      <path
         d="m 193.3,192.77 c 0,0 -6.3558,-12.845 -9.858,-25.831 -3.5022,-12.986 -1.6986,-22.801 -1.6986,-22.801 0,0 -8.289,1.6318 -12.958,4.0729 -7.2504,3.7909 -14.162,14.431 -14.162,14.431 l -10.407,-13.789 c 0,0 9.8863,-11.094 20.87,-17.623 9.4487,-5.6159 23.231,-4.5804 23.231,-4.5804 l 8.385,7.5955 c 0,0 -5.4322,17.432 -2.0428,28.135 3.3894,10.703 11.112,28.057 11.112,28.057"
         fill="none"
         stroke-linecap="round"
         stroke-linejoin="round"
         stroke-width="5"
         id="path27" />
      <path
         d="m 231.08,203.03 c 0,0 -1.5294,-19.377 2.3034,-34.441 3.8328,-15.064 9.089,-24.478 9.089,-24.478 0,0 -6.2825,-3.3065 -10.928,-1.1765 -8.3918,3.8474 -15.473,11.063 -15.473,11.063 l -6.5814,-17.411 c 0,0 14.625,-12.512 28.114,-9.9708 14.437,2.7195 22.625,6.3199 22.625,6.3199 l -0.007,11.443 c 0,0 -11.365,13.148 -13.486,28.128 -2.121,14.98 -1.1055,35.526 -1.1055,35.526"
         fill="none"
         stroke-linecap="round"
         stroke-linejoin="round"
         stroke-width="5"
         id="path28" />
      <path
         d="m 191.5,191.14 -3.9601,-10.675 -4.8128,-16.354 -1.5576,-19.947 -13.472,5.2426 -13.648,13.261 -9.2659,-13.845 11.992,-12.035 13.93,-7.5537 17.009,-3.1288 9.611,9.2513 -3.5158,9.8998 0.53572,10.844 1.649,10.217 5.0734,10.048 2.8468,11.302 z"
         stroke-width="1px"
         id="path29" />
      <path
         d="m 216.59,152.83 8.2508,-6.701 7.8775,-2.6777 7.5041,1.3456 -2.3461,10.414 -3.5158,9.8998 -3.2338,15.607 -0.94859,24.122 15.271,5.1032 -0.45593,-26.478 3.1774,-16.749 6.1721,-14.036 5.8269,-9.4419 -1.1064,-10.816 -19.144,-5.3476 -10.33,-0.63394 -11.732,5.7287 -8.3354,4.9888 z"
         stroke-width="1px"
         id="path30" />
    </g>
    <g
       fill="none"
       stroke="#000000"
       stroke-linecap="round"
       stroke-linejoin="round"
       stroke-width="5"
       id="g32"
       transform="translate(71.170501)">
      <ellipse
         transform="rotate(22.29,102.21,-185.96)"
         cx="334"
         cy="172.92999"
         rx="23.143"
         ry="36"
         id="ellipse30" />
      <path
         d="m 153.3,290.3 c 0,0 22.676,1.0416 44.609,-8.9179 21.205,-9.6289 33.947,-33.868 33.947,-33.868"
         id="path31" />
      <path
         d="m 212.96,247.31 c 0,0 12.472,-6.176 20.004,-0.41613 7.532,5.75987 5.9261,15.727 5.9261,15.727"
         id="path32" />
    </g>
    <ellipse
       transform="rotate(4.4533)"
       cx="262.46149"
       cy="222.41058"
       rx="9.7143002"
       ry="19.143"
       stroke="#000000"
       stroke-linecap="round"
       stroke-linejoin="round"
       stroke-width="5"
       id="ellipse32" />
  </g>
</svg>
