<?xml version="1.0" encoding="UTF-8" standalone="no"?>
<svg
   version="1.0"
   width="591pt"
   height="591pt"
   viewBox="0 85 591 506"
   preserveAspectRatio="xMidYMid"
   id="svg16"
   xml:space="preserve"
   xmlns="http://www.w3.org/2000/svg"
   xmlns:svg="http://www.w3.org/2000/svg">
   <defs id="defs20" />
    <g
     transform="matrix(0.1,0,0,-0.1,0,591)"
     fill="#000000"
     stroke="none"
     id="g14"
     style="fill-opacity:1">
	   <path
       d="m 2853,4705 c -232,-52 -426,-287 -483,-585 -26,-133 0,-436 46,-546 9,-21 49,-85 89,-140 l 72,-101 -26,-16 c -82,-49 -102,-125 -57,-223 15,-32 38,-73 52,-92 14,-18 23,-40 20,-48 -9,-22 -94,-72 -166,-97 -63,-21 -75,-22 -452,-19 -428,3 -464,-1 -580,-59 -161,-81 -247,-233 -219,-385 29,-157 172,-336 303,-380 64,-21 165,-15 229,13 94,42 170,140 139,178 -18,22 -32,19 -106,-21 -65,-37 -66,-37 -122,-24 -48,11 -65,21 -117,74 -71,70 -110,143 -110,203 0,78 78,129 240,158 105,18 165,19 292,3 119,-14 479,5 527,28 16,8 31,13 33,11 2,-2 -50,-44 -114,-93 -167,-126 -306,-262 -340,-332 -52,-106 -34,-245 55,-416 61,-117 123,-163 231,-173 205,-19 367,172 283,333 -25,49 -75,94 -103,94 -62,0 -78,-52 -29,-88 51,-38 36,-113 -30,-147 -33,-17 -83,-20 -110,-5 -62,33 -111,215 -80,296 25,65 223,224 421,338 35,21 82,48 104,60 23,14 50,41 63,65 13,23 35,49 49,58 24,16 26,16 44,-6 13,-15 19,-39 19,-70 0,-45 -2,-48 -89,-131 -104,-99 -116,-117 -132,-189 -20,-93 22,-181 87,-181 30,0 64,33 64,61 0,18 -4,20 -27,15 -33,-9 -43,5 -43,62 0,57 18,81 103,140 89,62 105,79 121,133 l 13,43 36,-50 c 20,-27 43,-76 52,-109 22,-80 11,-120 -61,-225 -65,-95 -73,-125 -50,-185 42,-108 143,-128 162,-31 14,75 -37,138 -75,92 -9,-11 -8,-15 5,-20 13,-5 14,-10 6,-18 -19,-19 -42,-1 -42,33 0,25 10,40 46,73 54,48 91,116 105,191 9,51 8,60 -45,205 -44,121 -54,156 -45,172 18,33 33,14 62,-79 25,-81 31,-92 59,-104 101,-41 347,-222 403,-296 31,-41 35,-52 35,-108 0,-34 -7,-85 -16,-114 -18,-63 -76,-131 -110,-131 -63,0 -134,57 -134,108 0,17 14,40 37,64 36,37 36,38 18,58 -59,65 -174,-40 -175,-160 0,-60 38,-139 86,-178 51,-42 114,-62 198,-62 121,0 185,46 254,185 60,121 77,179 77,270 0,65 -5,90 -24,130 -33,67 -163,194 -334,325 -133,102 -158,131 -80,92 62,-32 323,-47 540,-31 153,11 183,11 266,-4 167,-29 247,-82 247,-163 0,-38 -47,-131 -96,-190 -36,-45 -100,-81 -157,-91 -28,-4 -49,2 -104,33 -42,23 -76,35 -86,31 -44,-17 4,-121 75,-165 92,-56 231,-66 318,-22 62,31 168,142 207,215 70,133 79,246 28,350 -51,105 -180,197 -321,231 -60,14 -106,15 -354,8 -157,-4 -313,-7 -348,-5 -138,4 -277,45 -345,103 l -28,23 47,79 c 41,67 49,87 52,141 4,62 4,64 -37,108 -23,24 -41,47 -41,50 0,2 18,27 41,53 52,64 132,229 156,324 26,107 25,366 -1,465 -100,373 -383,596 -673,530 z m -33,-124 c 0,-5 -17,-21 -37,-37 -38,-29 -64,-56 -58,-62 2,-2 35,10 73,27 39,17 77,31 86,31 33,0 14,-18 -41,-41 -130,-53 -216,-135 -287,-276 -14,-29 -30,-53 -35,-53 -5,0 -12,-20 -15,-45 -11,-69 -29,-68 -21,1 10,84 23,133 51,183 27,48 29,55 14,46 -15,-9 -12,2 7,31 21,32 191,183 218,195 27,11 45,11 45,0 z m -83,-1417 c 7,-10 13,-45 13,-81 0,-56 3,-67 26,-88 31,-29 23,-31 -37,-10 -54,20 -138,108 -139,147 0,38 34,61 85,54 21,-2 45,-13 52,-22 z m 503,-4 c 11,-6 22,-26 26,-45 12,-64 -56,-133 -148,-150 -44,-8 -48,2 -14,34 31,29 56,81 56,114 0,46 39,69 80,47 z m 1045,-383 c 189,-50 270,-85 301,-132 14,-21 54,-170 54,-198 0,-7 -9,6 -19,28 -30,64 -112,157 -169,191 -77,46 -206,74 -345,74 -90,0 -116,3 -120,14 -13,32 54,56 143,52 30,-1 100,-14 155,-29 z m -2665,-21 c -33,-12 -34,-13 -10,-19 14,-4 39,-7 56,-7 17,0 34,-3 38,-7 4,-5 -48,-13 -117,-19 -115,-9 -129,-13 -182,-45 -32,-18 -82,-56 -111,-83 -37,-32 -54,-43 -54,-32 0,27 26,80 50,101 12,11 26,29 30,41 5,13 35,32 82,52 64,27 84,31 163,31 84,0 88,-1 55,-13 z m 1916,-298 c 52,-56 96,-127 92,-151 -3,-21 -5,-20 -21,8 -9,17 -30,46 -47,65 l -30,34 -1,-34 v -35 l -17,40 c -24,57 -32,67 -48,61 -11,-4 -14,4 -14,35 v 40 l 28,-15 c 15,-8 41,-29 58,-48 z M 2204,2220 c 18,0 17,-3 -6,-27 -45,-47 -110,-173 -118,-228 -6,-42 -8,-35 -9,50 -1,99 0,101 35,159 30,47 40,57 58,52 11,-3 30,-6 40,-6 z"
       id="path4"
       style="fill-opacity:1" />
	   <path
       d="m 3830,3451 c -145,-45 -257,-166 -388,-421 -37,-73 -35,-93 9,-115 30,-16 177,-47 188,-41 7,5 28,46 69,138 40,89 75,133 131,166 37,22 57,26 117,27 87,0 99,-8 155,-110 35,-64 39,-76 39,-146 v -77 l 91,-7 c 64,-5 94,-4 102,4 8,8 12,55 12,134 v 122 l -41,70 c -46,77 -135,167 -204,207 -86,50 -207,71 -280,49 z m 221,-67 c 10,-9 15,-22 12,-30 -3,-8 0,-21 7,-29 10,-13 9,-15 -11,-15 -22,0 -22,-1 9,-33 44,-46 40,-53 -11,-19 -60,42 -105,52 -204,45 -93,-7 -103,-2 -103,49 0,24 5,28 63,42 78,20 211,14 238,-10 z"
       id="path6"
       style="fill-opacity:1" />
	   <path
       d="m 1845,3432 c -121,-42 -192,-106 -250,-227 -67,-139 -84,-273 -42,-313 20,-19 35,-22 99,-22 h 75 l 11,94 c 11,99 27,143 71,189 36,40 73,57 121,57 95,0 186,-80 255,-225 40,-82 49,-95 80,-105 79,-26 187,18 193,79 8,75 -146,318 -253,401 -107,83 -247,111 -360,72 z m 89,-71 c 3,-4 -12,-13 -33,-20 -35,-10 -76,-41 -55,-41 5,0 -8,-12 -29,-26 -21,-14 -58,-57 -83,-95 -24,-39 -49,-67 -54,-64 -22,13 -11,91 19,136 56,85 83,99 223,118 4,1 9,-3 12,-8 z"
       id="path8"
       style="fill-opacity:1" />
	   <path
       d="m 1625,2574 c -13,-13 -15,-28 -10,-68 4,-28 13,-61 21,-73 16,-26 90,-78 139,-99 47,-19 197,-19 235,1 59,30 75,89 46,160 -12,27 -21,35 -40,35 -30,0 -33,-8 -9,-25 36,-26 -9,-55 -87,-55 -31,0 -94,56 -122,108 -17,31 -19,32 -87,32 -51,0 -74,-4 -86,-16 z"
       id="path10"
       style="fill-opacity:1" />
	   <path
       d="m 4005,2505 c -94,-101 -114,-102 -198,-6 -23,26 -31,30 -47,21 -11,-6 -20,-16 -20,-21 0,-18 140,-157 175,-173 52,-25 159,-21 222,9 61,28 88,65 98,134 4,25 11,53 15,62 15,28 -4,37 -90,43 l -85,6 z m 131,-5 c 8,0 14,-4 14,-9 0,-14 -88,-91 -116,-101 -59,-23 -57,-8 11,60 39,39 71,66 73,60 2,-5 10,-10 18,-10 z"
       id="path12"
       style="fill-opacity:1" />
	</g>
	<g
     id="g851"
     transform="translate(3.03974,370.45484)"
     style="fill-opacity:1">
	   <path
       d="m 164.76663,173.15865 q -5.70509,11.68996 -19.46936,12.63998 -11.40755,0.77011 -24.23492,-5.49006 -12.38504,-6.04431 -23.637549,-18.57741 7.579909,-6.3936 8.326079,-7.28127 1.39831,-1.74299 5.50131,-9.98991 0.13284,23.61479 15.36139,31.04681 18.3248,8.9431 23.75234,-2.17816 4.50239,-9.22559 -4.51885,-18.63555 l -19.78453,-16.85349 q -10.83195,-11.31075 -4.911,-23.44303 4.74909,-9.73111 17.33001,-12.74519 8.59639,-2.063801 14.45633,-0.92522 4.00116,0.77911 11.7734,4.57222 11.5004,5.61256 20.12073,15.84398 l -3.02609,2.51335 q -2.15809,1.21572 -4.05738,3.18365 l -0.89733,1.51805 q -0.92213,2.2101 -1.47722,3.3475 -0.40089,0.82146 -0.61827,1.10657 -0.87255,0.82599 -4.45012,1.58367 3.67152,-17.14203 -12.37848,-24.97495 -7.39311,-3.60808 -13.4154,-2.00929 -6.36755,1.66501 -9.94479,8.99494 -3.76227,7.70905 5.65684,15.98312 l 19.63185,17.32665 q 10.61609,11.75308 4.91101,23.44304 z"
       id="path791"
       style="fill-opacity:1" />
	   <path
       d="m 268.12165,177.42114 q -4.22425,21.16857 -21.85691,30.48401 -16.01968,8.41843 -35.53338,4.52441 -19.78951,-3.94905 -31.07521,-17.81635 -12.67915,-15.50765 -8.48241,-36.53831 4.21049,-21.09962 21.84315,-30.41506 15.95073,-8.43219 35.53338,-4.52441 19.72056,3.93529 31.07521,17.81635 12.67915,15.50765 8.49617,36.46936 z m -14.75594,-2.94459 q 3.61882,-18.13464 -4.8395,-30.72074 -7.56147,-11.33165 -21.28312,-14.06985 -16.27291,-3.2473 -27.53483,6.12055 -10.46248,8.59531 -13.77858,25.21298 -3.28859,16.47977 3.12867,28.51517 6.85895,13.05563 22.99395,16.27542 16.135,3.21978 27.47964,-6.20327 10.54519,-8.65049 13.83377,-25.13026 z"
       id="path793"
       style="fill-opacity:1" />
	   <path
       d="m 346.27641,217.007 -17.29013,0.48304 q -6.63861,-3.47222 -15.83971,-13.06276 -1.4489,-1.507 -13.51483,-15.44892 -5.08882,-5.90707 -9.90355,-7.03868 l 0.68724,24.59977 q 0.12371,4.42796 0.8835,6.4466 0.75979,2.01863 3.5288,5.45827 l -21.50723,0.60084 q 3.48244,-3.75496 3.85113,-5.66444 l 0.38164,-6.48194 -1.59636,-57.14177 q -0.14727,-5.27138 -3.34781,-9.05066 -3.78049,-4.39614 -5.04562,-4.3608 l -0.23482,-3.36975 2.17491,-0.20144 q 9.5411,-0.89961 14.73711,3.80868 l 1.54275,2.34846 q 10.30713,-8.72874 22.53674,-9.0704 8.43421,-0.23562 14.24118,3.68187 6.59386,4.38788 6.82163,12.54095 0.51838,18.55526 -27.11736,31.42578 7.70664,3.93476 15.54876,12.71919 2.76312,3.22878 10.75367,12.29042 9.72844,10.84193 17.70836,14.48769 z m -31.90302,-69.37832 q -0.269,-9.62906 -11.16319,-9.32471 -4.91996,0.13745 -9.08601,2.08268 -5.48576,2.54481 -5.37188,6.62134 l 0.75008,26.8489 q 25.38545,-7.81352 24.871,-26.22821 z"
       id="path795"
       style="fill-opacity:1" />
	   <path
       d="m 408.04076,202.57447 q -0.79825,2.51962 -2.73062,2.89633 l -53.69233,10.46736 -3.02439,-1.91766 5.10921,-4.29131 q 1.48664,-2.29563 1.74102,-3.56304 -0.17491,-0.89717 -0.33113,-2.80089 l 0.0421,-0.15148 -12.13567,-62.24998 q -0.57853,-2.96757 -3.79476,-5.13438 l -6.347,-2.05791 2.0826,-2.91327 53.69233,-10.46736 q 1.93237,-0.37671 3.6186,1.65855 -2.179,5.72588 -1.81574,7.58923 l 1.536,4.57182 -4.39642,-0.504 q -7.36003,-3.57969 -17.49627,-3.39453 l -3.50448,0.39666 -3.54659,0.54813 -5.70119,1.25473 -2.70672,0.81422 5.23368,26.84616 35.40381,-6.90199 -3.42521,9.62227 -5.67874,7.98414 q -7.93507,-7.2643 -20.94818,-5.30047 -0.27606,0.0538 -1.60076,0.24043 -1.39372,0.20007 -1.97448,0.5282 -0.59421,0.25911 -0.44447,0.65974 l 7.72444,39.2551 2.81435,-0.26212 5.75501,-0.97867 3.49277,-0.82419 3.39685,-0.94876 q 9.46353,-3.63583 14.93997,-9.71799 l 3.88517,-2.11851 0.29376,4.81399 q 0.36326,1.86336 4.53348,6.35145 z"
       id="path797"
       style="fill-opacity:1" />
	   <path
       d="m 485.0436,153.92648 q -1.55151,14.83546 2.45212,23.442 -7.89072,-1.29243 -26.03932,7.53774 l -24.01823,11.71573 q 1.5668,-6.46739 1.22122,-8.71062 l -2.04932,-5.40562 -23.81416,-51.193 q -1.92767,-4.14389 -5.89985,-7.18161 -5.38965,-4.0844 -12.3136,-3.9654 l 22.37701,-10.40943 33.30423,71.5937 q 0.28023,0.10229 1.66946,-0.0787 2.71471,-0.33226 6.34858,-2.02268 17.78686,-8.27416 26.76186,-25.32214 z"
       id="path799"
       style="fill-opacity:1" />
	</g>
</svg>
