<?xml version="1.0" encoding="UTF-8" standalone="no"?>
<svg
   version="1.0"
   width="591.000000pt"
   height="591.000000pt"
   viewBox="0 0 591.000000 591.000000"
   preserveAspectRatio="xMidYMid meet"
   id="svg713"
   sodipodi:docname="2024-06-09_Dennis_Legion.svg"
   inkscape:export-filename="tinywow_Icon_legion - Kopie_57853097_white.png"
   inkscape:export-xdpi="300"
   inkscape:export-ydpi="300"
   inkscape:version="1.2.2 (732a01da63, 2022-12-09)"
   xml:space="preserve"
   xmlns:inkscape="http://www.inkscape.org/namespaces/inkscape"
   xmlns:sodipodi="http://sodipodi.sourceforge.net/DTD/sodipodi-0.dtd"
   xmlns="http://www.w3.org/2000/svg"
   xmlns:svg="http://www.w3.org/2000/svg"><defs
     id="defs717"><rect
       x="148.27267"
       y="634.31775"
       width="783.31372"
       height="250.25536"
       id="rect798" /></defs><sodipodi:namedview
     id="namedview715"
     pagecolor="#ffffff"
     bordercolor="#111111"
     borderopacity="1"
     inkscape:showpageshadow="0"
     inkscape:pageopacity="0"
     inkscape:pagecheckerboard="1"
     inkscape:deskcolor="#d1d1d1"
     inkscape:document-units="pt"
     showgrid="false"
     inkscape:zoom="1.3715585"
     inkscape:cx="389.70266"
     inkscape:cy="385.69263"
     inkscape:window-width="3440"
     inkscape:window-height="1417"
     inkscape:window-x="1912"
     inkscape:window-y="-8"
     inkscape:window-maximized="1"
     inkscape:current-layer="svg713" /><metadata
     id="metadata689">
Created by potrace 1.16, written by Peter Selinger 2001-2019
</metadata><g
     transform="translate(0.000000,591.000000) scale(0.100000,-0.100000)"
     fill="#000000"
     stroke="none"
     id="g711"
     style="fill-opacity:1"><path
       d="M3105 4757 c-66 -66 -83 -194 -38 -276 l27 -48 -29 -44 c-40 -58 -42 -64 -60 -170 -15 -86 -13 -155 5 -144 4 2 10 -17 13 -42 7 -61 36 -87 87 -79 54 9 82 36 124 121 50 98 56 158 27 235 -26 68 -26 92 -1 165 14 40 20 84 20 140 0 81 0 81 -37 117 -39 37 -73 58 -93 58 -7 0 -27 -15 -45 -33z"
       id="path691"
       style="fill-opacity:1" /><path
       d="M2356 4616 c-23 -39 -26 -56 -26 -131 0 -80 2 -90 30 -128 35 -50 46 -97 55 -235 l7 -104 45 -51 c70 -81 79 -87 137 -87 28 0 56 4 62 8 16 10 64 108 64 129 0 10 -14 53 -31 95 -28 69 -34 78 -70 92 -43 17 -46 29 -29 101 5 22 10 67 11 100 1 52 -4 69 -35 124 -56 99 -85 129 -123 130 -25 1 -33 -3 -33 -16 -1 -17 -1 -17 -14 0 -7 9 -16 17 -19 17 -3 0 -17 -20 -31 -44z"
       id="path693"
       style="fill-opacity:1" /><path
       d="M3743 4541 c-46 -21 -95 -81 -114 -138 -7 -23 -10 -68 -6 -121 5 -83 4 -86 -33 -157 -21 -39 -41 -94 -45 -123 -12 -91 24 -152 81 -138 31 8 44 -22 37 -85 -5 -47 15 -85 41 -76 12 4 10 66 -4 103 -13 34 -1 61 36 83 19 11 39 32 44 45 20 52 100 397 102 438 5 99 -1 138 -27 163 -29 30 -56 31 -112 6z"
       id="path695"
       style="fill-opacity:1" /><path
       d="M1602 4274 c-34 -24 -52 -68 -52 -128 l0 -54 115 -126 c123 -135 139 -159 155 -230 16 -72 48 -114 102 -133 42 -16 46 -20 41 -43 -3 -19 2 -35 20 -56 13 -16 29 -51 36 -79 7 -27 22 -66 34 -85 13 -19 29 -48 37 -65 10 -19 35 -40 70 -58 30 -15 61 -34 69 -41 16 -16 16 -75 1 -126 -25 -84 0 -138 48 -104 30 21 37 75 19 138 -13 46 -13 57 0 92 27 71 44 157 38 183 -7 27 -93 141 -182 241 -59 67 -70 87 -107 188 -30 85 -92 181 -129 201 -14 7 -23 19 -21 26 3 7 1 16 -5 20 -6 3 -11 17 -11 29 0 13 -8 34 -18 47 -10 13 -26 43 -37 67 -10 23 -36 58 -57 77 -33 31 -45 35 -91 35 -31 0 -61 -6 -75 -16z"
       id="path697"
       style="fill-opacity:1" /><path
       d="M4338 3922 c-79 -74 -128 -165 -128 -235 0 -28 -4 -46 -9 -42 -18 10 -34 -38 -42 -125 -8 -88 -46 -225 -81 -295 -25 -48 -119 -148 -167 -177 -20 -12 -51 -34 -69 -50 -32 -27 -34 -28 -64 -12 -17 9 -35 28 -41 44 -7 19 -20 30 -40 34 -16 3 -52 25 -80 50 -69 58 -85 65 -159 72 -35 3 -72 9 -83 14 -11 5 -38 13 -60 18 -22 6 -58 17 -80 26 -22 8 -70 15 -106 16 -57 0 -79 -6 -143 -36 -66 -31 -83 -36 -124 -31 -26 3 -120 1 -210 -5 -187 -14 -184 -12 -222 -124 -23 -67 -25 -112 -6 -139 7 -11 16 -33 20 -49 4 -15 20 -45 36 -65 42 -53 52 -103 39 -197 -14 -106 -32 -136 -109 -186 -39 -26 -79 -63 -100 -93 -19 -28 -42 -61 -52 -74 -11 -16 -29 -24 -60 -27 -80 -9 -85 -12 -102 -55 -9 -23 -28 -56 -42 -74 l-24 -32 25 -80 c36 -109 49 -129 161 -221 97 -82 118 -93 127 -69 3 6 6 0 6 -14 1 -36 32 -72 118 -138 130 -100 197 -141 248 -155 28 -8 87 -24 133 -36 89 -25 130 -27 263 -15 60 5 88 4 93 -3 4 -7 10 -35 13 -63 4 -31 12 -53 21 -56 20 -8 33 16 29 55 -3 31 -1 33 22 27 31 -7 54 -34 48 -55 -29 -99 -30 -106 -16 -135 8 -15 26 -37 41 -48 25 -19 28 -19 52 -3 31 20 33 44 6 96 -26 52 -27 123 -1 147 22 20 108 65 212 111 90 40 143 90 169 158 11 30 31 77 45 105 14 27 30 69 34 92 5 23 17 73 27 110 19 68 19 69 -1 85 -33 27 -16 90 49 179 17 23 28 65 44 160 42 258 52 340 55 455 2 111 3 117 24 122 24 7 135 100 159 134 9 13 20 53 25 90 16 110 45 195 79 227 17 16 41 48 55 70 13 22 39 54 58 72 18 17 53 71 77 120 23 48 54 101 67 118 36 42 28 92 -29 186 l-45 74 -61 3 -60 3 -64 -59z m-1039 -1301 c6 -74 16 -139 21 -146 6 -7 25 -16 43 -20 l32 -7 -35 -16 c-19 -9 -36 -17 -37 -17 -1 0 11 -27 27 -59 39 -76 38 -86 -5 -86 -33 0 -35 -2 -46 -46 -10 -37 -21 -53 -58 -80 -25 -18 -49 -34 -53 -34 -4 0 -18 18 -30 40 -21 37 -27 40 -57 38 -33 -3 -35 -1 -51 47 l-17 50 -76 5 -76 5 -30 47 c-24 38 -44 55 -97 80 l-66 33 5 55 c7 79 51 175 87 190 26 11 38 7 122 -35 51 -25 108 -54 127 -65 42 -24 51 -19 52 28 1 35 2 33 16 -20 8 -32 19 -55 24 -52 5 3 41 53 80 111 39 58 75 101 79 97 5 -5 13 -69 19 -143z"
       id="path699"
       style="fill-opacity:1" /><path
       d="M3073 3770 c-29 -12 -39 -33 -53 -107 -9 -51 -8 -68 4 -98 9 -20 18 -58 22 -86 l7 -49 42 0 c44 0 55 8 84 59 9 16 24 43 33 59 14 25 16 39 8 87 -5 32 -17 66 -26 76 -10 11 -22 29 -28 42 -13 24 -56 32 -93 17z m4 -292 c-3 -7 -5 -2 -5 12 0 14 2 19 5 13 2 -7 2 -19 0 -25z"
       id="path701"
       style="fill-opacity:1" /><path
       d="M2589 3737 c-45 -30 -60 -85 -52 -192 6 -90 26 -126 88 -165 31 -19 44 -21 91 -15 90 11 98 24 92 162 -5 106 -7 115 -29 131 -13 9 -43 36 -66 59 -48 50 -74 54 -124 20z"
       id="path703"
       style="fill-opacity:1" /><path
       d="M3587 3539 c-9 -5 -24 -24 -33 -41 -31 -59 6 -190 49 -175 7 2 27 23 45 46 27 36 32 51 32 96 0 29 -3 60 -6 69 -7 18 -59 21 -87 5z"
       id="path705"
       style="fill-opacity:1" /><path
       d="M1215 2691 c-61 -27 -123 -139 -98 -180 13 -23 131 -81 163 -81 22 0 29 -6 33 -28 5 -22 19 -36 64 -60 35 -19 65 -43 75 -62 20 -36 63 -56 162 -77 125 -25 141 -5 105 128 -23 85 -19 80 -122 177 -4 4 -22 32 -40 62 -27 46 -42 60 -98 88 -54 28 -80 34 -145 38 -43 2 -88 0 -99 -5z"
       id="path707"
       style="fill-opacity:1" /><path
       d="M1763 2204 c-16 -43 48 -96 92 -76 25 11 25 13 10 42 -24 47 -88 69 -102 34z"
       id="path709"
       style="fill-opacity:1" /></g><g
     aria-label="DENNIS"
     id="text796"
     style="font-size:144px;line-height:1;font-family:'Dumbledor 1';-inkscape-font-specification:'Dumbledor 1, ';text-align:center;text-anchor:middle;white-space:pre;shape-padding:2.16984;fill-opacity:1"
     transform="translate(5.6360825,366.87639)"><path
       d="m 146.4163,149.00221 q -11.21931,16.1779 -28.85417,19.5212 -17.57708,3.38336 -33.754986,-7.83596 -5.200042,-3.60621 -9.785097,-8.83951 -5.349231,-6.10551 -6.310181,-11.13579 l -2.804829,4.04448 -10.613486,-7.27485 40.589876,-58.52935 q 14.892463,0.487781 26.434863,2.845041 6.29585,1.285778 16.11815,8.097504 15.36901,10.658345 17.59681,27.434045 2.16161,16.13084 -8.61695,31.67319 z m -12.36454,-8.57476 q 8.49462,-12.24899 8.56222,-24.43804 0.047,-14.25689 -12.08641,-22.67138 -8.03117,-5.569588 -16.7741,-5.300897 -9.69904,0.290159 -15.068283,8.032442 L 71.518419,135.22322 q 1.387758,5.15513 6.69692,11.31843 4.41172,5.11309 9.900652,8.91964 11.093422,7.69325 25.341729,1.83026 12.46004,-5.13512 20.59404,-16.8641 z"
       id="path1271"
       style="fill-opacity:1" /><path
       d="m 191.78944,205.08048 q -1.94503,1.78955 -3.80904,1.15596 l -51.79285,-17.6049 -1.67117,-3.16726 6.56637,-1.18415 q 2.43103,-1.25304 3.28172,-2.22636 0.29417,-0.86544 1.10485,-2.59499 l 0.11183,-0.11052 20.41082,-60.04775 q 0.97302,-2.86258 -0.74077,-6.34139 l -4.48455,-4.94046 3.25515,-1.49276 51.79285,17.60489 q 1.86401,0.6336 2.31556,3.23778 -4.7368,3.88541 -5.34777,5.68284 l -0.93958,4.73054 -3.56437,-2.62257 q -4.60719,-6.76446 -13.49467,-11.64199 l -3.23808,-1.39771 -3.3499,-1.28719 -5.57072,-1.74502 -2.75338,-0.63884 -8.80245,25.89642 34.15133,11.60837 -7.75487,6.64697 -8.89607,4.10543 q -3.27474,-10.24752 -15.54264,-15.0116 -0.26629,-0.0905 -1.50852,-0.58703 -1.30881,-0.51914 -1.97584,-0.52308 -0.64441,-0.0705 -0.7136,0.35155 l -12.80899,37.90197 2.57235,1.17143 5.48021,2.0113 3.44041,1.0209 3.41911,0.86514 q 10.0189,1.54894 17.79406,-1.00665 l 4.42425,0.0928 -2.13788,4.32323 q -0.61096,1.79744 0.77684,7.76466 z"
       id="path1273"
       style="fill-opacity:1" /><path
       d="m 302.76624,215.84878 q -0.36437,4.34412 -2.45507,4.87435 l -1.23769,-0.38606 q 0.26851,0.16364 0.92216,0.78295 -2.28235,-1.39095 -5.26399,-5.3807 l -51.83695,-70.10936 -4.00815,47.78532 q -0.53481,6.37605 2.63848,12.28697 2.13497,3.98929 7.8189,10.25192 l -23.6124,-1.98057 q 5.35856,-7.52375 5.89925,-13.96986 l 5.2247,-62.28908 -5.52166,-3.99111 q -2.32937,-0.83042 -5.58677,-2.37372 -0.86973,-0.56686 -3.99783,-3.65162 l 6.02029,-0.27118 18.91795,1.5868 50.75656,70.37154 3.9964,-47.64519 q 0.25271,-3.01285 -0.1496,-4.10499 -0.29698,-1.50666 -1.62687,-4.15835 l -7.13769,-6.59624 0.33499,-3.99379 16.74588,1.40461 z"
       id="path1275"
       style="fill-opacity:1" /><path
       d="m 412.70029,199.89914 q 0.74697,4.2949 -1.14146,5.33702 l -1.2951,-0.0602 q 0.30119,0.0904 1.09029,0.52405 -2.56008,-0.76801 -6.45443,-3.87321 l -67.8936,-54.70695 8.21663,47.24394 q 1.09636,6.3038 5.66236,11.21913 3.07513,3.31904 10.15904,7.93919 l -23.34488,4.06012 q 3.27986,-8.63501 2.17146,-15.00809 l -10.71053,-61.58337 -6.35202,-2.46366 q -2.4637,-0.21382 -6.00565,-0.88244 -0.98488,-0.32828 -4.79188,-2.52089 l 5.75565,-1.78607 18.70361,-3.25291 66.91475,55.23403 -8.19254,-47.10539 q -0.51805,-2.97872 -1.18368,-3.93348 -0.66864,-1.38244 -2.62636,-3.6112 l -8.57478,-4.57496 -0.68673,-3.94854 16.55616,-2.87943 z"
       id="path1277"
       style="fill-opacity:1" /><path
       d="m 467.29923,181.91745 -19.43162,8.20722 q 1.24312,-4.6467 0.93334,-7.1873 l -1.85468,-5.47545 -22.10477,-52.33583 q -2.57159,-6.08858 -7.10887,-7.07262 -1.42941,-0.31219 -7.92272,0.21688 -4.65514,0.3633 -6.7182,-2.3527 l 2.79807,-1.86875 23.96566,-10.12223 28.94412,68.52885 q 1.91502,4.53404 2.99764,5.8323 1.25683,1.52998 5.50203,3.62963 z"
       id="path1279"
       style="fill-opacity:1" /><path
       d="m 520.90131,116.01692 q 7.74847,10.44818 2.25204,23.10311 -4.57063,10.48019 -16.03539,18.98257 -11.06942,8.20919 -27.37676,12.42445 -2.18382,-9.67285 -2.62805,-10.74401 -0.90305,-2.04396 -6.33333,-9.48428 21.02199,10.7588 34.63286,0.66485 16.37822,-12.14625 9.0067,-22.08613 -6.11501,-8.24559 -18.62249,-4.57235 l -24.07193,9.79849 q -15.02865,4.40497 -23.07031,-6.43854 -6.45008,-8.6974 -3.33078,-21.25264 2.12755,-8.580846 5.83719,-13.257788 2.53444,-3.192632 9.48106,-8.344317 10.27875,-7.622819 23.33073,-10.561867 l 0.8371,3.843631 q 0.0851,2.475495 0.95706,5.067734 l 0.93414,1.495683 q 1.537,1.836439 2.2909,2.853018 0.54449,0.734196 0.69743,1.058463 0.33128,1.154928 -0.64399,4.679408 -13.52443,-11.154328 -27.8695,-0.515889 -6.60776,4.900383 -7.96245,10.982234 -1.45494,6.41881 3.40356,12.9701 5.1098,6.89015 16.79231,2.34057 l 24.42159,-9.44504 q 15.32185,-4.00963 23.07031,6.43854 z"
       id="path1281"
       style="fill-opacity:1" /></g></svg>
