<?xml version="1.0" encoding="UTF-8" standalone="no"?>
<svg
   version="1.0"
   width="591.000000pt"
   height="591.000000pt"
   viewBox="0 0 591.000000 591.000000"
   preserveAspectRatio="xMidYMid meet"
   id="svg14"
   sodipodi:docname="2024-06-09_Kathi_Ojo.svg"
   inkscape:export-filename="tinywow_Icon_ojo_57857208_white.png"
   inkscape:export-xdpi="300"
   inkscape:export-ydpi="300"
   inkscape:version="1.2.2 (732a01da63, 2022-12-09)"
   xml:space="preserve"
   xmlns:inkscape="http://www.inkscape.org/namespaces/inkscape"
   xmlns:sodipodi="http://sodipodi.sourceforge.net/DTD/sodipodi-0.dtd"
   xmlns="http://www.w3.org/2000/svg"
   xmlns:svg="http://www.w3.org/2000/svg"><defs
     id="defs18"><rect
       x="148.27267"
       y="634.31775"
       width="783.31372"
       height="250.25536"
       id="rect798" /></defs><sodipodi:namedview
     id="namedview16"
     pagecolor="#ffffff"
     bordercolor="#111111"
     borderopacity="1"
     inkscape:showpageshadow="0"
     inkscape:pageopacity="0"
     inkscape:pagecheckerboard="1"
     inkscape:deskcolor="#d1d1d1"
     inkscape:document-units="pt"
     showgrid="false"
     inkscape:zoom="1.4835225"
     inkscape:cx="321.86907"
     inkscape:cy="393.65767"
     inkscape:window-width="3440"
     inkscape:window-height="1417"
     inkscape:window-x="1912"
     inkscape:window-y="-8"
     inkscape:window-maximized="1"
     inkscape:current-layer="svg14" /><metadata
     id="metadata2">
Created by potrace 1.16, written by Peter Selinger 2001-2019
</metadata><g
     transform="translate(0.000000,591.000000) scale(0.100000,-0.100000)"
     fill="#000000"
     stroke="none"
     id="g12"
     style="fill-opacity:1"><path
       d="M2652 4825 c14 -13 29 -38 33 -55 7 -33 7 -33 -80 -153 -19 -27 -39 -65 -45 -85 -14 -53 -12 -203 4 -248 23 -67 105 -192 154 -235 60 -52 101 -73 199 -100 68 -19 93 -21 203 -15 69 3 152 9 186 12 138 14 233 -34 253 -127 12 -57 8 -84 -25 -150 -51 -102 -252 -238 -307 -207 -23 13 -21 35 4 43 24 8 59 61 59 89 0 19 -1 19 -23 -2 -40 -38 -91 -51 -234 -61 -148 -10 -234 -31 -334 -82 -106 -53 -226 -185 -284 -312 -23 -50 -53 -200 -56 -281 l-1 -31 -8 30 c-4 17 -8 74 -9 127 -2 197 82 340 277 472 27 18 87 47 133 66 81 32 119 55 119 71 0 4 -19 -3 -42 -16 -26 -14 -84 -30 -143 -40 -195 -33 -351 -86 -419 -141 -104 -86 -153 -145 -205 -250 -68 -140 -84 -209 -79 -349 4 -86 10 -121 27 -160 33 -74 51 -169 37 -197 -16 -32 -51 -35 -69 -6 -8 13 -17 56 -20 95 -3 57 -10 82 -31 113 -14 22 -31 40 -36 40 -6 0 -3 -11 6 -25 23 -35 13 -94 -25 -151 -53 -80 -66 -135 -65 -269 0 -112 2 -126 33 -205 45 -114 98 -166 246 -240 75 -37 126 -70 159 -103 26 -26 46 -51 43 -53 -3 -3 -31 15 -62 40 -31 26 -84 60 -117 77 l-61 31 6 -29 c10 -51 47 -140 76 -183 34 -50 161 -141 238 -170 36 -13 78 -20 128 -20 89 0 111 -8 186 -65 81 -60 141 -78 243 -73 66 4 93 11 146 37 36 18 79 46 95 61 17 16 49 33 72 39 23 7 55 22 70 35 22 18 44 24 98 28 84 6 150 33 211 87 25 22 62 45 82 52 71 23 128 58 170 103 23 25 42 48 42 50 0 3 -17 -6 -37 -20 -79 -54 -161 -86 -300 -117 -70 -16 52 52 148 82 51 16 147 76 192 119 54 52 90 106 121 185 22 56 27 83 27 160 0 160 -44 285 -169 475 -67 103 -87 156 -77 210 6 31 5 34 -9 23 -8 -7 -29 -35 -47 -62 -43 -67 -50 -151 -20 -226 20 -51 31 -70 94 -161 55 -78 43 -171 -33 -267 -21 -27 -58 -79 -80 -115 -37 -59 -41 -62 -34 -30 8 41 35 98 76 158 16 23 38 62 49 86 27 61 12 124 -47 211 -25 36 -52 84 -60 107 -20 58 -18 147 7 213 20 53 100 154 140 176 18 9 18 6 13 -49 -17 -159 101 -197 298 -95 146 75 245 207 284 378 37 160 64 226 114 276 27 26 45 50 42 53 -3 3 -21 6 -40 6 -28 0 -43 -8 -73 -40 -21 -22 -41 -40 -45 -40 -13 0 4 116 21 150 24 47 22 150 -5 222 -16 42 -35 70 -77 108 -78 71 -159 132 -222 165 -68 37 -144 125 -144 166 0 35 -19 38 -41 7 -23 -32 -20 -70 9 -112 38 -56 33 -136 -8 -136 -31 0 -102 81 -121 136 -20 62 -74 128 -151 187 -96 73 -159 97 -286 109 -102 9 -115 8 -182 -13 -40 -13 -99 -23 -134 -23 -37 -1 -59 -5 -56 -11 17 -30 39 -45 68 -45 82 0 87 -67 8 -102 -40 -18 -60 -20 -137 -15 -172 11 -259 61 -302 174 -19 50 -16 79 32 260 11 39 14 75 9 99 -7 41 -53 94 -82 94 -15 0 -14 -4 9 -25z m896 -554 c47 -24 135 -108 156 -149 24 -46 5 -39 -32 11 -48 67 -99 98 -186 110 -67 10 -83 8 -158 -12 -133 -38 -152 -36 -68 4 41 20 91 40 110 45 63 15 139 11 178 -9z m-608 -167 c109 -38 171 -40 296 -9 90 23 122 26 186 22 108 -9 139 -24 192 -97 48 -65 63 -104 71 -186 5 -47 4 -48 -6 -14 -6 19 -18 59 -25 88 -10 36 -27 65 -53 91 -56 56 -100 63 -292 48 -85 -6 -176 -11 -204 -11 -61 1 -177 36 -227 70 -39 25 -51 42 -20 28 9 -4 46 -18 82 -30z m1182 -358 c39 -54 62 -135 53 -189 -4 -23 -21 -76 -38 -117 -52 -128 -149 -214 -367 -325 -199 -102 -310 -263 -310 -451 0 -49 5 -69 25 -98 62 -91 73 -157 41 -243 -21 -58 -5 -54 28 7 15 28 31 48 36 45 14 -8 30 -75 30 -120 -1 -22 -14 -73 -30 -114 -16 -41 -26 -70 -21 -65 4 5 18 23 31 39 l23 30 -6 -75 c-13 -152 -80 -326 -163 -421 -54 -62 -180 -166 -233 -194 -142 -73 -337 -95 -491 -56 -161 41 -300 144 -407 303 -84 125 -113 224 -113 378 0 55 -6 101 -15 123 -12 28 -14 61 -9 154 5 93 3 131 -10 182 -10 35 -15 66 -12 69 3 2 16 -17 28 -44 20 -44 22 -65 23 -204 0 -133 3 -161 20 -199 l20 -43 0 113 c0 93 4 126 23 178 23 63 77 145 125 189 l25 24 22 -61 c13 -34 24 -61 25 -61 1 0 1 87 1 193 -1 182 1 197 28 292 55 192 128 292 260 354 73 35 136 53 136 40 0 -5 -7 -9 -16 -9 -33 0 -161 -76 -209 -126 -68 -68 -122 -181 -147 -306 -21 -105 -19 -209 6 -243 11 -16 15 -15 47 7 19 12 59 34 89 48 30 13 57 25 59 27 2 1 9 40 16 86 18 120 61 205 147 290 81 80 105 83 31 4 -67 -70 -89 -117 -108 -222 -17 -98 -12 -201 12 -279 14 -45 17 -48 29 -31 8 11 14 44 14 80 0 63 36 188 77 270 11 22 28 64 37 93 10 28 22 52 28 52 17 0 -2 -100 -38 -194 -19 -48 -34 -104 -33 -125 0 -47 20 -103 38 -109 8 -3 11 0 7 6 -12 20 24 120 67 184 49 74 60 62 18 -19 -35 -66 -37 -78 -16 -87 10 -4 15 -20 16 -53 0 -26 6 -66 13 -88 l12 -40 13 65 c22 113 95 244 185 329 58 56 52 28 -9 -45 -80 -94 -99 -139 -89 -217 l7 -62 11 44 c7 25 17 46 24 49 16 5 77 -33 102 -65 11 -14 20 -39 20 -55 0 -15 9 -54 20 -85 11 -32 21 -82 22 -113 1 -45 2 -48 5 -15 2 22 10 70 18 107 8 37 15 100 15 141 0 114 38 224 115 332 65 91 119 130 247 179 35 13 87 38 114 56 42 27 45 31 19 25 -69 -15 -143 -25 -194 -25 -42 0 -67 -7 -109 -31 -30 -17 -56 -28 -58 -26 -2 2 5 16 16 30 34 43 114 74 209 81 196 15 324 146 308 316 -7 78 -31 124 -99 193 l-57 58 71 -38 c47 -24 81 -50 100 -77z m-294 -112 c3 -42 -1 -77 -13 -113 -26 -81 -95 -135 -357 -281 -74 -41 -172 -135 -216 -205 -41 -65 -43 -30 -3 40 60 104 154 186 338 294 160 95 213 170 213 305 1 80 1 81 17 52 8 -17 18 -58 21 -92z m458 -17 c9 -29 18 -96 21 -150 6 -97 6 -98 -31 -172 -29 -59 -49 -84 -90 -115 -29 -22 -56 -40 -59 -40 -4 0 19 31 51 69 64 76 76 106 93 226 12 84 14 75 -36 255 l-7 25 21 -23 c12 -13 28 -47 37 -75z m-2048 -522 c-16 -64 -19 -101 -16 -185 5 -101 19 -159 82 -325 l8 -20 -17 20 c-10 11 -36 58 -59 105 l-41 85 1 130 c0 126 6 158 41 244 23 54 24 31 1 -54z m-29 -435 c0 -10 -3 -8 -9 5 -12 27 -12 43 0 25 5 -8 9 -22 9 -30z m40 -174 c1 -80 -5 -68 -12 24 -3 44 -2 67 3 55 5 -11 9 -47 9 -79z"
       id="path4"
       style="fill-opacity:1" /><path
       d="M2742 2442 c-107 -38 -209 -125 -260 -219 -64 -120 -66 -261 -5 -415 23 -59 41 -85 98 -142 73 -72 137 -109 250 -141 137 -40 306 7 410 114 97 100 123 156 145 317 12 79 11 96 -4 149 -36 124 -159 260 -293 322 -51 24 -73 28 -173 30 -92 3 -125 0 -168 -15z m159 -132 c5 0 10 10 10 23 2 22 2 22 6 -1 4 -22 5 -23 18 -5 13 17 14 16 15 -12 l2 -30 10 27 c8 24 13 26 29 18 14 -8 19 -7 20 2 0 9 2 9 5 1 3 -6 -2 -28 -10 -50 -17 -41 -18 -41 30 22 l15 20 -6 -20 c-4 -11 -9 -27 -12 -35 -3 -8 5 0 18 19 31 46 38 21 9 -33 -18 -34 -19 -37 -2 -17 12 15 32 25 57 27 35 3 36 2 23 -14 -27 -31 -31 -47 -7 -26 38 34 55 19 24 -22 -29 -38 -25 -43 13 -16 48 33 58 37 38 13 -20 -22 -20 -22 0 -16 12 4 6 -5 -16 -24 -36 -31 -24 -44 15 -17 11 7 31 17 45 20 24 7 24 7 -5 -18 -29 -26 -29 -26 -4 -17 14 5 32 5 39 1 10 -6 -4 -17 -48 -36 -34 -15 -61 -28 -59 -30 2 -2 27 3 56 12 69 20 100 13 41 -9 l-45 -17 45 5 c41 4 43 3 18 -7 -34 -14 -35 -22 -5 -36 l22 -11 -25 -1 c-23 -1 -23 -2 -5 -10 17 -7 14 -9 -15 -10 l-35 -2 33 -8 c44 -10 50 -18 21 -29 -23 -9 -23 -10 -2 -10 12 -1 25 -6 28 -11 5 -7 -11 -9 -47 -6 l-53 6 45 -14 c41 -13 42 -14 15 -15 l-30 -2 35 -19 c42 -23 32 -25 -35 -5 -45 13 -48 13 -30 -1 11 -8 30 -17 43 -21 12 -3 22 -9 22 -14 0 -11 -2 -11 -37 1 l-28 10 25 -21 c14 -11 18 -19 10 -16 -67 20 -67 20 -35 -9 30 -26 28 -26 -25 -7 -12 5 -13 3 -2 -8 16 -17 16 -37 0 -21 -27 27 -30 10 -3 -18 33 -34 26 -40 -12 -10 -14 11 -30 20 -36 20 -6 0 -2 -9 8 -20 25 -27 7 -25 -23 3 -26 22 -21 7 6 -25 17 -20 3 -25 -17 -5 -9 8 -7 -1 3 -23 l17 -35 -41 45 -42 45 25 -47 c14 -27 21 -48 16 -48 -5 0 -9 3 -9 8 0 4 -12 21 -26 37 l-25 30 22 -42 c12 -24 20 -46 16 -50 -4 -3 -7 -1 -7 5 0 7 -6 12 -12 12 -7 0 -22 13 -33 29 -11 17 -21 29 -22 27 -1 -1 4 -25 11 -54 8 -29 10 -52 5 -52 -5 0 -9 10 -9 23 -1 12 -7 36 -15 52 l-15 30 5 -32 c3 -18 7 -48 10 -65 5 -33 5 -33 -15 7 l-19 40 -2 -40 c-1 -38 -2 -37 -9 13 -11 72 -20 77 -21 11 -2 -53 -2 -53 -9 -14 -6 36 -7 37 -13 15 -3 -14 -8 -36 -10 -50 -3 -21 -5 -18 -16 19 -7 24 -10 60 -7 80 l5 36 -14 -40 c-7 -22 -14 -48 -14 -57 -2 -35 -21 -17 -22 20 l-1 37 -14 -32 c-8 -18 -17 -33 -20 -33 -3 0 -3 15 1 33 l6 32 -20 -35 -20 -35 3 59 4 58 -33 -36 c-17 -20 -35 -36 -39 -36 -9 0 31 77 44 85 5 3 10 12 10 18 0 7 -12 -3 -27 -22 -23 -29 -27 -31 -35 -16 -7 12 -5 23 9 38 12 14 7 12 -16 -6 -18 -15 -36 -25 -39 -23 -3 3 6 14 19 25 13 11 19 20 12 21 -6 0 -15 -4 -18 -10 -3 -5 -14 -10 -23 -10 -13 1 -10 6 11 25 15 14 24 25 18 25 -5 0 -13 -4 -16 -10 -3 -5 -14 -10 -23 -10 -11 0 -6 8 16 21 35 23 44 36 12 19 -14 -8 -20 -8 -20 0 0 6 7 13 15 16 8 4 15 10 15 15 0 5 -12 3 -27 -4 -16 -8 -39 -18 -53 -21 l-25 -7 24 20 c24 21 22 24 -14 22 -13 0 -6 6 17 18 49 23 55 30 23 23 -20 -3 -24 -1 -19 12 5 12 0 16 -22 17 -25 0 -26 1 -9 9 11 5 34 9 50 10 26 0 27 2 12 11 -9 6 -15 14 -12 20 4 5 -4 10 -17 10 -19 1 -18 3 7 9 27 7 25 8 -18 9 -53 1 -57 20 -4 22 l32 1 -35 12 c-34 13 -34 14 -10 18 25 5 25 5 -2 7 -16 0 -28 5 -28 9 0 4 17 7 38 5 20 -2 31 0 25 3 -22 10 -14 22 10 17 21 -4 21 -3 -3 11 l-25 15 25 1 c14 1 19 4 13 7 -7 2 -13 9 -13 14 0 6 4 8 9 5 21 -13 3 28 -20 44 -41 31 -16 31 31 0 48 -32 64 -32 35 0 -26 29 -13 34 21 8 l29 -23 -24 40 -24 40 29 -25 c25 -22 26 -22 10 -2 -22 25 -15 42 10 21 23 -19 44 -20 37 -1 -4 10 -2 13 6 8 8 -5 7 5 -4 30 l-16 39 32 -30 31 -30 -16 39 c-19 47 -14 60 8 19 13 -23 15 -25 16 -8 1 18 2 17 15 -5 14 -25 14 -25 8 9 -4 24 -3 32 5 27 6 -4 14 -23 18 -42 8 -41 23 -28 25 21 2 30 2 30 9 -5 l7 -35 2 41 c1 55 15 66 19 15 2 -23 7 -41 13 -41z m-181 -29 c0 -3 -4 -12 -8 -19 -7 -10 -12 -8 -25 5 -14 17 -14 18 9 19 13 1 24 -1 24 -5z m460 -15 c0 -3 -4 -8 -10 -11 -5 -3 -10 -1 -10 4 0 6 5 11 10 11 6 0 10 -2 10 -4z"
       id="path6"
       style="fill-opacity:1" /><path
       d="M2849 2156 c-84 -30 -123 -80 -122 -153 3 -99 31 -146 105 -178 83 -34 161 -10 213 65 41 58 48 97 30 158 -18 58 -44 84 -109 106 -59 19 -70 19 -117 2z m49 -42 c2 -1 1 -17 -3 -35 -7 -31 -88 -118 -111 -119 -17 0 -34 47 -28 79 7 33 48 77 79 84 18 4 55 -1 63 -9z"
       id="path8"
       style="fill-opacity:1" /><path
       d="M3197 3641 c-21 -22 -59 -31 -131 -31 -73 -1 -135 -15 -154 -35 -16 -16 -16 -17 3 -11 11 3 73 8 137 10 130 5 168 19 168 62 0 28 0 28 -23 5z"
       id="path10"
       style="fill-opacity:1" /></g><g
     aria-label="KATHI"
     id="text796"
     style="font-size:144px;line-height:1;font-family:'Dumbledor 1';-inkscape-font-specification:'Dumbledor 1, ';text-align:center;text-anchor:middle;white-space:pre;shape-padding:2.16984;fill-opacity:1"
     transform="translate(-2.469452,368.96599)"><path
       d="m 164.34598,192.84936 q -10.8387,-2.05435 -19.11747,-1.72691 l -6.73633,0.26584 q -5.06645,-7.27859 -5.91764,-16.07171 -0.18269,-1.76518 -0.32747,-24.57081 -0.0565,-6.22865 -2.96566,-11.41707 -1.39406,-2.48284 -6.60495,-8.88384 -1.59404,-1.95241 -6.02687,-5.003 l -15.99307,30.35736 q -2.130228,4.0435 -2.425787,6.11304 -0.393876,2.25616 0.426362,6.58248 l -18.662311,-9.83181 q 4.415222,-2.04497 6.217116,-3.95672 l 3.060607,-4.9044 29.560963,-56.111345 q 1.73696,-3.297008 -4.6568,-16.202199 l 21.71049,11.437669 -16.3208,30.979435 q 0.83813,0.52103 1.77125,1.01262 5.78532,3.04786 13.57918,3.33916 4.84005,0.16567 12.37021,-3.4172 8.38831,-4.00497 11.10844,-9.16821 3.2445,-6.15856 -3.20447,-12.019726 l 22.48975,11.768736 q -7.11866,6.42227 -15.79252,12.02522 -11.09783,7.18698 -17.30373,7.65279 -8.19047,0.61238 -12.98774,-0.0871 7.29712,5.91062 9.60125,17.37655 0.33987,1.76852 1.88174,19.50862 0.90613,10.64994 4.72963,14.25373 1.26631,2.57448 5.76469,5.50066 3.13314,2.04799 7.46492,3.93272 4.39399,1.91751 3.30702,1.26539 z"
       id="path738"
       style="fill-opacity:1" /><path
       d="m 259.87,219.95336 -23.23604,-4.64263 q -0.69093,-7.66678 -3.80962,-19.69056 l -4.48485,-17.3876 q -10.10765,-0.0119 -28.03246,7.52055 -19.88275,8.36015 -21.49458,16.42727 -0.15154,0.75844 -0.0135,1.50305 l -4.84025,-0.8954 -11.63873,-2.39715 q 5.1844,-2.26245 24.56766,-26.7837 7.66509,-9.65405 29.17134,-37.26454 0.27566,-0.66194 0.41343,-1.35144 0.82658,-4.13698 -2.91116,-8.3972 -2.12394,-1.93012 -4.16515,-3.91541 l 13.50016,1.69354 q 6.08128,0.78484 7.15754,4.36989 3.55994,11.96854 8.43182,34.23752 5.13412,23.46861 8.12848,34.32031 2.3734,8.57657 4.96669,13.18174 3.11746,5.57034 8.28923,9.47176 z m -32.75858,-45.98149 -8.25144,-28.32189 -30.93621,38.20255 q 5.51496,-4.27577 19.31765,-6.96732 2.90946,-0.56592 19.87,-2.91334 z"
       id="path740"
       style="fill-opacity:1" /><path
       d="m 350.28811,130.83067 -6.12021,4.45335 q -3.3381,2.44188 -5.01626,7.67124 l -1.37976,6.34993 q -5.8648,-6.45026 -8.63244,-8.09569 -4.04492,-2.39945 -11.42688,-2.28671 l -9.20986,0.14065 1.02321,67 q 0.0752,4.9213 0.59198,6.53078 0.59142,1.88963 3.73957,5.42791 l -21.09129,0.3221 q 2.8948,-3.84153 3.56026,-6.31292 l 0.33379,-5.77139 -0.86752,-56.80588 q -0.0999,-6.5383 -3.93816,-9.22219 -0.4975,-0.344 -1.91217,-0.88496 l -11.45961,0.175 q -8.78803,0.13421 -13.81451,2.53156 l -12.67621,7.99918 8.4531,-12.85714 q 3.71161,-5.61201 3.61657,-16.43995 3.96873,6.61986 9.0693,9.07351 4.53275,2.11072 12.75836,1.9851 z"
       id="path742"
       style="fill-opacity:1" /><path
       d="m 465.55502,185.29433 -20.06609,6.5037 q 1.63858,-4.52241 1.54869,-7.08025 l -1.37636,-5.6148 -12.22697,-37.72426 q -17.77448,9.01316 -25.20945,28.71869 -5.68429,15.07287 -3.96633,30.40744 1.2579,1.14448 4.44258,3.21665 l -20.06609,6.5037 q 1.63858,-4.52241 1.54869,-7.08025 l -1.37636,-5.6148 -17.51665,-54.04468 q -2.01615,-6.22049 -6.47353,-7.65841 l -0.61441,-0.98348 q -0.70483,-0.80634 -3.28435,-0.78333 -4.66914,-0.0388 -6.49069,-2.92239 l 2.94857,-1.6209 20.73497,-6.72049 18.12366,55.91751 q 8.8348,-32.94626 35.72521,-41.88357 l -3.8155,-11.77211 q -0.26015,-0.80264 -0.69188,-2.36272 -0.45341,-1.62697 -0.71356,-2.42961 -3.12178,-9.63173 -10.54572,-9.96032 l 18.77172,-5.93636 22.9364,70.76642 q 1.51754,4.68209 2.48436,6.06874 1.12043,1.63252 5.16909,4.08988 z"
       id="path744"
       style="fill-opacity:1" /><path
       d="m 515.94412,151.95562 -17.43285,11.87611 q 0.3029,-4.80057 -0.50155,-7.23027 l -2.89748,-5.0025 -31.98632,-46.95248 q -3.72118,-5.462298 -8.3634,-5.532759 -1.46291,-0.02433 -7.72457,1.774149 -4.49222,1.27368 -7.05013,-0.982421 l 2.37487,-2.383576 21.50052,-14.6472 41.88307,61.479857 q 2.77109,4.06767 4.08836,5.12708 1.53373,1.25226 6.10948,2.47401 z"
       id="path746"
       style="fill-opacity:1" /></g></svg>
