<?xml version="1.0" encoding="UTF-8" standalone="no"?>
<svg
   version="1.0"
   width="591pt"
   height="591pt"
   viewBox="0 0 591 591"
   preserveAspectRatio="xMidYMid"
   id="svg26"
   sodipodi:docname="2024-06-09_Alex_Vortox.svg"
   xml:space="preserve"
   inkscape:version="1.2.2 (732a01da63, 2022-12-09)"
   xmlns:inkscape="http://www.inkscape.org/namespaces/inkscape"
   xmlns:sodipodi="http://sodipodi.sourceforge.net/DTD/sodipodi-0.dtd"
   xmlns="http://www.w3.org/2000/svg"
   xmlns:svg="http://www.w3.org/2000/svg"><defs
     id="defs30"><rect
       x="148.27267"
       y="634.31775"
       width="783.31372"
       height="250.25536"
       id="rect798" /></defs><sodipodi:namedview
     id="namedview28"
     pagecolor="#ffffff"
     bordercolor="#111111"
     borderopacity="1"
     inkscape:showpageshadow="0"
     inkscape:pageopacity="0"
     inkscape:pagecheckerboard="1"
     inkscape:deskcolor="#d1d1d1"
     inkscape:document-units="pt"
     showgrid="false"
     inkscape:zoom="1.3825878"
     inkscape:cx="569.22245"
     inkscape:cy="394.18836"
     inkscape:window-width="3440"
     inkscape:window-height="1417"
     inkscape:window-x="1912"
     inkscape:window-y="-8"
     inkscape:window-maximized="1"
     inkscape:current-layer="svg26" /><metadata
     id="metadata2">
Created by potrace 1.16, written by Peter Selinger 2001-2019
</metadata><g
     transform="matrix(0.1,0,0,-0.1,0,591)"
     fill="#000000"
     stroke="none"
     id="g24"><path
       d="m 3685,4044 c -167,-14 -404,-57 -565,-103 -231,-65 -321,-88 -404,-101 -158,-25 -363,-40 -561,-40 -249,-1 -399,-13 -452,-36 l -38,-17 40,-13 c 48,-15 112,-18 120,-5 3,6 -14,11 -37,13 l -43,3 60,14 c 89,20 361,19 530,-3 106,-14 175,-17 285,-13 181,8 316,34 647,126 284,79 341,89 561,97 177,6 253,-7 376,-66 171,-81 181,-193 32,-348 -129,-135 -376,-271 -703,-387 -135,-48 -351,-112 -437,-129 -93,-19 -339,-52 -491,-66 -495,-44 -865,-133 -974,-233 -37,-34 -111,-134 -111,-149 0,-27 61,-97 103,-117 24,-12 59,-21 78,-21 l 34,1 -38,32 c -20,18 -37,40 -37,50 0,44 82,115 156,136 21,6 109,20 194,30 157,20 259,29 630,56 553,41 883,95 1210,196 171,52 366,142 485,222 131,88 258,245 295,366 51,164 -2,354 -122,438 l -41,28 -176,1 c -129,1 -193,5 -241,18 -65,16 -270,28 -365,20 z m 746,-104 c 75,-21 113,-95 113,-220 0,-60 -5,-86 -26,-133 -32,-67 -111,-155 -188,-206 -86,-58 -87,-59 -66,-26 44,67 57,96 75,166 11,41 29,94 40,119 43,94 20,203 -60,274 l -39,36 h 57 c 32,0 74,-5 94,-10 z"
       id="path4" /><path
       d="m 4108,3843 c -21,-2 -38,-8 -38,-13 0,-4 11,-28 25,-51 14,-24 25,-52 25,-62 0,-11 5,-15 11,-11 7,4 9,24 6,50 -5,50 2,53 58,30 29,-13 35,-20 35,-46 0,-17 -6,-46 -14,-64 -82,-197 -643,-419 -1151,-456 -282,-20 -512,-63 -647,-120 -83,-34 -105,-47 -97,-54 3,-3 48,-10 101,-17 127,-15 453,2 598,31 104,21 365,104 615,195 390,142 599,279 640,417 34,118 -31,185 -167,171 z"
       id="path6" /><path
       d="m 3738,3834 c -5,-4 -8,-13 -8,-21 0,-10 5,-11 19,-3 31,16 49,12 67,-15 14,-22 15,-31 4,-70 -7,-25 -17,-45 -22,-45 -6,0 -26,13 -44,30 -84,73 -180,100 -359,100 -183,0 -295,-18 -671,-104 -181,-42 -338,-78 -349,-81 -11,-2 -138,-22 -282,-44 -143,-22 -285,-49 -315,-58 -50,-17 -55,-22 -85,-82 -42,-83 -43,-121 -2,-155 40,-34 72,-36 41,-3 -12,13 -22,31 -22,41 0,17 2,17 35,-2 18,-12 91,-41 160,-66 l 126,-46 241,26 c 133,14 260,29 282,34 37,7 34,8 -34,10 l -75,2 75,16 75,17 -150,7 c -168,8 -248,24 -253,50 -8,43 313,166 563,214 120,24 166,28 325,28 168,1 191,-1 252,-22 71,-25 148,-74 148,-95 0,-16 -90,-71 -157,-97 -27,-10 -84,-25 -127,-33 -75,-14 -77,-14 -60,4 22,24 14,24 -47,-2 -50,-22 -60,-35 -35,-45 45,-17 676,121 703,154 22,26 143,279 143,297 0,28 -142,79 -162,59 z"
       id="path8" /><path
       d="m 1915,3668 c -240,-14 -383,-53 -552,-150 -92,-53 -248,-179 -268,-218 -33,-64 -12,-123 59,-165 70,-41 120,-54 299,-76 144,-18 210,-20 412,-17 l 240,4 170,56 c 94,31 220,68 280,81 137,32 117,32 -209,6 -305,-24 -604,-22 -692,5 -100,31 -184,111 -184,177 0,66 172,175 345,219 45,12 145,25 230,31 179,12 287,25 346,42 39,12 21,13 -161,13 -113,-1 -254,-4 -315,-8 z"
       id="path10" /><path
       d="m 1533,2990 c 21,-18 49,-50 63,-71 23,-37 25,-38 91,-41 48,-2 67,-7 66,-15 -4,-18 1,-17 160,23 137,34 460,94 515,94 20,1 23,3 12,9 -8,5 -215,11 -460,14 -245,2 -454,8 -465,12 -11,4 -3,-7 18,-25 z"
       id="path12" /><path
       d="m 4065,2989 c -42,-24 -141,-58 -402,-140 -29,-9 -31,-13 -30,-52 1,-30 -9,-64 -35,-119 -20,-43 -40,-78 -43,-78 -3,0 -3,28 1,63 4,37 1,79 -5,105 -12,42 -13,43 -49,40 l -37,-3 -5,-70 c -7,-85 -40,-151 -108,-218 -29,-28 -119,-86 -237,-153 -422,-239 -468,-270 -520,-365 -27,-48 -30,-63 -30,-139 0,-123 28,-176 159,-302 55,-54 95,-98 88,-98 -26,0 -139,58 -176,90 -82,72 -105,134 -107,290 -2,149 29,208 157,296 69,48 56,53 -64,25 -65,-15 -97,-18 -120,-12 -46,14 -43,-12 8,-59 l 40,-37 -27,-12 c -16,-6 -55,-18 -87,-26 -33,-9 -90,-32 -129,-52 -84,-44 -122,-94 -122,-159 0,-52 20,-81 106,-151 99,-82 124,-83 97,-5 -9,26 -20,65 -24,87 -9,55 -13,59 -35,39 -19,-17 -27,-50 -10,-39 6,3 15,-11 20,-32 14,-50 14,-53 -5,-46 -20,8 -64,99 -64,134 0,45 47,123 87,146 44,24 150,59 158,51 3,-2 -18,-49 -47,-104 -50,-93 -53,-104 -53,-169 1,-115 54,-190 158,-220 61,-17 214,-50 275,-59 l 42,-6 v 57 c 0,47 9,79 48,168 39,90 54,115 88,140 54,42 183,81 316,98 155,20 188,49 199,171 5,64 12,82 73,187 70,121 82,170 43,177 -22,4 -154,-56 -161,-74 -6,-16 8,-59 22,-68 10,-6 52,21 52,35 0,5 -9,9 -20,9 -11,0 -20,7 -20,15 0,11 12,15 45,15 h 45 l -14,-35 c -40,-95 -122,-158 -282,-216 -211,-76 -390,-216 -456,-354 -29,-62 -33,-80 -33,-152 0,-45 -3,-79 -6,-75 -18,21 -42,106 -46,169 -5,64 -3,78 20,125 57,117 228,297 362,383 30,19 96,55 146,80 256,129 367,212 595,447 168,174 224,241 224,269 0,24 -4,23 -65,-12 z m -610,-969 c -12,-19 -71,-44 -210,-87 -191,-60 -185,-58 -150,-33 58,41 147,81 233,105 95,26 137,31 127,15 z"
       id="path14" /><path
       d="m 3230,2764 c -188,-26 -539,-54 -760,-60 l -224,-7 28,-21 c 16,-12 44,-35 63,-53 45,-42 138,-63 303,-70 132,-6 404,11 480,29 100,24 207,93 260,169 l 21,29 -38,-1 c -21,-1 -81,-8 -133,-15 z"
       id="path16" /><path
       d="m 1918,2670 c -122,-21 -208,-69 -208,-117 0,-15 12,-36 30,-53 60,-56 200,-69 735,-70 426,0 532,8 664,51 77,24 121,46 179,88 59,43 53,57 -10,22 -145,-80 -350,-105 -743,-90 -253,9 -387,26 -466,60 -64,28 -83,50 -76,89 6,29 5,30 -26,29 -17,-1 -53,-5 -79,-9 z"
       id="path18" /><path
       d="m 2390,2397 c 0,-19 45,-52 102,-74 33,-13 78,-17 198,-17 l 155,-1 125,43 c 145,51 171,67 90,58 -183,-21 -268,-24 -425,-16 -93,5 -187,12 -207,16 -31,5 -38,4 -38,-9 z"
       id="path20" /><path
       d="m 2276,2377 c -13,-18 -13,-30 -5,-62 31,-112 182,-161 369,-120 36,8 81,15 100,15 34,0 188,76 177,87 -3,2 -32,-1 -64,-8 -32,-7 -110,-13 -173,-13 -133,0 -229,24 -314,78 -28,18 -56,35 -63,39 -7,5 -18,-2 -27,-16 z"
       id="path22" /></g><g
     aria-label="ALEX"
     id="text796"
     style="font-size:144px;line-height:1;font-family:'Dumbledor 1';-inkscape-font-specification:'Dumbledor 1, ';text-align:center;white-space:pre;shape-padding:2.16984;fill-opacity:1"
     transform="translate(-3.727556,366.20642)"><path
       d="m 220.77848,215.42237 -22.64719,-6.9694 q 0.0882,-7.69734 -1.79814,-19.97493 l -2.7029,-17.7521 q -10.05459,-1.03432 -28.64944,4.64616 -20.62648,6.30591 -23.04612,14.16858 -0.22749,0.73923 -0.16549,1.49397 l -4.72484,-1.38044 -11.33652,-3.56225 q 5.38667,-1.72638 27.1511,-24.161 8.60238,-8.82911 32.79142,-34.12236 0.34122,-0.63066 0.54802,-1.30269 1.24085,-4.03214 -2.04675,-8.64862 -1.91779,-2.13507 -3.74769,-4.31667 l 13.25958,3.05055 q 5.97069,1.39601 6.67876,5.07153 2.33092,12.26727 4.92505,34.91486 2.73366,23.8676 4.61489,34.96654 1.49361,8.77267 3.60773,13.61656 2.53797,5.85712 7.28853,10.26171 z m -27.93898,-49.0595 -5.34403,-29.01134 -34.64212,34.87703 q 5.9192,-3.69593 19.92337,-4.97738 2.95178,-0.26869 20.06278,-0.88831 z"
       style="text-anchor:middle;fill-opacity:1"
       id="path388" /><path
       d="m 295.40061,202.09775 q -8.65498,12.14862 -9.40793,21.6109 -6.23159,-5.01009 -26.37558,-6.26033 l -26.6736,-1.62876 q 4.54808,-4.85766 5.3518,-6.98029 l 0.87789,-5.71399 4.4786,-56.28303 q 0.36253,-4.55591 -1.5991,-9.1557 -2.68002,-6.20871 -8.76511,-9.51431 l 24.60192,1.95765 -6.26335,78.71214 q 0.19354,0.227 1.4918,0.75352 2.52644,1.04745 6.52163,1.36536 19.55537,1.55608 35.76103,-8.86316 z"
       style="text-anchor:middle;fill-opacity:1"
       id="path390" /><path
       d="m 359.41017,212.64061 q -1.08599,2.40963 -3.04907,2.55895 l -54.54554,4.14914 -2.78073,-2.25653 5.57381,-3.6677 q 1.74364,-2.10707 2.14375,-3.33627 -0.0693,-0.91143 -0.003,-2.8204 l 0.0594,-0.14555 -4.81044,-63.23918 q -0.22932,-3.01473 -3.1716,-5.54103 l -6.06445,-2.78241 2.40741,-2.65117 54.54555,-4.14914 q 1.96308,-0.14933 3.40105,2.06831 -2.83041,5.43346 -2.68642,7.32643 l 0.99364,4.71947 -4.30792,-1.0121 q -6.89355,-4.41172 -16.98249,-5.40717 l -3.52683,-0.0138 -3.58627,0.13177 -5.80846,0.58286 -2.78307,0.49377 2.07457,27.27277 35.96641,-2.73587 -4.5215,9.15839 -6.56913,7.2692 q -7.03598,-8.13821 -20.1892,-7.70181 -0.28044,0.0213 -1.61787,0.0525 -1.40753,0.0366 -2.02252,0.29488 -0.62032,0.18822 -0.51821,0.60355 l 3.10463,39.88723 2.82573,0.0671 5.82979,-0.30242 3.56494,-0.41221 3.48417,-0.54709 q 9.82228,-2.51005 15.96919,-7.91372 l 4.10527,-1.65208 -0.26834,4.81548 q 0.144,1.89297 3.7637,6.83578 z"
       style="text-anchor:middle;fill-opacity:1"
       id="path392" /><path
       d="m 465.25948,185.74949 -18.24732,6.19058 q -14.11953,-12.10129 -20.36989,-17.11859 -10.38878,-8.27285 -21.68124,-15.44555 -5.6656,18.56108 -6.86469,23.59329 -2.96569,12.68103 -2.85002,24.37898 l -17.37649,5.91276 q 2.6365,-13.01882 9.11706,-29.25676 l 11.44434,-28.67077 -15.05159,-12.24675 q -10.47427,-8.5408 -16.10109,-6.74564 -2.4115,0.76936 -5.90914,2.9923 l -5.58283,3.55242 q 8.08788,-13.28193 15.05443,-15.50451 6.43065,-2.05162 16.27941,4.99124 2.81881,2.12667 15.08733,11.2021 2.51205,-8.55088 6.47104,-20.66315 4.16856,-12.84337 12.34085,-15.45063 5.89477,-1.88065 11.69095,-1.2943 -0.0233,5.24754 -1.65434,11.00798 -5.23605,-0.91265 -8.78631,0.22001 -4.55505,1.45323 -7.04825,6.82451 -1.66926,3.55852 -3.48433,11.51801 -1.74809,7.93812 -3.59694,11.62775 z"
       style="text-anchor:middle;fill-opacity:1"
       id="path394" /></g></svg>
