<?xml version="1.0" encoding="UTF-8"?>
<!-- Created with Inkscape (http://www.inkscape.org/) -->
<svg width="676.41" height="161.24" version="1.1" viewBox="0 0 676.41 161.24" xmlns="http://www.w3.org/2000/svg">
 <defs>
  <clipPath id="clipPath3">
   <path transform="translate(0 -2.5e-5)" d="m87 1560v1061h2124v-1061z"/>
  </clipPath>
  <clipPath id="clipPath5">
   <path transform="translate(0 -2.5e-5)" d="m87 1560v1061h2124v-1061z"/>
  </clipPath>
  <clipPath id="clipPath7">
   <path transform="translate(0 -2.5e-5)" d="m87 1560v1061h2124v-1061z"/>
  </clipPath>
  <clipPath id="clipPath9">
   <path transform="translate(0 -2.5e-5)" d="m87 1560v1061h2124v-1061z"/>
  </clipPath>
  <clipPath id="clipPath11">
   <path transform="translate(0 -2.5e-5)" d="m87 1560v1061h2124v-1061z"/>
  </clipPath>
  <clipPath id="clipPath13">
   <path transform="translate(0 -2.5e-5)" d="m87 1560v1061h2124v-1061z"/>
  </clipPath>
  <clipPath id="clipPath15">
   <path transform="translate(0 -2.5e-5)" d="m87 1560v1061h2124v-1061z"/>
  </clipPath>
  <clipPath id="clipPath17">
   <path transform="translate(0 -2.5e-5)" d="m87 1560v1061h2124v-1061z"/>
  </clipPath>
  <clipPath id="clipPath19">
   <path transform="translate(0 -2.5e-5)" d="m87 1560v1061h2124v-1061z"/>
  </clipPath>
  <clipPath id="clipPath21">
   <path transform="translate(0 -2.5e-5)" d="m87 1560v1061h2124v-1061z"/>
  </clipPath>
  <clipPath id="clipPath23">
   <path transform="translate(0 -2.5e-5)" d="m87 1560v1061h2124v-1061z"/>
  </clipPath>
  <clipPath id="clipPath25">
   <path transform="translate(0 -2.5e-5)" d="m87 1560v1061h2124v-1061z"/>
  </clipPath>
  <clipPath id="clipPath27">
   <path transform="translate(0 -2.5e-5)" d="m87 1560v1061h2124v-1061z"/>
  </clipPath>
  <clipPath id="clipPath29">
   <path transform="translate(0 -2.5e-5)" d="m87 1560v1061h2124v-1061z"/>
  </clipPath>
  <clipPath id="clipPath31">
   <path transform="translate(0 -2.5e-5)" d="m87 1560v1061h2124v-1061z"/>
  </clipPath>
  <clipPath id="clipPath33">
   <path transform="translate(0 -2.5e-5)" d="m87 1560v1061h2124v-1061z"/>
  </clipPath>
  <clipPath id="clipPath35">
   <path transform="translate(0 -2.5e-5)" d="m87 1560v1061h2124v-1061z"/>
  </clipPath>
 </defs>
 <g transform="translate(-58.205 -187.55)">
  <g>
   <g fill="#122a54">
    <path transform="matrix(.13333 0 0 -.13333 0 559.37)" d="m784.63 2298.2c2.426 8.62-4.488 18.3-14.363 18.3h-76.164c-6.036 0-12.024-3.9-14.219-10.79l-58.539-201.42c-0.852-2.13-2.637-5.47-7.137-5.47-4.426 0-6.543 3.28-7.195 5.56l-56.828 200.59c-1.621 5.94-6.344 11.5-14.032 11.5l-4e-3 0.03-84.437-0.04c-8.004 0-15.172-5.36-15.172-16.42 0-5.51 112.4-350.55 113.31-352.62 1.523-3.43 5.574-8.98 13.625-8.98l97.269-0.02c5.969 0 11.594 3.55 14.02 10.11l109.87 349.67" clip-path="url(#clipPath3)"/>
    <path transform="matrix(.13333 0 0 -.13333 0 559.37)" d="m1150.3 1953.6v227.2c0 52.34-7.88 79.49-25.68 104.55-18.03 25.41-57.24 44.29-109.77 44.29-19.052 0-57.072-6.51-86.837-33.97v150.66c0 7.75-6.473 14.8-14.961 14.8h-75.86c-9.277 0-14.8-7.82-14.8-14.8v-492.75c0-7.03 5.332-15.1 14.484-15.1h75.945c8.899 0 15.192 7.07 15.192 15.1v218.17c0 39.04 23.972 66.38 58.593 66.38 30.384 0 58.234-24.32 58.234-66.38v-218.15c0-9.59 7.11-15.12 14.38-15.12h75.95c9.97 0 15.13 8.51 15.13 15.12" clip-path="url(#clipPath5)"/>
    <path transform="matrix(.13333 0 0 -.13333 0 559.37)" d="m1503.6 2233.8c0 26.58-32.26 95.28-151.3 95.28-143.62 0-154.24-85.1-154.24-110.4 0-69.76 51.48-95.84 115.56-115.44 58.36-17.86 93.4-33.92 93.4-55.94 0-34.75-33.87-37.89-52.8-37.89-37.55 0-60.17 25.19-65.66 45.17-3.19 11.53-10.49 13.11-15.04 13.11l-69.45-4.93c-8.85-0.63-12.97-11.27-12.97-15.12 0-45.67 52.99-122.33 163.57-122.33 126.11 0 163.31 77.5 163.31 122.07 0 81.78-55.4 102.5-120.1 122.06-50.61 15.32-95.83 28.36-95.83 52.3 0 8.79 0.29 32.72 49.65 32.72 27.64 0 55.19-8.42 61.1-29.61 2.29-8.23 10.12-11.18 14.49-11.07 8.4 0.18 62.02 4.27 62.02 4.27 6.69 0.55 14.17 4.59 14.29 15.75" clip-path="url(#clipPath7)"/>
   </g>
   <path transform="matrix(.13333 0 0 -.13333 0 559.37)" d="m1951.6 1971.8c-8.62 0-16.71-1.97-24.04-5.39-0.21 1.78-0.5 3.54-0.78 5.29-8.76 54.31-55.81 95.81-112.59 95.81-63.02 0-114.11-51.07-114.11-114.11 0-63.02 51.09-114.09 114.11-114.09 36.53 0 68.98 17.23 89.87 43.94 10.21-15.39 27.68-25.56 47.54-25.56 31.52 0 57.06 25.55 57.06 57.05 0 31.52-25.54 57.06-57.06 57.06" clip-path="url(#clipPath9)" fill="#ed1c24"/>
   <path transform="matrix(.13333 0 0 -.13333 0 559.37)" d="m2057.5 1981.4c0-30.55-20.82-56.24-49.06-63.66-5.35-1.4-74.16 19.59-80.92 48.75-1.1 4.79-1.69 9.78-1.69 14.91 0 36.39 29.49 65.84 65.83 65.84 36.37 0 65.84-29.45 65.84-65.84" clip-path="url(#clipPath11)" fill="#68bceb"/>
   <path transform="matrix(.13333 0 0 -.13333 0 559.37)" d="m2163.8 2032.6c0-43.63-35.37-78.98-79-78.98s-78.99 35.35-78.99 78.98c0 43.64 35.36 78.99 78.99 78.99s79-35.35 79-78.99" clip-path="url(#clipPath13)" fill="#3770b0"/>
   <path transform="matrix(.13333 0 0 -.13333 0 559.37)" d="m2008.5 1917.8c-1.6 30.07-26.42 54.03-56.91 54.03-8.56 0-16.68-1.95-23.98-5.34 6.78-29.15 32.9-50.89 64.11-50.89 5.81 0 11.41 0.78 16.78 2.2" clip-path="url(#clipPath15)" fill="#860d26"/>
   <path transform="matrix(.13333 0 0 -.13333 0 559.37)" d="m2115.5 2125.2c0-16.96-13.75-30.71-30.71-30.71s-30.72 13.75-30.72 30.71c0 16.98 13.76 30.73 30.72 30.73s30.71-13.75 30.71-30.73" clip-path="url(#clipPath17)" fill="#68bceb"/>
   <path transform="matrix(.13333 0 0 -.13333 0 559.37)" d="m2060.4 2458.6c-33.39 0-63.78-12.52-86.99-33-5.47 5.03-12.71 8.17-20.72 8.17-16.97 0-30.72-13.76-30.72-30.73 0-11.73 6.66-21.8 16.33-26.97-6.13-15.19-9.58-31.74-9.58-49.13 0-72.72 58.95-131.66 131.68-131.66 72.72 0 131.65 58.94 131.65 131.66 0 72.71-58.93 131.66-131.65 131.66" clip-path="url(#clipPath19)" fill="#fab215"/>
   <path transform="matrix(.13333 0 0 -.13333 0 559.37)" d="m1721.1 2019.5c16.77 20.72 13.57 51.12-7.15 67.89-20.71 16.82-51.12 13.63-67.9-7.13-16.78-20.72-13.58-51.12 7.15-67.9 20.71-16.78 51.12-13.59 67.9 7.14" clip-path="url(#clipPath21)" fill="#f25c19"/>
   <path transform="matrix(.13333 0 0 -.13333 0 559.37)" d="m2006.9 2045.4c-0.68-4.17-1.12-8.42-1.12-12.79 0-32.64 19.8-60.66 48.06-72.69 2.33 6.74 3.66 13.95 3.66 21.48 0 31.13-21.59 57.12-50.6 64" clip-path="url(#clipPath23)" fill="#2b487b"/>
   <path transform="matrix(.13333 0 0 -.13333 0 559.37)" d="m2084.8 2111.6c-8.74 0-17.12-1.47-24.97-4.09 5.56-7.81 14.65-12.94 24.97-12.94s19.4 5.13 24.97 12.94c-7.85 2.62-16.23 4.09-24.97 4.09" clip-path="url(#clipPath25)" fill="#2b487b"/>
   <path transform="matrix(.13333 0 0 -.13333 0 559.37)" d="m1938.3 2376.1c4.3-2.31 9.16-3.74 14.39-3.74 16.97 0 30.72 13.75 30.72 30.71 0 8.96-3.9 16.94-10 22.56-15.26-13.46-27.39-30.35-35.11-49.53" clip-path="url(#clipPath27)" fill="#e1850f"/>
   <g fill="#122a54">
    <path transform="matrix(.13333 0 0 -.13333 0 559.37)" d="m1780.8 2461.6c-16.3 0-30.68-8.09-39.42-20.45-16.1 12.02-36 19.22-57.64 19.22-53.33 0-96.55-43.23-96.55-96.56 0-53.31 43.22-96.56 96.55-96.56s96.56 43.25 96.56 96.56c0 0.43-0.06 0.84-0.06 1.26 0.19 0 0.37-0.02 0.56-0.02 26.66 0 48.27 21.61 48.27 48.27 0 26.67-21.61 48.28-48.27 48.28" clip-path="url(#clipPath29)"/>
    <path transform="matrix(.13333 0 0 -.13333 0 559.37)" d="m1610.9 2212.8c-15.3 7.28-33.64 0.77-40.97-14.55-7.32-15.33-0.85-33.65 14.44-40.93 15.31-7.29 33.65-0.76 40.96 14.54 7.34 15.33 0.87 33.66-14.43 40.94" clip-path="url(#clipPath31)"/>
    <path transform="matrix(.13333 0 0 -.13333 0 559.37)" d="m1872 2388.7c-8.24 0-14.91-6.68-14.91-14.92 0-8.25 6.67-14.93 14.91-14.93 8.25 0 14.93 6.68 14.93 14.93 0 8.24-6.68 14.92-14.93 14.92" clip-path="url(#clipPath33)"/>
    <path transform="matrix(.13333 0 0 -.13333 0 559.37)" d="m2077.2 1924.9c-8.24 0-14.92-6.68-14.92-14.93 0-8.24 6.68-14.92 14.92-14.92s14.92 6.68 14.92 14.92c0 8.25-6.68 14.93-14.92 14.93" clip-path="url(#clipPath35)"/>
   </g>
  </g>
  <path transform="matrix(.13333 0 0 -.13333 0 559.37)" d="m2372.7 2779.8v-1191.5" fill="none" stroke="#122a54" stroke-linecap="round" stroke-width="17.75"/>
  <path transform="matrix(.13333 0 0 -.13333 0 559.37)" d="m2717.1 2145.4c-2.42 0-4.03-1.62-4.03-4.04v-31.51c0-2.42 1.61-4.04 4.03-4.04h21.01c1.62 0 2.42-1.21 2.02-2.83l-55.75-168.85h-1.21l-56.95 168.04c-0.81 2.43 0.4 3.64 2.42 3.64h18.99c2.42 0 4.03 1.62 4.03 4.04v31.51c0 2.42-1.61 4.04-4.03 4.04h-83.22c-2.42 0-4.04-1.62-4.04-4.04v-31.51c0-2.42 1.62-4.04 4.04-4.04h10.91c1.61 0 2.42-1.21 2.83-2.42l77.96-228.64c0.81-2.42 2.42-4.04 4.85-4.04h42.01c2.42 0 4.04 1.62 4.84 4.04l78.37 229.04c0.4 1.21 1.21 2.02 2.42 2.02h11.32c2.42 0 4.03 1.62 4.03 4.04v31.51c0 2.42-1.61 4.04-4.03 4.04zm162.8-75.54c-39.59 0-69.48-19.8-80.39-53.73-4.44-13.73-6.46-26.66-6.46-48.07s2.02-34.33 6.46-48.07c10.91-33.93 40.8-53.72 80.39-53.72 39.18 0 69.07 19.79 79.98 53.72 4.44 13.74 6.46 26.66 6.46 48.07s-2.02 34.34-6.46 48.07c-10.91 33.93-40.8 53.73-79.98 53.73zm0-40.4c18.18 0 31.1-9.29 36.35-25.45 3.23-10.5 4.04-19.39 4.04-35.95s-0.81-25.85-4.04-35.95c-5.65-16.16-18.17-25.45-36.35-25.45s-31.11 9.29-36.76 25.45c-3.23 10.1-4.04 19.39-4.04 35.95s0.81 25.45 4.04 35.95c5.25 16.16 18.58 25.45 36.76 25.45zm105.02 115.94c-2.42 0-4.04-1.62-4.04-4.04v-31.51c0-2.42 1.62-4.04 4.04-4.04h17.37c1.62 0 2.43-0.81 2.43-2.42v-176.93c0-37.57 15.35-56.96 53.32-56.96h17.77c2.43 0 4.04 1.61 4.04 4.04v32.72c0 2.42-1.61 4.04-4.04 4.04h-8.88c-11.72 0-16.97 4.44-16.97 17.77v213.29c0 2.42-1.62 4.04-4.04 4.04zm129.27 0c-2.43 0-4.04-1.62-4.04-4.04v-31.51c0-2.42 1.61-4.04 4.04-4.04h17.36c1.62 0 2.43-0.81 2.43-2.42v-190.67c0-1.61-0.81-2.42-2.43-2.42h-17.36c-2.43 0-4.04-1.62-4.04-4.04v-31.51c0-2.42 1.61-4.04 4.04-4.04h84.82c2.43 0 4.04 1.62 4.04 4.04v31.51c0 2.42-1.61 4.04-4.04 4.04h-17.37c-1.61 0-2.42 0.81-2.42 2.42v15.75l26.66 30.3 48.88-84.02c1.62-2.83 3.64-4.04 6.46-4.04h44.84c2.43 0 4.04 1.62 4.04 4.04v31.51c0 2.42-1.61 4.04-4.04 4.04h-19.39c-1.61 0-2.83 0.81-4.04 2.42l-46.86 79.58 27.47 31.1c1.62 2.02 2.83 2.43 4.45 2.43h26.25c2.43 0 4.04 1.61 4.04 4.04v31.51c0 2.42-1.61 4.03-4.04 4.03h-41.2c-3.23 0-5.25-1.21-7.67-4.03l-65.85-75.14v155.12c0 2.42-1.61 4.04-4.04 4.04zm301.34-75.54c-50.09 0-76.75-23.84-76.75-60.19 0-32.72 17.78-52.92 60.19-57.77l21.41-2.42c26.26-2.83 33.53-9.69 33.53-22.62 0-14.54-11.31-22.62-36.36-22.62-10.5 0-22.21 0.81-33.93 5.25-1.21 0.4-2.02 1.21-2.02 2.83v17.77c0 2.42-1.61 4.04-4.04 4.04h-34.33c-2.43 0-4.04-1.62-4.04-4.04v-43.63c0-2.82 1.21-4.04 2.82-4.84 18.99-9.29 43.63-15.35 72.72-15.35 54.93 0 83.61 24.64 83.61 64.22 0 32.72-16.56 53.33-61.8 58.58l-21.41 2.42c-26.26 2.83-32.72 10.1-32.72 21.41 0 12.12 10.1 19.79 32.72 19.79 12.12 0 23.43-2.02 29.08-4.44 1.62-0.81 2.02-1.61 2.02-3.23v-14.95c0-2.42 1.62-4.04 4.04-4.04h32.72c2.43 0 4.04 1.62 4.04 4.04v40.4c0 2.83-0.81 4.44-3.23 5.65-17.77 8.08-40.8 13.74-68.27 13.74zm117.15 75.54c-2.43 0-4.04-1.62-4.04-4.04v-31.51c0-2.42 1.61-4.04 4.04-4.04h17.37c1.61 0 2.42-0.81 2.42-2.42v-190.67c0-1.61-0.81-2.42-2.42-2.42h-17.37c-2.43 0-4.04-1.62-4.04-4.04v-31.51c0-2.42 1.61-4.04 4.04-4.04h84.83c2.42 0 4.04 1.62 4.04 4.04v31.51c0 2.42-1.62 4.04-4.04 4.04h-17.37c-1.62 0-2.43 0.81-2.43 2.42v74.33c0 25.04 12.93 42.41 36.36 42.41 24.24 0 36.36-17.37 36.36-42.41v-74.33c0-1.61-0.81-2.42-2.43-2.42h-17.37c-2.42 0-4.04-1.62-4.04-4.04v-31.51c0-2.42 1.62-4.04 4.04-4.04h84.02c2.43 0 4.04 1.62 4.04 4.04v31.51c0 2.42-1.61 4.04-4.04 4.04h-16.56c-1.61 0-2.42 0.81-2.42 2.42v84.83c0 41.61-25.86 72.31-67.06 72.31-25.45 0-42.01-10.5-50.49-22.62h-0.41v94.12c0 2.42-1.61 4.04-4.04 4.04zm310.63-75.54c-39.58 0-69.48-19.8-80.38-53.73-4.45-13.73-6.47-26.66-6.47-48.07s2.02-34.33 6.47-48.07c10.9-33.93 40.8-53.72 80.38-53.72 39.19 0 69.08 19.79 79.99 53.72 4.44 13.74 6.46 26.66 6.46 48.07s-2.02 34.34-6.46 48.07c-10.91 33.93-40.8 53.73-79.99 53.73zm0-40.4c18.18 0 31.11-9.29 36.36-25.45 3.23-10.5 4.04-19.39 4.04-35.95s-0.81-25.85-4.04-35.95c-5.66-16.16-18.18-25.45-36.36-25.45-18.17 0-31.1 9.29-36.76 25.45-3.23 10.1-4.04 19.39-4.04 35.95s0.81 25.45 4.04 35.95c5.25 16.16 18.59 25.45 36.76 25.45zm202.79 40.4c-41.21 0-71.5-18.99-82.81-53.73-4.04-12.12-6.06-27.47-6.06-48.07s2.02-37.16 6.06-49.28c11.31-34.74 40.39-52.51 82.81-52.51 26.66 0 49.28 5.65 67.05 14.94 2.43 1.21 3.23 2.83 3.23 5.25v44.84c0 2.43-1.61 4.04-4.04 4.04h-34.33c-2.43 0-4.04-1.61-4.04-4.04v-18.18c0-1.61-0.41-2.01-2.02-2.82-4.04-2.02-12.52-3.64-24.64-3.64-20.6 0-34.34 8.48-39.99 25.05-3.23 9.69-4.04 21.41-4.04 36.35 0 14.95 0.81 26.26 4.04 35.95 5.65 16.97 19.39 25.45 39.99 25.45 10.1 0 20.6-2.02 24.64-4.04 1.61-0.8 2.02-1.21 2.02-2.82v-17.78c0-2.42 1.61-4.04 4.04-4.04h34.33c2.43 0 4.04 1.62 4.04 4.04v44.44c0 2.42-0.8 4.04-3.23 5.25-16.16 9.29-40.39 15.35-67.05 15.35zm107.44 75.54c-2.42 0-4.04-1.62-4.04-4.04v-31.51c0-2.42 1.62-4.04 4.04-4.04h17.37c1.62 0 2.43-0.81 2.43-2.42v-190.67c0-1.61-0.81-2.42-2.43-2.42h-17.37c-2.42 0-4.04-1.62-4.04-4.04v-31.51c0-2.42 1.62-4.04 4.04-4.04h84.83c2.43 0 4.04 1.62 4.04 4.04v31.51c0 2.42-1.61 4.04-4.04 4.04h-17.37c-1.61 0-2.42 0.81-2.42 2.42v74.33c0 25.04 12.93 42.41 36.36 42.41 24.23 0 36.35-17.37 36.35-42.41v-74.33c0-1.61-0.81-2.42-2.42-2.42h-17.37c-2.43 0-4.04-1.62-4.04-4.04v-31.51c0-2.42 1.61-4.04 4.04-4.04h84.02c2.42 0 4.04 1.62 4.04 4.04v31.51c0 2.42-1.62 4.04-4.04 4.04h-16.56c-1.62 0-2.43 0.81-2.43 2.42v84.83c0 41.61-25.85 72.31-67.05 72.31-25.45 0-42.01-10.5-50.5-22.62h-0.4v94.12c0 2.42-1.62 4.04-4.04 4.04zm312.25-75.54c-50.09 0-76.75-23.84-76.75-60.19 0-32.72 17.78-52.92 60.19-57.77l21.41-2.42c26.26-2.83 33.53-9.69 33.53-22.62 0-14.54-11.31-22.62-36.36-22.62-10.5 0-22.21 0.81-33.93 5.25-1.21 0.4-2.02 1.21-2.02 2.83v17.77c0 2.42-1.61 4.04-4.04 4.04h-34.33c-2.43 0-4.04-1.62-4.04-4.04v-43.63c0-2.82 1.21-4.04 2.83-4.84 18.98-9.29 43.62-15.35 72.71-15.35 54.93 0 83.61 24.64 83.61 64.22 0 32.72-16.56 53.33-61.8 58.58l-21.41 2.42c-26.26 2.83-32.72 10.1-32.72 21.41 0 12.12 10.1 19.79 32.72 19.79 12.12 0 23.43-2.02 29.09-4.44 1.61-0.81 2.01-1.61 2.01-3.23v-14.95c0-2.42 1.62-4.04 4.04-4.04h32.72c2.43 0 4.04 1.62 4.04 4.04v40.4c0 2.83-0.8 4.44-3.23 5.65-17.77 8.08-40.8 13.74-68.27 13.74zm201.58 0c-41.21 0-71.5-18.99-82.81-53.73-4.04-12.12-6.06-27.47-6.06-48.07s2.02-37.16 6.06-49.28c11.31-34.74 40.39-52.51 82.81-52.51 26.66 0 49.28 5.65 67.05 14.94 2.42 1.21 3.23 2.83 3.23 5.25v44.84c0 2.43-1.61 4.04-4.04 4.04h-34.33c-2.43 0-4.04-1.61-4.04-4.04v-18.18c0-1.61-0.41-2.01-2.02-2.82-4.04-2.02-12.52-3.64-24.64-3.64-20.6 0-34.34 8.48-39.99 25.05-3.24 9.69-4.04 21.41-4.04 36.35 0 14.95 0.8 26.26 4.04 35.95 5.65 16.97 19.39 25.45 39.99 25.45 10.1 0 20.6-2.02 24.64-4.04 1.61-0.8 2.02-1.21 2.02-2.82v-17.78c0-2.42 1.61-4.04 4.04-4.04h34.33c2.43 0 4.04 1.62 4.04 4.04v44.44c0 2.42-0.81 4.04-3.23 5.25-16.16 9.29-40.39 15.35-67.05 15.35zm107.44 75.54c-2.42 0-4.04-1.62-4.04-4.04v-31.51c0-2.42 1.62-4.04 4.04-4.04h17.37c1.62 0 2.43-0.81 2.43-2.42v-190.67c0-1.61-0.81-2.42-2.43-2.42h-17.37c-2.42 0-4.04-1.62-4.04-4.04v-31.51c0-2.42 1.62-4.04 4.04-4.04h84.83c2.43 0 4.04 1.62 4.04 4.04v31.51c0 2.42-1.61 4.04-4.04 4.04h-17.37c-1.61 0-2.42 0.81-2.42 2.42v74.33c0 25.04 12.93 42.41 36.35 42.41 24.24 0 36.36-17.37 36.36-42.41v-74.33c0-1.61-0.81-2.42-2.42-2.42h-17.37c-2.43 0-4.04-1.62-4.04-4.04v-31.51c0-2.42 1.61-4.04 4.04-4.04h84.02c2.42 0 4.04 1.62 4.04 4.04v31.51c0 2.42-1.62 4.04-4.04 4.04h-16.56c-1.62 0-2.43 0.81-2.43 2.42v84.83c0 41.61-25.85 72.31-67.05 72.31-25.45 0-42.01-10.5-50.5-22.62h-0.4v94.12c0 2.42-1.62 4.04-4.04 4.04zm337.3-79.99c-2.42 0-4.04-1.61-4.04-4.03v-31.51c0-2.43 1.62-4.04 4.04-4.04h17.77c1.62 0 2.43-0.81 2.43-2.43v-74.73c0-24.64-12.93-42.01-35.96-42.01-24.64 0-35.95 17.37-35.95 42.42v112.3c0 2.42-1.61 4.03-4.04 4.03h-60.99c-2.43 0-4.04-1.61-4.04-4.03v-31.51c0-2.43 1.61-4.04 4.04-4.04h17.37c1.61 0 2.42-0.81 2.42-2.43v-84.83c0-41.6 25.05-72.3 66.65-72.3 24.64 0 39.59 9.29 50.09 22.62h0.41v-14.14c0-2.42 1.61-4.04 4.04-4.04h60.99c2.43 0 4.04 1.62 4.04 4.04v31.51c0 2.42-1.61 4.04-4.04 4.04h-17.37c-1.61 0-2.42 0.81-2.42 2.42v148.66c0 2.42-1.62 4.03-4.04 4.03zm112.29 79.99c-2.42 0-4.04-1.62-4.04-4.04v-31.51c0-2.42 1.62-4.04 4.04-4.04h17.37c1.62 0 2.43-0.81 2.43-2.42v-176.93c0-37.57 15.35-56.96 53.32-56.96h17.77c2.43 0 4.04 1.61 4.04 4.04v32.72c0 2.42-1.61 4.04-4.04 4.04h-8.89c-11.71 0-16.96 4.44-16.96 17.77v213.29c0 2.42-1.62 4.04-4.04 4.04zm198.74-75.54c-38.78 0-68.67-19.8-79.58-53.73-4.03-12.52-6.46-27.87-6.46-48.07s2.83-35.14 6.87-47.66c10.91-33.94 39.99-54.13 81.19-54.13 35.95 0 63.42 13.73 79.99 33.12 1.61 2.02 1.61 4.04-0.41 5.66l-23.83 21c-2.02 1.62-4.04 1.21-6.06-0.81-9.7-10.5-23.83-18.58-45.65-18.58-21.81 0-37.16 10.5-43.62 29.49-1.62 4.44-2.83 9.29-2.83 14.95 0 1.61 0.81 2.42 2.42 2.42h119.98c2.82 0 4.44 1.62 4.44 4.04 0 31.51-2.02 44.84-6.46 58.57-10.91 33.13-40 53.73-79.99 53.73zm0.41-38.38c18.18 0 32.72-9.29 37.97-25.04 1.61-4.85 2.42-9.7 2.42-16.56 0-1.62-0.81-2.43-2.42-2.43h-76.35c-1.61 0-2.42 0.81-2.42 2.43 0 6.86 0.81 11.71 2.42 16.56 5.25 15.75 19.8 25.04 38.38 25.04" fill="#122a54"/>
  <path transform="matrix(.13333 0 0 -.13333 0 559.37)" d="m2573.7 2544.4c-2.42 0-4.04-1.62-4.04-4.04v-31.51c0-2.42 1.62-4.04 4.04-4.04h19.39c1.62 0 2.43-0.81 2.43-2.42v-190.67c0-1.61-0.81-2.42-2.43-2.42h-19.39c-2.42 0-4.04-1.62-4.04-4.04v-31.51c0-2.42 1.62-4.04 4.04-4.04h119.98c60.18 0 94.52 26.26 94.52 80.79 0 33.53-19.79 55.34-36.76 61.8v0.81c17.37 9.29 31.91 27.07 31.91 58.17 0 44.03-27.47 73.12-85.63 73.12zm123.21-41.61c24.23 0 39.18-14.95 39.18-36.76 0-21.41-14.95-35.95-39.18-35.95h-51.71c-1.61 0-2.42 0.81-2.42 2.42v67.87c0 1.61 0.81 2.42 2.42 2.42zm2.42-114.72c26.66 0 41.61-15.35 41.61-37.97 0-23.03-14.95-38.78-41.61-38.78h-54.13c-1.61 0-2.42 0.8-2.42 2.42v71.9c0 1.62 0.81 2.43 2.42 2.43zm239.95 79.17c-25.05 0-40.8-13.73-48.88-27.06h-0.4v20.2c0 2.42-1.62 4.03-4.04 4.03h-61c-2.42 0-4.04-1.61-4.04-4.03v-31.51c0-2.43 1.62-4.04 4.04-4.04h17.37c1.61 0 2.42-0.81 2.42-2.43v-110.68c0-1.61-0.81-2.42-2.42-2.42h-17.37c-2.42 0-4.04-1.62-4.04-4.04v-31.51c0-2.42 1.62-4.04 4.04-4.04h86.44c2.43 0 4.04 1.62 4.04 4.04v31.51c0 2.42-1.61 4.04-4.04 4.04h-18.98c-1.62 0-2.42 0.81-2.42 2.42v63.42c0 34.74 14.94 50.09 43.62 50.09 8.08 0 17.37-2.02 23.84-3.23 3.23-0.81 4.84 1.21 4.84 4.04v35.14c0 2.43-1.61 3.64-4.04 4.04-3.63 0.81-10.5 2.02-18.98 2.02zm126.43 1.62c-38.78 0-68.67-19.8-79.58-53.73-4.04-12.52-6.46-27.87-6.46-48.07s2.83-35.14 6.87-47.66c10.9-33.94 39.99-54.13 81.19-54.13 35.95 0 63.42 13.73 79.98 33.12 1.62 2.02 1.62 4.04-0.4 5.66l-23.83 21c-2.02 1.62-4.04 1.21-6.06-0.81-9.7-10.5-23.83-18.58-45.65-18.58-21.81 0-37.16 10.5-43.62 29.49-1.62 4.44-2.83 9.29-2.83 14.95 0 1.61 0.81 2.42 2.42 2.42h119.97c2.83 0 4.45 1.62 4.45 4.04 0 31.51-2.02 44.84-6.47 58.57-10.9 33.13-39.99 53.73-79.98 53.73zm0.41-38.38c18.17 0 32.72-9.29 37.97-25.04 1.61-4.85 2.42-9.7 2.42-16.56 0-1.62-0.81-2.43-2.42-2.43h-76.35c-1.61 0-2.42 0.81-2.42 2.43 0 6.86 0.81 11.71 2.42 16.56 5.25 15.75 19.79 25.04 38.38 25.04zm353.05 38.38c-27.06 0-46.45-9.7-61.4-25.85h-0.4c-11.72 16.56-30.7 25.85-52.92 25.85-25.05 0-42.01-10.5-50.5-22.62h-0.4v14.14c0 2.42-1.62 4.03-4.04 4.03h-61c-2.42 0-4.04-1.61-4.04-4.03v-31.51c0-2.43 1.62-4.04 4.04-4.04h17.37c1.62 0 2.43-0.81 2.43-2.43v-110.68c0-1.61-0.81-2.42-2.43-2.42h-17.37c-2.42 0-4.04-1.62-4.04-4.04v-31.51c0-2.42 1.62-4.04 4.04-4.04h84.83c2.43 0 4.04 1.62 4.04 4.04v31.51c0 2.42-1.61 4.04-4.04 4.04h-17.37c-1.61 0-2.42 0.81-2.42 2.42v74.33c0 25.04 12.93 42.41 36.36 42.41 24.23 0 36.35-17.37 36.35-42.41v-74.33c0-1.61-0.81-2.42-2.42-2.42h-17.37c-2.43 0-4.04-1.62-4.04-4.04v-31.51c0-2.42 1.61-4.04 4.04-4.04h84.83c2.42 0 4.04 1.62 4.04 4.04v31.51c0 2.42-1.62 4.04-4.04 4.04h-17.37c-1.62 0-2.43 0.81-2.43 2.42v74.33c0 25.04 12.93 42.41 36.36 42.41 24.24 0 36.36-17.37 36.36-42.41v-74.33c0-1.61-0.81-2.42-2.43-2.42h-17.37c-2.42 0-4.04-1.62-4.04-4.04v-31.51c0-2.42 1.62-4.04 4.04-4.04h84.02c2.43 0 4.04 1.62 4.04 4.04v31.51c0 2.42-1.61 4.04-4.04 4.04h-16.56c-1.61 0-2.42 0.81-2.42 2.42v84.83c0 41.61-25.05 72.31-70.29 72.31zm201.57 0c-38.78 0-68.67-19.8-79.58-53.73-4.04-12.52-6.46-27.87-6.46-48.07s2.83-35.14 6.87-47.66c10.9-33.94 39.99-54.13 81.19-54.13 35.95 0 63.42 13.73 79.98 33.12 1.62 2.02 1.62 4.04-0.4 5.66l-23.83 21c-2.02 1.62-4.04 1.21-6.06-0.81-9.7-10.5-23.84-18.58-45.65-18.58s-37.16 10.5-43.63 29.49c-1.61 4.44-2.82 9.29-2.82 14.95 0 1.61 0.8 2.42 2.42 2.42h119.97c2.83 0 4.45 1.62 4.45 4.04 0 31.51-2.02 44.84-6.47 58.57-10.9 33.13-39.99 53.73-79.98 53.73zm0.41-38.38c18.17 0 32.72-9.29 37.97-25.04 1.61-4.85 2.42-9.7 2.42-16.56 0-1.62-0.81-2.43-2.42-2.43h-76.35c-1.62 0-2.42 0.81-2.42 2.43 0 6.86 0.8 11.71 2.42 16.56 5.25 15.75 19.79 25.04 38.38 25.04zm236.71 36.76c-25.04 0-40.8-13.73-48.88-27.06h-0.4v20.2c0 2.42-1.62 4.03-4.04 4.03h-61c-2.42 0-4.04-1.61-4.04-4.03v-31.51c0-2.43 1.62-4.04 4.04-4.04h17.37c1.62 0 2.43-0.81 2.43-2.43v-110.68c0-1.61-0.81-2.42-2.43-2.42h-17.37c-2.42 0-4.04-1.62-4.04-4.04v-31.51c0-2.42 1.62-4.04 4.04-4.04h86.45c2.42 0 4.04 1.62 4.04 4.04v31.51c0 2.42-1.62 4.04-4.04 4.04h-18.99c-1.61 0-2.42 0.81-2.42 2.42v63.42c0 34.74 14.95 50.09 43.63 50.09 8.08 0 17.37-2.02 23.83-3.23 3.23-0.81 4.85 1.21 4.85 4.04v35.14c0 2.43-1.62 3.64-4.04 4.04-3.64 0.81-10.51 2.02-18.99 2.02" fill="#122a54"/>
 </g>
</svg>
