<?xml version="1.0" encoding="UTF-8" standalone="no"?>
<svg
version="1.0"
width="591pt"
height="506pt"
viewBox="0 85 591 506"
preserveAspectRatio="xMidYMid"
aria-labelledby="ddaniel tdaniel"
role="img"
id="svgdaniel"
xml:space="preserve"
xmlns="http://www.w3.org/2000/svg">
	<title id="tdaniel">Daniel</title>
	<desc id="ddaniel">Daniel</desc>
	<g
	transform="matrix(0.1,0,0,-0.1,0,591)"
	stroke="none"
	id="g1">
		<path
		fill="currentColor"
		d="M2452 4604 c-16 -4 -40 -31 -70 -79 -34 -52 -57 -77 -83 -89 -19 -9 -43 -24 -52 -33 -27 -28 -124 -164 -147 -206 -20 -36 -20 -40 -5 -63 14 -22 14 -29 0 -76 -19 -65 -19 -119 0 -165 l15 -35 37 28 c21 16 49 41 61 56 l24 28 29 -40 c29 -40 30 -40 95 -40 60 0 68 -3 96 -30 16 -16 36 -30 44 -30 8 0 36 -15 63 -32 l48 -33 -5 -81 c-3 -53 -1 -84 6 -88 6 -4 35 9 63 29 58 40 62 41 79 20 7 -8 29 -19 50 -25 21 -6 50 -24 63 -40 14 -16 54 -45 90 -65 35 -19 88 -58 117 -86 46 -44 58 -50 87 -47 27 3 33 1 33 -14 0 -10 -8 -21 -17 -24 -59 -19 -73 -29 -93 -67 -22 -41 -24 -42 -74 -43 -171 -5 -175 -5 -211 -29 -19 -14 -41 -23 -47 -21 -7 3 -41 7 -74 10 -58 5 -65 3 -99 -24 -24 -19 -42 -27 -49 -21 -27 21 -64 21 -91 -1 -15 -12 -30 -17 -33 -12 -4 5 -20 19 -35 31 -28 21 -30 22 -55 5 -24 -15 -37 -28 -65 -66 -5 -7 -11 -5 -18 7 -6 11 -22 17 -43 17 -27 0 -38 -7 -57 -35 -28 -41 -31 -42 -44 -13 -16 37 -41 32 -87 -14 -24 -24 -46 -42 -50 -41 -14 5 -92 -107 -126 -182 -40 -86 -65 -262 -41 -291 8 -10 16 -59 20 -130 8 -134 29 -179 109 -243 53 -42 203 -131 220 -131 6 0 8 -4 5 -10 -3 -5 -14 -10 -24 -10 -10 0 -30 -9 -43 -20 -23 -18 -25 -26 -24 -91 1 -39 -2 -73 -6 -75 -18 -11 -6 -57 20 -82 15 -15 38 -43 50 -63 12 -20 36 -42 52 -49 37 -15 124 -6 159 17 17 11 53 17 110 19 47 1 100 8 116 15 17 7 75 13 130 14 55 0 108 5 118 9 9 4 17 4 17 0 -1 -29 -198 -104 -274 -104 -44 0 -124 -25 -147 -46 -27 -24 -26 -89 1 -106 11 -7 20 -21 20 -31 0 -32 47 -70 81 -65 22 3 29 1 29 -12 0 -9 13 -29 30 -45 23 -22 38 -28 70 -27 22 1 40 -2 40 -7 0 -4 12 -20 27 -35 23 -23 34 -27 73 -24 31 2 53 -3 73 -16 27 -18 32 -19 129 -3 131 22 186 48 285 135 91 81 107 89 218 107 97 16 174 44 240 87 68 45 74 67 40 152 -23 58 -27 79 -23 147 4 104 13 112 143 139 101 20 149 34 350 95 109 34 138 51 163 100 9 17 32 291 32 377 0 22 7 31 33 41 45 19 105 89 113 131 11 60 -4 107 -46 147 l-38 36 87 169 c48 93 93 178 100 190 32 50 -11 101 -195 230 -70 49 -181 129 -248 177 -67 49 -166 118 -221 154 -55 36 -143 98 -195 137 -52 40 -149 108 -215 151 -66 44 -170 114 -231 157 -134 93 -450 254 -594 303 -82 28 -125 37 -195 40 -49 2 -100 1 -113 -1z m197 -79 c99 -26 373 -145 449 -196 24 -16 46 -29 51 -29 4 0 55 -31 114 -70 77 -50 107 -75 107 -89 0 -11 6 -24 13 -28 8 -4 16 -15 19 -23 3 -9 35 -23 73 -33 95 -26 143 -52 275 -153 63 -48 178 -131 255 -185 153 -107 201 -146 192 -156 -4 -3 -13 0 -22 7 -27 23 -26 5 3 -28 15 -17 81 -64 147 -103 66 -39 122 -73 124 -75 9 -8 -22 -32 -35 -27 -20 7 2 -53 33 -90 25 -31 26 -33 13 -62 -8 -18 -9 -17 -9 8 -1 23 -5 27 -19 23 -13 -4 -30 5 -53 26 -19 18 -51 47 -72 64 -35 28 -38 34 -27 54 6 12 9 24 7 27 -3 2 -57 -13 -121 -35 l-115 -39 -6 56 c-7 74 -43 147 -71 144 -13 -1 -44 20 -85 57 -52 47 -62 61 -51 71 6 7 12 19 12 26 0 9 -24 4 -82 -17 -45 -17 -86 -26 -90 -22 -5 5 -10 24 -13 43 -3 24 -16 45 -46 72 -24 21 -47 47 -53 59 -12 22 -65 41 -148 53 -38 5 -48 10 -48 25 0 25 -61 150 -71 145 -3 -3 -39 7 -78 20 -52 19 -82 24 -111 19 -32 -5 -40 -3 -40 9 0 12 -46 124 -56 136 -2 2 -12 -6 -22 -19 l-18 -22 -49 31 c-27 17 -55 31 -63 31 -7 0 -10 5 -7 10 9 15 -1 12 -46 -10 l-40 -21 7 76 c4 41 5 75 2 75 -3 0 -19 -5 -36 -11 -21 -7 -37 -7 -49 0 -17 9 -17 10 0 16 9 4 17 12 17 17 0 9 -56 5 -100 -8 -9 -2 -22 9 -33 28 l-19 32 -19 -24 c-10 -14 -19 -23 -20 -20 0 3 -3 16 -5 29 -6 33 -11 36 -29 21 -9 -7 -28 -14 -43 -15 -15 -2 -34 -6 -43 -9 -29 -12 -30 22 -2 69 19 30 36 45 53 48 59 9 146 6 199 -8z m-319 -174 c-1 -17 -21 -50 -61 -96 -32 -38 -67 -86 -77 -107 -9 -21 -19 -38 -22 -38 -3 0 -18 10 -33 23 l-28 22 50 75 c27 41 69 97 95 124 38 42 48 47 61 36 8 -7 15 -24 15 -39z m142 2 c8 -10 17 -25 20 -34 8 -20 -56 -149 -111 -227 -48 -66 -70 -76 -98 -42 -10 11 -24 20 -33 20 -39 1 -43 16 -19 61 23 42 115 169 129 179 4 3 9 11 11 19 3 7 20 19 39 26 47 17 45 17 62 -2z m207 -47 c6 -7 14 -46 17 -87 5 -71 4 -76 -28 -126 -88 -137 -101 -153 -112 -139 -6 8 -27 17 -47 20 -67 12 -70 19 -54 117 19 122 33 149 96 192 57 38 108 48 128 23z m238 -145 c48 -34 83 -77 83 -100 0 -25 -38 -99 -80 -156 -69 -94 -278 -282 -294 -264 -2 2 1 33 6 69 33 230 37 249 73 326 41 88 56 108 100 135 41 26 65 24 112 -10z m-762 -180 c-4 -9 -12 -28 -17 -43 -14 -40 -24 -27 -20 25 3 39 6 44 23 40 14 -4 18 -11 14 -22z m1091 4 c25 -19 34 -36 44 -82 18 -90 15 -114 -20 -141 -17 -13 -39 -41 -50 -62 -14 -28 -31 -42 -62 -54 -50 -19 -85 -11 -173 41 -49 29 -50 31 -53 81 -5 80 50 168 138 221 51 31 133 29 176 -4z m258 -211 c44 -24 45 -27 42 -65 -4 -40 -42 -115 -71 -139 -9 -7 -34 -13 -56 -12 -22 1 -57 -6 -77 -16 -20 -10 -49 -16 -64 -14 -26 3 -28 7 -28 47 0 33 8 54 35 91 19 27 45 71 57 97 l23 49 47 -6 c25 -4 67 -18 92 -32z m371 -251 c6 -9 29 -38 53 -65 50 -58 43 -41 48 -111 4 -49 0 -65 -21 -101 -13 -23 -36 -53 -51 -67 l-26 -24 -21 27 c-12 15 -32 40 -44 56 -20 26 -27 29 -83 29 -74 0 -108 21 -130 82 -12 33 -12 45 -2 59 7 9 24 40 38 69 28 56 43 72 89 96 27 14 33 13 85 -9 30 -14 60 -32 65 -41z m-695 -214 c0 -6 -11 -24 -25 -40 -13 -16 -27 -45 -31 -65 -5 -28 -9 -32 -20 -23 -38 31 13 133 69 138 4 1 7 -4 7 -10z m1099 -28 c48 -35 111 -110 111 -133 0 -43 -19 -90 -53 -131 -18 -23 -36 -50 -40 -60 -9 -24 -22 -15 -43 29 -21 43 -36 52 -132 70 -47 9 -82 21 -89 31 -16 21 -16 70 -1 127 11 41 16 46 72 69 71 30 132 29 175 -2z m-1237 -106 c8 -17 8 -37 2 -63 -9 -34 -12 -37 -44 -35 -24 1 -38 -4 -48 -18 -21 -30 -49 -40 -88 -33 -39 7 -51 27 -60 100 -6 49 1 54 86 64 116 15 139 12 152 -15z m-289 -43 c24 -21 19 -66 -8 -70 -11 -2 -34 -19 -52 -38 -31 -33 -33 -33 -65 -20 -26 11 -36 24 -47 60 -14 44 -14 47 10 72 22 24 28 25 84 19 33 -3 68 -14 78 -23z m-371 -29 c20 -21 39 -54 43 -73 4 -19 12 -40 17 -47 6 -8 2 -22 -13 -42 -24 -33 -34 -37 -45 -20 -3 6 -28 9 -57 7 l-51 -3 2 40 c1 22 -2 54 -6 70 -7 24 -5 36 12 60 38 57 50 57 98 8z m142 10 c19 -39 29 -89 21 -113 -7 -23 -25 -27 -25 -5 0 9 -9 15 -22 15 -19 0 -26 10 -39 51 -15 48 -15 51 5 65 30 21 44 17 60 -13z m-323 -33 c31 -17 51 -76 39 -119 -15 -55 -33 -75 -61 -68 -50 13 -65 131 -24 177 21 23 20 23 46 10z m-115 -118 c7 -29 14 -57 14 -61 0 -10 -80 -44 -86 -38 -3 2 -11 28 -18 58 -17 62 -5 104 35 133 27 18 22 26 55 -92z m1292 -44 c73 -34 135 -65 138 -70 3 -5 -9 -3 -28 5 -18 8 -66 29 -107 47 -40 17 -75 29 -78 26 -3 -3 30 -28 73 -56 44 -27 76 -50 72 -50 -3 0 -35 13 -70 30 -64 30 -98 38 -98 21 0 -5 37 -28 83 -51 106 -54 277 -153 277 -161 0 -7 -140 -36 -180 -38 -14 0 -60 -4 -103 -8 -67 -7 -81 -6 -94 9 -16 17 -67 16 -87 -3 -13 -12 -143 -12 -150 0 -3 4 -20 11 -38 15 -17 3 -40 13 -49 22 -27 25 -61 10 -98 -41 -37 -51 -38 -51 -113 15 l-47 41 -28 -18 c-15 -9 -41 -28 -57 -40 l-28 -24 -23 48 c-34 73 -90 121 -145 125 l-45 4 45 21 c25 13 68 28 97 34 33 8 50 16 47 24 -12 29 283 82 511 92 83 3 159 9 170 13 18 7 18 8 -7 15 -16 4 -28 12 -28 17 0 17 47 1 188 -64z m-1428 25 c0 -10 9 -31 20 -48 36 -55 23 -85 -28 -60 -52 26 -57 39 -31 85 24 43 39 51 39 23z m2421 -108 c-48 -55 -40 -136 17 -182 25 -21 58 -15 91 16 17 16 31 23 31 16 0 -7 -16 -27 -35 -44 -57 -49 -127 -38 -166 26 -40 65 -11 166 56 193 36 15 37 10 6 -25z m-2462 -11 c2 -2 -8 -15 -22 -28 -32 -29 -36 -47 -39 -151 -3 -70 -5 -77 -16 -58 -23 40 -26 107 -7 170 9 32 19 64 21 71 3 11 49 8 63 -4z m2566 -14 c4 -6 -8 -10 -29 -10 -26 0 -39 -7 -55 -27 -11 -16 -21 -23 -21 -17 0 6 9 23 21 38 21 27 71 36 84 16z m-2506 -24 c24 -26 39 -100 27 -133 -4 -10 -7 -19 -7 -20 0 -2 -5 -17 -10 -35 -6 -18 -14 -58 -17 -88 -8 -59 -26 -74 -55 -46 -21 22 -33 175 -19 243 10 48 38 102 53 103 3 0 16 -11 28 -24z m2261 -22 c0 -27 -4 -43 -10 -39 -17 11 -11 85 7 85 2 0 3 -21 3 -46z m40 -4 c0 -22 -4 -40 -10 -40 -5 0 -10 18 -10 40 0 22 5 40 10 40 6 0 10 -18 10 -40z m200 -34 c0 -28 -5 -36 -29 -46 -33 -13 -51 -7 -51 17 0 12 3 13 14 4 7 -6 21 -9 30 -5 18 7 22 24 6 24 -14 0 -13 23 2 38 17 17 28 5 28 -32z m-2329 -41 c9 3 24 -10 41 -36 25 -38 27 -48 24 -128 -4 -108 -16 -137 -65 -145 -67 -11 -75 -8 -105 40 -26 42 -29 55 -28 119 1 72 18 117 60 168 15 16 16 16 37 -3 12 -11 28 -18 36 -15z m322 7 c36 -38 54 -131 46 -247 -7 -111 -26 -155 -69 -155 -16 0 -40 -4 -53 -9 -23 -9 -28 -4 -72 65 -43 68 -47 81 -51 149 l-5 73 77 76 c43 42 83 76 89 76 6 0 23 -12 38 -28z m486 -70 c27 -12 51 -34 70 -63 24 -38 29 -58 35 -138 l6 -93 -32 -42 c-17 -22 -34 -44 -38 -49 -3 -4 -30 4 -58 18 -78 38 -92 67 -92 193 0 57 5 113 11 125 10 19 49 67 55 67 1 0 20 -8 43 -18z m1273 -14 c9 -13 17 -58 20 -102 5 -76 4 -79 -27 -120 -33 -43 -40 -45 -105 -25 -30 9 -43 7 -92 -15 -79 -35 -111 -28 -150 33 -36 58 -53 112 -44 146 15 59 107 118 128 81 5 -9 16 -16 24 -16 9 0 29 -8 45 -17 28 -17 29 -16 56 9 53 51 121 63 145 26z m-1496 -27 c18 -16 41 -34 51 -39 15 -9 18 -28 21 -122 4 -111 4 -112 -24 -142 -25 -25 -35 -29 -66 -25 -45 6 -111 57 -132 102 -16 34 -21 118 -10 174 5 25 17 37 53 56 59 31 67 31 107 -4z m555 -22 l41 -41 -7 -87 c-7 -85 -8 -88 -51 -134 -52 -57 -78 -60 -121 -14 -28 29 -32 41 -38 114 -9 108 -2 131 48 170 56 43 78 42 128 -8z m432 16 c25 -14 49 -31 55 -38 5 -7 12 -46 16 -88 l7 -77 -46 -40 c-43 -38 -47 -39 -84 -30 -34 9 -45 7 -79 -12 -56 -31 -97 -22 -171 40 -54 45 -81 92 -61 105 4 3 13 25 19 51 6 25 23 57 36 70 24 24 30 25 93 19 50 -5 76 -3 102 8 49 21 61 20 113 -8z m-1775 -215 c8 0 10 9 6 26 -6 24 -5 25 14 15 12 -6 36 -33 53 -59 18 -26 34 -49 35 -51 2 -2 9 1 16 7 7 5 30 15 51 20 35 10 40 8 59 -14 27 -30 38 -31 38 -1 1 12 7 33 15 47 13 23 14 24 15 4 0 -11 9 -29 21 -40 12 -10 46 -54 76 -96 54 -77 82 -100 69 -55 -13 42 -11 51 14 57 43 10 88 43 105 79 l16 34 16 -24 c22 -33 115 -129 126 -129 4 0 7 6 5 13 -6 25 51 24 82 -3 26 -23 48 -15 70 24 13 26 14 26 34 7 12 -10 43 -21 72 -24 48 -5 55 -3 92 29 22 19 46 34 52 34 7 0 32 -18 56 -40 48 -44 59 -48 68 -24 3 9 13 13 23 10 13 -4 27 7 47 34 17 22 35 40 40 40 6 0 38 -18 70 -40 65 -43 87 -43 60 -2 -12 18 -13 23 -3 16 26 -21 97 -26 129 -9 42 22 77 19 83 -6 6 -21 8 -21 74 15 37 21 78 49 91 63 l23 25 24 -22 c22 -21 30 -22 87 -15 100 14 158 12 169 -5 5 -8 7 -31 3 -50 -6 -34 -6 -35 15 -16 11 10 37 43 58 73 35 51 38 53 48 33 9 -17 6 -42 -15 -120 -14 -55 -30 -104 -35 -109 -6 -6 -66 -21 -135 -34 -69 -14 -150 -30 -180 -36 -30 -6 -68 -13 -85 -15 -16 -2 -84 -12 -150 -21 -168 -25 -990 -26 -1130 -1 -49 9 -115 21 -145 26 -130 21 -295 93 -417 182 -62 45 -82 73 -94 130 -5 24 -12 54 -15 68 -5 23 -3 22 33 -12 21 -21 44 -38 51 -38z m412 -466 c63 -19 73 -18 67 7 -3 11 -2 19 1 17 27 -14 105 -48 110 -48 4 0 13 -9 20 -20 7 -11 9 -19 5 -18 -5 2 -19 -5 -33 -15 -21 -15 -23 -19 -10 -27 25 -16 -56 -12 -95 4 -33 14 -35 14 -35 -4 0 -10 6 -20 13 -23 20 -6 -63 -44 -128 -57 -33 -7 -65 -15 -72 -17 -7 -3 -13 0 -13 6 0 10 54 29 100 33 14 2 26 10 28 19 2 12 -3 15 -21 12 -18 -4 -32 3 -51 24 l-26 28 27 5 c20 4 28 11 28 25 0 17 -7 20 -47 19 -27 0 -48 2 -48 5 1 3 20 15 43 27 43 21 59 21 137 -2z m-152 -106 c17 -17 15 -48 -3 -48 -20 0 -57 38 -50 50 9 14 39 12 53 -2z m1101 -25 c39 -22 42 -59 6 -75 -13 -6 -22 -15 -19 -19 2 -5 53 -34 111 -65 60 -32 101 -60 92 -62 -7 -3 -30 -17 -49 -32 -39 -30 -84 -51 -62 -29 44 45 -33 32 -104 -16 -28 -20 -56 -46 -62 -60 -25 -56 -154 -131 -255 -150 -31 -6 -40 -4 -56 16 -20 24 -19 24 7 52 32 33 25 34 -38 2 -27 -14 -55 -25 -61 -25 -7 0 -27 16 -44 35 -36 39 -32 50 23 61 29 6 46 24 23 24 -5 0 -15 2 -23 5 -7 3 -39 -10 -71 -29 -31 -19 -57 -31 -57 -26 0 4 -18 11 -40 15 -49 8 -59 21 -22 28 18 4 34 -1 48 -14 11 -11 23 -17 26 -14 12 12 -5 43 -25 49 -19 5 -14 10 31 30 28 14 52 30 52 36 0 5 -2 10 -5 10 -14 0 -141 -44 -149 -51 -6 -5 -21 -9 -35 -9 l-26 1 28 15 c32 17 35 34 7 34 -11 0 -20 5 -20 10 0 6 7 10 15 10 8 0 23 4 33 9 9 5 26 13 37 17 37 15 -69 16 -111 2 -21 -8 -50 -11 -64 -7 l-25 6 30 8 c17 4 53 13 80 20 28 7 82 18 120 25 39 7 103 29 145 50 113 56 212 89 303 100 45 5 96 14 112 19 45 14 60 13 94 -6z m-1143 -51 c-9 -8 -26 10 -26 26 1 15 2 15 15 -2 8 -11 13 -21 11 -24z m269 -202 c3 -5 1 -10 -4 -10 -6 0 -11 5 -11 10 0 6 2 10 4 10 3 0 8 -4 11 -10z m75 -40 c0 -13 -11 -13 -30 0 -12 8 -11 10 8 10 12 0 22 -4 22 -10z m248 -147 c2 -8 -5 -13 -17 -13 -12 0 -21 6 -21 16 0 18 31 15 38 -3z"
		id="path4" />
		<path
		fill="currentColor"
		d="M1425 4163 c-16 -31 -31 -60 -33 -64 -2 -4 52 -42 120 -84 68 -42 185 -117 262 -166 76 -50 141 -88 144 -85 5 5 -448 456 -458 456 -3 0 -18 -26 -35 -57z"
		id="path6" />
		<path
		fill="currentColor"
		d="M1590 3423 c-124 -13 -230 -26 -236 -28 -8 -2 -8 -18 -1 -57 6 -29 12 -54 13 -56 1 -2 62 17 135 43 74 25 170 58 214 72 44 14 87 32 95 39 8 8 12 13 10 13 -3 -1 -106 -13 -230 -26z"
		id="path8" />
	</g>
	<g
	id="g2"
	transform="translate(2.201691,366.35043)">
		<path
		fill="currentColor"
		d="m 161.24211,154.90925 q -10.03994,16.93509 -27.39227,21.5245 -17.29184,4.62527 -34.226926,-5.41467 -5.443421,-3.22712 -10.38917,-8.12097 -5.77004,-5.70949 -7.086424,-10.65865 l -2.509986,4.23377 -11.104146,-6.50134 36.323082,-61.268725 q 14.88943,-0.572946 26.57028,0.957181 6.37138,0.834615 16.6534,6.930295 16.08833,9.537949 19.50395,26.112649 3.30373,15.93618 -6.34179,32.20596 z m -12.94325,-7.67338 q 7.60168,-12.82228 6.80194,-24.98526 -0.96738,-14.22411 -13.66869,-21.75407 -8.40706,-4.984117 -17.10872,-4.094109 -9.65382,0.979441 -14.45865,9.084089 l -24.31101,41.0071 q 1.750992,5.04335 7.485176,10.81332 4.764301,4.78627 10.510134,8.19268 11.61263,6.88453 25.40772,0.0227 12.06314,-6.00856 19.3421,-18.28649 z"
		id="path845" />
		<path
		fill="currentColor"
		d="m 234.2731,217.37566 -22.88525,-6.14272 q -0.19126,-7.69548 -2.52204,-19.8965 l -3.34551,-17.64229 q -10.08551,-0.66866 -28.4619,5.68307 -20.38399,7.05047 -22.51662,14.9958 -0.20051,0.747 -0.11115,1.49899 l -4.77184,-1.20802 -11.45835,-3.14839 q 5.32045,-1.92078 26.25617,-25.13066 8.27622,-9.13555 31.53119,-35.29018 0.31809,-0.64263 0.50037,-1.32172 1.09366,-4.07452 -2.35935,-8.56862 -1.99402,-2.06405 -3.90191,-4.17779 l 13.36158,2.56722 q 6.01743,1.17835 6.85844,4.82576 2.77469,12.17457 6.18921,34.71307 3.59824,23.75263 5.88111,34.77598 1.81107,8.71266 4.09963,13.47662 2.7489,5.76114 7.65622,9.99038 z m -29.7014,-48.013 -6.39361,-28.79823 -33.35327,36.11153 q 5.78114,-3.90836 19.72956,-5.6973 2.94009,-0.37567 20.01732,-1.616 z"
		id="path847" />
		<path
		fill="currentColor"
		d="m 317.67026,215.33092 q -0.2164,4.354 -2.28785,4.95504 l -1.2501,-0.34373 q 0.27392,0.15441 0.94825,0.75112 -2.32834,-1.31251 -5.44396,-5.19853 l -54.19167,-68.3056 -2.38045,47.89401 q -0.31762,6.39055 3.05489,12.19011 2.26942,3.91436 8.16308,9.98003 l -23.6661,-1.17626 q 5.09954,-7.70166 5.42066,-14.16244 l 3.10296,-62.43074 -5.65423,-3.801 q -2.35626,-0.7507 -5.66427,-2.18231 -0.88851,-0.53695 -4.11973,-3.51352 l 6.00759,-0.4758 18.96097,0.9424 53.12083,68.60437 2.37347,-47.75355 q 0.15008,-3.01971 -0.28914,-4.09753 -0.34806,-1.49569 -1.76737,-4.1006 l -7.35793,-6.34965 0.19895,-4.00287 16.78397,0.8342 z"
		id="path849" />
		<path
		fill="currentColor"
		d="m 369.04626,212.45709 -20.919,2.70955 q 2.44094,-4.14476 2.82212,-6.67563 l -0.32223,-5.77205 -7.29773,-56.34184 q -0.84899,-6.55462 -4.95762,-8.71664 -1.29379,-0.68322 -7.69195,-1.91059 -4.58266,-0.89532 -5.84392,-4.06425 l 3.19602,-1.05207 25.80011,-3.34178 9.55568,73.77435 q 0.63223,4.8811 1.32807,6.42166 0.8017,1.81046 4.33045,4.96929 z"
		id="path851" />
		<path
		fill="currentColor"
		d="m 439.19769,192.59549 q -0.58545,2.57738 -2.47969,3.11387 l -52.63293,14.90659 -3.17371,-1.65888 4.73371,-4.70226 q 1.29011,-2.41157 1.43795,-3.69577 -0.24909,-0.87947 -0.56345,-2.76354 l 0.0293,-0.15446 -17.28246,-61.02173 q -0.82388,-2.90902 -4.20954,-4.80018 l -6.49645,-1.52168 1.8325,-3.07673 52.63293,-14.9066 q 1.89425,-0.53648 3.74426,1.35113 -1.69412,5.88759 -1.1768,7.71418 l 1.91176,4.42787 -4.42314,-0.13577 q -7.63281,-2.95372 -17.71834,-1.92427 l -3.45922,0.6874 -3.48855,0.84187 -5.57676,1.72559 -2.62942,1.03701 7.4533,26.31647 34.70526,-9.82916 -2.6112,9.8743 -4.99343,8.42973 q -8.513,-6.57757 -21.31712,-3.53584 -0.27061,0.0766 -1.57515,0.37303 -1.37219,0.31556 -1.92358,0.69095 -0.57054,0.30775 -0.38793,0.6945 l 10.96978,38.47459 2.7827,-0.4958 5.6534,-1.45499 3.41191,-1.11247 3.30594,-1.22862 q 9.12752,-4.41203 14.07791,-10.92953 l 3.69505,-2.43499 0.69403,4.77275 q 0.51732,1.82659 5.04715,5.95144 z"
		id="path853" />
		<path
		fill="currentColor"
		d="m 512.70792,134.26365 q 0.31014,14.91313 5.35551,22.9534 -7.99028,-0.29861 -24.89643,10.72526 L 470.79676,182.561 q 0.74828,-6.61227 0.12573,-8.79491 l -2.70725,-5.10796 -30.01061,-47.82468 q -2.42925,-3.87124 -6.74915,-6.39005 -5.85681,-3.3806 -12.71191,-2.39932 l 20.90469,-13.117967 41.97001,66.883097 q 0.29079,0.0666 1.64662,-0.2862 2.65211,-0.66811 6.04689,-2.79838 16.61654,-10.4271 23.39614,-28.46098 z"
		id="path855" />
	</g>
</svg>
